<?xml version="1.0" encoding="UTF-8"?>
<svg version="1.1" xmlns="http://www.w3.org/2000/svg" width="200" height="268">
<path d="M0 0 C66 0 132 0 200 0 C200 88.44 200 176.88 200 268 C134 268 68 268 0 268 C0 179.56 0 91.12 0 0 Z " fill="#798281" transform="translate(0,0)"/>
<path d="M0 0 C66 0 132 0 200 0 C200 88.44 200 176.88 200 268 C170.96 268 141.92 268 112 268 C111.95969697 232.11238709 111.95969697 232.11238709 111.95117188 216.98046875 C111.94525688 206.56558739 111.93833401 196.15071417 111.92456055 185.73583984 C111.91453068 178.14802795 111.908127 170.5602227 111.90591151 162.97240436 C111.90461837 158.96217644 111.90162252 154.95196753 111.89426994 150.94174576 C111.83763699 118.86121182 111.83763699 118.86121182 113 104 C114.65 104 116.3 104 118 104 C118.33 105.32 118.66 106.64 119 108 C120.41634833 105.16730334 120.3463005 102.52533562 120.5625 99.375 C120.68818359 97.59222656 120.68818359 97.59222656 120.81640625 95.7734375 C120.87699219 94.85820313 120.93757813 93.94296875 121 93 C122.485 93.495 122.485 93.495 124 94 C124.33 94.99 124.66 95.98 125 97 C125.16777183 95.20843648 125.33418294 93.4167455 125.5 91.625 C125.5928125 90.62726563 125.685625 89.62953125 125.78125 88.6015625 C126.03565918 85.57591048 125.91372875 83.34889625 125.50830078 80.2890625 C124.76061433 73.66523652 124.85580344 67.032071 124.8671875 60.375 C124.86651273 58.97778303 124.86554127 57.58056618 124.86428833 56.18334961 C124.8628234 53.2753791 124.86492949 50.36743954 124.86962891 47.45947266 C124.87536822 43.72574446 124.87201331 39.99208749 124.86605644 36.25836182 C124.86245435 33.382868 124.86358704 30.50739129 124.86618423 27.63189697 C124.86685229 26.25392651 124.8660293 24.8759545 124.86370468 23.49798584 C124.86117942 21.58329293 124.86570733 19.66859456 124.87060547 17.75390625 C124.87140106 16.66408447 124.87219666 15.5742627 124.87301636 14.45141602 C125 12 125 12 126 11 C124.96875 10.87625 123.9375 10.7525 122.875 10.625 C119 10 119 10 116.13671875 8.97753906 C112.89106755 7.96605187 110.32552034 7.74187062 106.9375 7.734375 C105.81085938 7.73179687 104.68421875 7.72921875 103.5234375 7.7265625 C102.36070313 7.73429688 101.19796875 7.74203125 100 7.75 C98.25589844 7.73839844 98.25589844 7.73839844 96.4765625 7.7265625 C95.34992188 7.72914063 94.22328125 7.73171875 93.0625 7.734375 C92.04285156 7.73663086 91.02320312 7.73888672 89.97265625 7.74121094 C86.98632382 7.86950233 86.98632382 7.86950233 84.28707886 9.00198364 C80.51062196 10.14858399 77.37901495 10.24033338 73.43408203 10.22705078 C72.70168808 10.22734283 71.96929413 10.22763489 71.21470642 10.22793579 C68.81228471 10.22655094 66.41017952 10.21102997 64.0078125 10.1953125 C62.33487111 10.19157936 60.66192752 10.18873381 58.98898315 10.18673706 C54.59954728 10.1791243 50.2102451 10.15949619 45.82086182 10.1373291 C41.33632211 10.11681976 36.85176066 10.10772448 32.3671875 10.09765625 C23.57806385 10.07624796 14.78904859 10.04214065 6 10 C6 10.99 6 11.98 6 13 C5.34 13 4.68 13 4 13 C4.03425331 13.91579079 4.03425331 13.91579079 4.06919861 14.8500824 C4.31581032 21.45780214 4.55859523 28.065656 4.79956055 34.67358398 C4.88883126 37.10948948 4.97894473 39.54536429 5.07006836 41.98120117 C5.37984764 50.27255599 5.66698817 58.5644669 5.93145752 66.8573761 C5.97735351 68.29207541 6.02378556 69.72675766 6.07073975 71.16142273 C7.10508729 102.84724437 7.15668163 134.52951633 7.12856942 166.22934896 C7.12417616 171.77012184 7.12736778 177.31087241 7.1321975 182.85164392 C7.13726999 188.91776946 7.13675314 194.98387916 7.13381577 201.05000687 C7.13314991 203.6041629 7.13396297 206.15831977 7.13629532 208.71247482 C7.1388205 212.23981745 7.13498817 215.7670958 7.12939453 219.29443359 C7.13141876 220.34132355 7.13344299 221.3882135 7.13552856 222.46682739 C7.13270874 223.42139832 7.12988892 224.37596924 7.12698364 225.35946655 C7.12660662 226.18837088 7.12622959 227.0172752 7.12584114 227.87129784 C7 230 7 230 6 233 C6.66 233.33 7.32 233.66 8 234 C7.9278125 235.20914063 7.855625 236.41828125 7.78125 237.6640625 C7.2668103 246.63184893 6.89649797 255.52295237 7.0625 264.5078125 C7 267 7 267 6 268 C4.02 268 2.04 268 0 268 C0 179.56 0 91.12 0 0 Z " fill="#798381" transform="translate(0,0)"/>
<path d="M0 0 C1.16724609 -0.01224609 2.33449219 -0.02449219 3.53710938 -0.03710938 C4.66826172 -0.03904297 5.79941406 -0.04097656 6.96484375 -0.04296875 C7.99085693 -0.04707764 9.01687012 -0.05118652 10.07397461 -0.05541992 C13.33927508 0.20999744 15.9954832 1.06549995 19.0625 2.1875 C21.72951495 2.66024847 24.36433576 2.90837956 27.0625 3.1875 C26.7325 3.8475 26.4025 4.5075 26.0625 5.1875 C25.97041542 7.46476174 25.94500402 9.74480647 25.94897461 12.02392578 C25.94882858 12.72647491 25.94868256 13.42902405 25.9485321 14.15286255 C25.94922986 16.47954373 25.95701581 18.80614527 25.96484375 21.1328125 C25.96670842 22.74421139 25.96813209 24.35561084 25.96913147 25.9670105 C25.9729528 30.21178752 25.98277982 34.45653042 25.99383545 38.70129395 C26.00405782 43.03132668 26.00863086 47.36136493 26.01367188 51.69140625 C26.02440242 60.19011984 26.04147425 68.68880568 26.0625 77.1875 C27.0525 77.6825 27.0525 77.6825 28.0625 78.1875 C27.7325 78.5175 27.4025 78.8475 27.0625 79.1875 C26.82548761 82.04627909 26.64030818 84.88633297 26.5 87.75 C26.43522461 88.95946289 26.43522461 88.95946289 26.36914062 90.19335938 C26.26274738 92.19118805 26.16209112 94.1893207 26.0625 96.1875 C24.72916667 93.52083333 23.39583333 90.85416667 22.0625 88.1875 C22.02511719 88.94675781 21.98773438 89.70601563 21.94921875 90.48828125 C21.88347656 91.48214844 21.81773438 92.47601563 21.75 93.5 C21.66298828 94.97919922 21.66298828 94.97919922 21.57421875 96.48828125 C21.01627187 99.43134457 20.37709868 100.36932999 18.0625 102.1875 C18.0625 100.5375 18.0625 98.8875 18.0625 97.1875 C16.4125 97.1875 14.7625 97.1875 13.0625 97.1875 C12.7325 151.3075 12.4025 205.4275 12.0625 261.1875 C4.1425 261.1875 -3.7775 261.1875 -11.9375 261.1875 C-12.06902203 243.64358144 -12.19949894 226.09965553 -12.32865143 208.55571938 C-12.38866651 200.4067712 -12.44902815 192.25782589 -12.51025391 184.10888672 C-12.56371921 176.99271264 -12.61648517 169.87653375 -12.66846704 162.76034868 C-12.69592377 159.00473486 -12.72369268 155.24912404 -12.75230408 151.49351883 C-12.88995794 133.39132503 -12.97115239 115.29032444 -12.9375 97.1875 C-14.9175 97.1875 -16.8975 97.1875 -18.9375 97.1875 C-18.9375 98.1775 -18.9375 99.1675 -18.9375 100.1875 C-19.5975 100.1875 -20.2575 100.1875 -20.9375 100.1875 C-20.9375 90.6175 -20.9375 81.0475 -20.9375 71.1875 C-22.4225 71.6825 -22.4225 71.6825 -23.9375 72.1875 C-23.9375 71.1975 -23.9375 70.2075 -23.9375 69.1875 C-24.2675 69.1875 -24.5975 69.1875 -24.9375 69.1875 C-25.2675 48.0675 -25.5975 26.9475 -25.9375 5.1875 C-16.28731848 0.36240924 -10.49106231 0.00577384 0 0 Z " fill="#86908F" transform="translate(99.9375,6.8125)"/>
<path d="M0 0 C66 0 132 0 200 0 C200 88.44 200 176.88 200 268 C197.69 268 195.38 268 193 268 C192.21994802 252.10435278 191.84938697 236.25347196 191.8671875 220.33984375 C191.86650945 218.13261403 191.86553534 215.92538438 191.86428833 213.71815491 C191.86282771 209.11556276 191.86490771 204.51299022 191.86962891 199.91040039 C191.87524869 194.16758083 191.87199659 188.42480846 191.86617756 182.68199062 C191.84609298 159.112956 192.0033771 135.56329922 192.57430458 112.0008812 C193.06933833 91.43117372 193.12037153 70.87183781 193.06866455 50.29711914 C193.05618856 44.76272085 193.05196966 39.22830963 193.04621124 33.69390106 C193.03679956 25.46257582 193.01753419 17.23132976 193 9 C169.24 9 145.48 9 121 9 C121 8.34 121 7.68 121 7 C116.2674048 7.09393403 111.53529726 7.20011426 106.80322266 7.31738281 C105.19522518 7.35553759 103.58714627 7.39041348 101.97900391 7.421875 C99.66018684 7.4678206 97.3419238 7.52576381 95.0234375 7.5859375 C94.31069672 7.59748871 93.59795593 7.60903992 92.86361694 7.62094116 C89.76269383 7.71151693 87.16197046 7.9410802 84.23522949 9.0057373 C80.4808527 10.15954627 77.36016607 10.24026992 73.43408203 10.22705078 C72.70168808 10.22734283 71.96929413 10.22763489 71.21470642 10.22793579 C68.81228471 10.22655094 66.41017952 10.21102997 64.0078125 10.1953125 C62.33487111 10.19157936 60.66192752 10.18873381 58.98898315 10.18673706 C54.59954728 10.1791243 50.2102451 10.15949619 45.82086182 10.1373291 C41.33632211 10.11681976 36.85176066 10.10772448 32.3671875 10.09765625 C23.57806385 10.07624796 14.78904859 10.04214065 6 10 C6 10.99 6 11.98 6 13 C5.34 13 4.68 13 4 13 C4.03425331 13.91579079 4.03425331 13.91579079 4.06919861 14.8500824 C4.31581032 21.45780214 4.55859523 28.065656 4.79956055 34.67358398 C4.88883126 37.10948948 4.97894473 39.54536429 5.07006836 41.98120117 C5.37984764 50.27255599 5.66698817 58.5644669 5.93145752 66.8573761 C5.97735351 68.29207541 6.02378556 69.72675766 6.07073975 71.16142273 C7.10508729 102.84724437 7.15668163 134.52951633 7.12856942 166.22934896 C7.12417616 171.77012184 7.12736778 177.31087241 7.1321975 182.85164392 C7.13726999 188.91776946 7.13675314 194.98387916 7.13381577 201.05000687 C7.13314991 203.6041629 7.13396297 206.15831977 7.13629532 208.71247482 C7.1388205 212.23981745 7.13498817 215.7670958 7.12939453 219.29443359 C7.13141876 220.34132355 7.13344299 221.3882135 7.13552856 222.46682739 C7.13270874 223.42139832 7.12988892 224.37596924 7.12698364 225.35946655 C7.12660662 226.18837088 7.12622959 227.0172752 7.12584114 227.87129784 C7 230 7 230 6 233 C6.66 233.33 7.32 233.66 8 234 C7.9278125 235.20914063 7.855625 236.41828125 7.78125 237.6640625 C7.2668103 246.63184893 6.89649797 255.52295237 7.0625 264.5078125 C7 267 7 267 6 268 C4.02 268 2.04 268 0 268 C0 179.56 0 91.12 0 0 Z " fill="#1E282C" transform="translate(0,0)"/>
<path d="M0 0 C1.65 0 3.3 0 5 0 C5.33 8.25 5.66 16.5 6 25 C6.495 16.09 6.495 16.09 7 7 C8.32 6.34 9.64 5.68 11 5 C12.9349454 32.14693912 13.28360895 59.19181252 13.19561768 86.40008545 C13.18475132 90.63330557 13.18519144 94.86649407 13.18563652 99.09972572 C13.18502223 120.75372815 13.08275972 142.36847932 12 164 C7.71 164 3.42 164 -1 164 C-1.0232411 145.27483931 -1.04104152 126.54968276 -1.05181217 107.82451057 C-1.05694815 99.12828197 -1.06393887 90.43206255 -1.07543945 81.73583984 C-1.08546932 74.14802795 -1.091873 66.5602227 -1.09408849 58.97240436 C-1.09538163 54.96217644 -1.09837748 50.95196753 -1.10573006 46.94174576 C-1.16236301 14.86121182 -1.16236301 14.86121182 0 0 Z " fill="#39454B" transform="translate(113,104)"/>
<path d="M0 0 C1.16724609 -0.01224609 2.33449219 -0.02449219 3.53710938 -0.03710938 C4.66826172 -0.03904297 5.79941406 -0.04097656 6.96484375 -0.04296875 C7.99085693 -0.04707764 9.01687012 -0.05118652 10.07397461 -0.05541992 C13.33927508 0.20999744 15.9954832 1.06549995 19.0625 2.1875 C21.72951495 2.66024847 24.36433576 2.90837956 27.0625 3.1875 C26.7325 3.8475 26.4025 4.5075 26.0625 5.1875 C25.97041542 7.46476174 25.94500402 9.74480647 25.94897461 12.02392578 C25.94882858 12.72647491 25.94868256 13.42902405 25.9485321 14.15286255 C25.94922986 16.47954373 25.95701581 18.80614527 25.96484375 21.1328125 C25.96670842 22.74421139 25.96813209 24.35561084 25.96913147 25.9670105 C25.9729528 30.21178752 25.98277982 34.45653042 25.99383545 38.70129395 C26.00405782 43.03132668 26.00863086 47.36136493 26.01367188 51.69140625 C26.02440242 60.19011984 26.04147425 68.68880568 26.0625 77.1875 C27.0525 77.6825 27.0525 77.6825 28.0625 78.1875 C27.7325 78.5175 27.4025 78.8475 27.0625 79.1875 C26.82962992 80.86933948 26.64985834 82.5587416 26.5 84.25 C26.41621094 85.16910156 26.33242187 86.08820313 26.24609375 87.03515625 C26.15521484 88.10056641 26.15521484 88.10056641 26.0625 89.1875 C25.7325 89.1875 25.4025 89.1875 25.0625 89.1875 C24.14592019 83.80259359 23.95111841 78.64519811 24.0625 73.1875 C23.4025 73.1875 22.7425 73.1875 22.0625 73.1875 C21.4025 78.1375 20.7425 83.0875 20.0625 88.1875 C19.7325 88.1875 19.4025 88.1875 19.0625 88.1875 C18.4025 83.5675 17.7425 78.9475 17.0625 74.1875 C16.4025 75.5075 15.7425 76.8275 15.0625 78.1875 C13.09857692 76.56424793 12.15004268 75.67810468 11.69500732 73.12800598 C11.69865295 72.336577 11.70229858 71.54514801 11.70605469 70.72973633 C11.70305359 69.82641068 11.70005249 68.92308502 11.69696045 67.99238586 C11.70930725 67.01134384 11.72165405 66.03030182 11.734375 65.01953125 C11.73624817 63.99309006 11.73812134 62.96664886 11.74005127 61.90910339 C11.74678842 59.72086368 11.76073556 57.53263634 11.78125 55.34448242 C11.81169968 52.08565352 11.82215758 48.82731481 11.828125 45.56835938 C11.88259824 31.09044539 12.3543857 16.64737599 13.0625 2.1875 C12.26674561 2.26419922 11.47099121 2.34089844 10.65112305 2.41992188 C3.02497451 3.15497234 -4.16973708 3.1875 -11.9375 3.1875 C-11.9375 23.3175 -11.9375 43.4475 -11.9375 64.1875 C-13.4225 64.6825 -13.4225 64.6825 -14.9375 65.1875 C-15.2675 66.8375 -15.5975 68.4875 -15.9375 70.1875 C-16.5975 70.1875 -17.2575 70.1875 -17.9375 70.1875 C-18.2675 76.1275 -18.5975 82.0675 -18.9375 88.1875 C-19.2675 88.1875 -19.5975 88.1875 -19.9375 88.1875 C-20.7695582 82.46709989 -21.05786664 76.96509884 -20.9375 71.1875 C-22.4225 71.6825 -22.4225 71.6825 -23.9375 72.1875 C-23.9375 71.1975 -23.9375 70.2075 -23.9375 69.1875 C-24.2675 69.1875 -24.5975 69.1875 -24.9375 69.1875 C-25.2675 48.0675 -25.5975 26.9475 -25.9375 5.1875 C-16.28731848 0.36240924 -10.49106231 0.00577384 0 0 Z " fill="#E4E5DD" transform="translate(99.9375,6.8125)"/>
<path d="M0 0 C1.98 0 3.96 0 6 0 C6.91043292 18.83849853 7.13861778 37.64691346 7.10139394 56.50245714 C7.09501093 60.30065752 7.09454509 64.0988593 7.09336853 67.89706421 C7.09029821 75.04314811 7.08214476 82.18921616 7.07201904 89.33529317 C7.06072186 97.49051503 7.05531369 105.64573777 7.05032361 113.80096555 C7.03995692 130.53398622 7.02244366 147.26699107 7 164 C4.69 164 2.38 164 0 164 C0 109.88 0 55.76 0 0 Z " fill="#2D3B41" transform="translate(81,104)"/>
<path d="M0 0 C66 0 132 0 200 0 C200 1.65 200 3.3 200 5 C134 5 68 5 0 5 C0 3.35 0 1.7 0 0 Z " fill="#9BA09A" transform="translate(0,0)"/>
<path d="M0 0 C1.65 0 3.3 0 5 0 C5 54.12 5 108.24 5 164 C3.02 164 1.04 164 -1 164 C-1.02345676 145.27483975 -1.04104152 126.54968252 -1.05181217 107.82451057 C-1.05694815 99.12828197 -1.06393887 90.43206255 -1.07543945 81.73583984 C-1.08546932 74.14802795 -1.091873 66.5602227 -1.09408849 58.97240436 C-1.09538163 54.96217644 -1.09837748 50.95196753 -1.10573006 46.94174576 C-1.16236301 14.86121182 -1.16236301 14.86121182 0 0 Z " fill="#303E44" transform="translate(113,104)"/>
<path d="M0 0 C0.33 0 0.66 0 1 0 C1.33 2.64 1.66 5.28 2 8 C2.66 7.34 3.32 6.68 4 6 C4 62.1 4 118.2 4 176 C2.02 176 0.04 176 -2 176 C-2.04726746 158.66333161 -2.08225117 141.32668406 -2.10362434 123.98996544 C-2.11382352 115.935508 -2.12771199 107.88109156 -2.15087891 99.82666016 C-2.34666211 30.43799394 -2.34666211 30.43799394 0 0 Z " fill="#0C1113" transform="translate(196,92)"/>
<path d="M0 0 C0.33 0.66 0.66 1.32 1 2 C2.98 2 4.96 2 7 2 C7.0231348 13.1784617 7.04092092 24.35691775 7.05181217 35.53539848 C7.0570385 40.72559325 7.06413164 45.91577167 7.07543945 51.10595703 C7.08627718 56.11150397 7.09227873 61.11703516 7.09487724 66.12259293 C7.09672989 68.03562798 7.10034744 69.94866214 7.10573006 71.86169052 C7.11295221 74.53395219 7.11399044 77.20614816 7.11352539 79.87841797 C7.11712067 80.67539093 7.12071594 81.47236389 7.12442017 82.29348755 C7.11405216 87.77189568 7.11405216 87.77189568 6 90 C5.72620559 92.49457129 5.55450855 94.98892067 5.37890625 97.4921875 C5 100 5 100 4.0141449 101.76513672 C-1.87080068 114.73374584 1.77502701 135.33286163 1.69667697 149.48851776 C1.67454856 153.3134934 1.6472935 157.13843274 1.62062073 160.96337891 C1.57105166 168.18060017 1.52598278 175.39784197 1.48259836 182.61510277 C1.43291661 190.84266898 1.378115 199.07019872 1.32291877 207.29772949 C1.20964937 224.19845247 1.10269429 241.09920952 1 258 C0.67 258 0.34 258 0 258 C-0.78005198 242.10435278 -1.15061303 226.25347196 -1.1328125 210.33984375 C-1.13349055 208.13261403 -1.13446466 205.92538438 -1.13571167 203.71815491 C-1.13717229 199.11556276 -1.13509229 194.51299022 -1.13037109 189.91040039 C-1.12475131 184.16758337 -1.1280034 178.42481354 -1.13382244 172.68199825 C-1.15391638 149.10191799 -0.99651004 125.54116655 -0.42569542 101.96769333 C0.0652083 81.56346025 0.12065598 61.16989275 0.06866455 40.76068115 C0.0580733 36.12496445 0.05379387 31.48924116 0.04882812 26.85351562 C0.03838687 17.90232738 0.02153684 8.95116843 0 0 Z " fill="#2B363B" transform="translate(193,10)"/>
<path d="M0 0 C66 0 132 0 200 0 C200 2.31 200 4.62 200 7 C198.02 7 196.04 7 194 7 C193.67 6.34 193.34 5.68 193 5 C169.24 4.67 145.48 4.34 121 4 C121 3.34 121 2.68 121 2 C116.2674048 2.09393403 111.53529726 2.20011426 106.80322266 2.31738281 C105.19522518 2.35553759 103.58714627 2.39041348 101.97900391 2.421875 C99.66018684 2.4678206 97.3419238 2.52576381 95.0234375 2.5859375 C94.31069672 2.59748871 93.59795593 2.60903992 92.86361694 2.62094116 C89.76445261 2.71146556 87.16541398 2.93970243 84.2409668 4.0057373 C80.53741044 5.14191307 77.17238033 5.26701758 73.34228516 5.22705078 C72.22906387 5.22748886 72.22906387 5.22748886 71.09335327 5.22793579 C68.65846765 5.22655072 66.22389418 5.21102871 63.7890625 5.1953125 C62.09370084 5.19157944 60.39833701 5.18873385 58.70297241 5.18673706 C54.25435362 5.1791237 49.80586672 5.15949505 45.3572998 5.1373291 C40.81243676 5.11682107 36.26755229 5.10772476 31.72265625 5.09765625 C22.81504642 5.0762469 13.9075342 5.04213882 5 5 C4.67 5.66 4.34 6.32 4 7 C2.68 6.67 1.36 6.34 0 6 C0 4.02 0 2.04 0 0 Z " fill="#131C21" transform="translate(0,5)"/>
<path d="M0 0 C0.66 0 1.32 0 2 0 C3.06068065 7.76828811 3.13495547 15.40733379 3.11352539 23.24047852 C3.11324284 24.66050718 3.11340258 26.08053599 3.1139679 27.50056458 C3.11425322 31.33050098 3.10839949 35.16040567 3.10139394 38.99033475 C3.09511612 43.00217605 3.09455311 47.01401819 3.09336853 51.02586365 C3.09026822 58.61167108 3.08207245 66.197464 3.07201904 73.78326505 C3.06081741 82.42417797 3.05533727 91.06509161 3.05032361 99.70600998 C3.03988868 117.47068153 3.02231455 135.2353396 3 153 C1.35 153 -0.3 153 -2 153 C-2.67868513 117.72528846 -3.2527518 82.46670719 -2.625 47.1875 C-2.60357941 45.9372403 -2.58215881 44.68698059 -2.56008911 43.39883423 C-2.3548273 31.88157764 -2.08510318 20.3693116 -1.5234375 8.86328125 C-1.48658844 8.06939499 -1.44973938 7.27550873 -1.41177368 6.45756531 C-1.12184416 1.12184416 -1.12184416 1.12184416 0 0 Z " fill="#323F46" transform="translate(77,115)"/>
<path d="M0 0 C0.33 0 0.66 0 1 0 C2.02343959 17.43466441 2.13533113 34.84139151 2.10139394 52.29881048 C2.09503666 56.13573869 2.09454702 59.97266816 2.09336853 63.80960083 C2.09029099 71.03727454 2.08212713 78.26493268 2.07201904 85.49259961 C2.06074514 93.7372071 2.05531937 101.98181543 2.05032361 110.22642875 C2.03994046 127.15096143 2.02241222 144.07547905 2 161 C0.68 161 -0.64 161 -2 161 C-2.04666797 140.30352684 -2.08196327 119.60706231 -2.10362434 98.91054726 C-2.11394814 89.30134958 -2.12802947 79.69218454 -2.15087891 70.08300781 C-2.1707791 61.71014395 -2.18370841 53.33730372 -2.18817699 44.96441686 C-2.1907901 40.52878544 -2.1969548 36.09322165 -2.21146011 31.65761185 C-2.22499085 27.48639755 -2.22923183 23.31527903 -2.22621536 19.14404488 C-2.22676756 17.60972512 -2.23077179 16.0754023 -2.23841095 14.54110146 C-2.24830188 12.4528696 -2.24599063 10.36500352 -2.24050903 8.27676392 C-2.24235262 7.10608683 -2.24419621 5.93540974 -2.24609566 4.72925758 C-2 2 -2 2 0 0 Z " fill="#0E1416" transform="translate(2,107)"/>
<path d="M0 0 C1.98 0 3.96 0 6 0 C5.67 0.66 5.34 1.32 5 2 C4.90791542 4.27726174 4.88250402 6.55730647 4.88647461 8.83642578 C4.88632858 9.53897491 4.88618256 10.24152405 4.8860321 10.96536255 C4.88672986 13.29204373 4.89451581 15.61864527 4.90234375 17.9453125 C4.90420842 19.55671139 4.90563209 21.16811084 4.90663147 22.7795105 C4.9104528 27.02428752 4.92027982 31.26903042 4.93133545 35.51379395 C4.94155782 39.84382668 4.94613086 44.17386493 4.95117188 48.50390625 C4.96190242 57.00261984 4.97897425 65.50130568 5 74 C5.66 74.33 6.32 74.66 7 75 C6.505 75.495 6.505 75.495 6 76 C5.76712992 77.68183948 5.58735834 79.3712416 5.4375 81.0625 C5.35371094 81.98160156 5.26992187 82.90070313 5.18359375 83.84765625 C5.12300781 84.55792969 5.06242187 85.26820312 5 86 C4.67 86 4.34 86 4 86 C3.08342019 80.61509359 2.88861841 75.45769811 3 70 C2.34 70 1.68 70 1 70 C0.34 74.95 -0.32 79.9 -1 85 C-1.33 85 -1.66 85 -2 85 C-2.66 80.38 -3.32 75.76 -4 71 C-4.66 72.32 -5.32 73.64 -6 75 C-8.03549077 73.33969787 -8.92283585 72.46895717 -9.35644531 69.83374023 C-9.34709961 69.00044189 -9.33775391 68.16714355 -9.328125 67.30859375 C-9.32361328 66.37152588 -9.31910156 65.43445801 -9.31445312 64.46899414 C-9.29318359 63.46860107 -9.27191406 62.46820801 -9.25 61.4375 C-9.23904297 60.41712646 -9.22808594 59.39675293 -9.21679688 58.34545898 C-9.08594223 49.21479177 -8.63677599 40.10817083 -8 31 C-7.67 31 -7.34 31 -7 31 C-6.67 37.27 -6.34 43.54 -6 50 C-4.31699331 48.31699331 -4.77190923 46.17991273 -4.68359375 43.87109375 C-4.64169922 42.83662109 -4.59980469 41.80214844 -4.55664062 40.73632812 C-4.49766602 39.1034082 -4.49766602 39.1034082 -4.4375 37.4375 C-4.39431641 36.34501953 -4.35113281 35.25253906 -4.30664062 34.12695312 C-4.20017932 31.41810436 -4.09816484 28.70916008 -4 26 C-3.67 26 -3.34 26 -3 26 C-2.90912109 27.17369141 -2.90912109 27.17369141 -2.81640625 28.37109375 C-2.73261719 29.38300781 -2.64882812 30.39492188 -2.5625 31.4375 C-2.48128906 32.44683594 -2.40007812 33.45617188 -2.31640625 34.49609375 C-2.26788532 36.93640779 -2.26788532 36.93640779 -1 38 C-0.67 25.46 -0.34 12.92 0 0 Z " fill="#CCD0C9" transform="translate(121,10)"/>
<path d="M0 0 C40.26 0 80.52 0 122 0 C122.99 1.98 122.99 1.98 124 4 C82.42 4 40.84 4 -2 4 C-1.34 2.68 -0.68 1.36 0 0 Z " fill="#EAECE5" transform="translate(37,0)"/>
<path d="M0 0 C15.18 0 30.36 0 46 0 C46 0.33 46 0.66 46 1 C31.15 1 16.3 1 1 1 C1 1.99 1 2.98 1 4 C0.34 4 -0.32 4 -1 4 C-0.96574669 4.91579079 -0.96574669 4.91579079 -0.93080139 5.8500824 C-0.25718287 23.89903176 0.38448571 41.94897683 1 60 C1.05024323 61.45472717 1.05024323 61.45472717 1.10150146 62.93884277 C2.30509553 97.9500033 2.10393782 132.97342735 2 168 C1.67 168 1.34 168 1 168 C0.99191315 167.38519775 0.98382629 166.77039551 0.97549438 166.13696289 C0.47188819 128.39719043 -0.49055864 90.71406644 -2 53 C-3.49743119 54.49743119 -3.33202693 55.98824239 -3.5625 58.0625 C-3.7790625 60.0115625 -3.7790625 60.0115625 -4 62 C-4.33 62 -4.66 62 -5 62 C-5 42.2 -5 22.4 -5 2 C-3.68 2.33 -2.36 2.66 -1 3 C-0.67 2.01 -0.34 1.02 0 0 Z " fill="#455154" transform="translate(5,9)"/>
<path d="M0 0 C0.33 0 0.66 0 1 0 C1 47.85 1 95.7 1 145 C0.34 145 -0.32 145 -1 145 C-1.75746346 136.47769495 -2.14885874 128.03797887 -2.14526367 119.48364258 C-2.14862228 118.30787155 -2.1519809 117.13210052 -2.15544128 115.92070007 C-2.16485173 112.07863273 -2.16688887 108.23660936 -2.16796875 104.39453125 C-2.16939507 103.05961272 -2.17099162 101.72469436 -2.17275429 100.38977623 C-2.1819619 93.40803983 -2.18609433 86.42632235 -2.18530273 79.44458008 C-2.18470085 72.96714458 -2.19528622 66.48979206 -2.2110464 60.01237756 C-2.22416271 54.41964482 -2.22948503 48.82693911 -2.22884732 43.23419112 C-2.22859385 39.90736631 -2.23229983 36.58067448 -2.24202538 33.25385475 C-2.25185889 29.54522463 -2.2489346 25.83680762 -2.24291992 22.12817383 C-2.24853943 21.04376007 -2.25415894 19.95934631 -2.25994873 18.84207153 C-2.2332187 12.33249163 -1.54122123 6.32757085 0 0 Z " fill="#26343A" transform="translate(117,123)"/>
<path d="M0 0 C0.33 0 0.66 0 1 0 C1.98134406 4.99402847 2.21055382 9.82995926 2.31640625 14.8984375 C2.33718735 15.73339752 2.35796844 16.56835754 2.37937927 17.42861938 C2.44439469 20.0773349 2.50353491 22.72614359 2.5625 25.375 C2.60573096 27.17839478 2.64934666 28.98178038 2.69335938 30.78515625 C2.80074542 35.19001036 2.90017468 39.59494218 3 44 C3.66 37.4 4.32 30.8 5 24 C5.33 24 5.66 24 6 24 C6.33 27.96 6.66 31.92 7 36 C7.33 36 7.66 36 8 36 C8.33 33.69 8.66 31.38 9 29 C9.33 29 9.66 29 10 29 C10.90483637 34.36489595 11.12303662 39.50317457 11.0625 44.9375 C11.05798828 45.71673828 11.05347656 46.49597656 11.04882812 47.29882812 C11.03716908 49.19925268 11.01923877 51.09963706 11 53 C9.515 53.495 9.515 53.495 8 54 C7.505 56.475 7.505 56.475 7 59 C6.34 59 5.68 59 5 59 C4.67 64.94 4.34 70.88 4 77 C3.67 77 3.34 77 3 77 C2.1679418 71.27959989 1.87963336 65.77759884 2 60 C0.515 60.495 0.515 60.495 -1 61 C-1 60.01 -1 59.02 -1 58 C-1.33 58 -1.66 58 -2 58 C-2.30620447 32.10871082 -2.30620447 32.10871082 -0.47265625 24.9375 C0.94995471 19.10597079 0.28026307 12.33684152 -0.5625 6.4375 C-1 3 -1 3 0 0 Z " fill="#BFC3BE" transform="translate(77,18)"/>
<path d="M0 0 C22.26146117 -0.12008257 44.49788076 0.03062261 66.75354004 0.57147217 C82.17378484 0.94498519 97.57451337 1.13999674 113 1 C113 1.33 113 1.66 113 2 C112.24380371 2.01981934 111.48760742 2.03963867 110.70849609 2.06005859 C107.26366282 2.15564572 103.81940799 2.26518891 100.375 2.375 C99.18519531 2.4059375 97.99539062 2.436875 96.76953125 2.46875 C95.61582031 2.50742188 94.46210937 2.54609375 93.2734375 2.5859375 C92.21560059 2.6173584 91.15776367 2.6487793 90.06787109 2.68115234 C87.00234024 2.87117431 87.00234024 2.87117431 84.28686523 4.0057373 C80.56502201 5.13157898 77.18741394 5.26717445 73.34228516 5.22705078 C72.22906387 5.22748886 72.22906387 5.22748886 71.09335327 5.22793579 C68.65846765 5.22655072 66.22389418 5.21102871 63.7890625 5.1953125 C62.09370084 5.19157944 60.39833701 5.18873385 58.70297241 5.18673706 C54.25435362 5.1791237 49.80586672 5.15949505 45.3572998 5.1373291 C40.81243676 5.11682107 36.26755229 5.10772476 31.72265625 5.09765625 C22.81504642 5.0762469 13.9075342 5.04213882 5 5 C4.67 5.66 4.34 6.32 4 7 C2.68 6.67 1.36 6.34 0 6 C0 4.02 0 2.04 0 0 Z " fill="#1C252A" transform="translate(0,5)"/>
<path d="M0 0 C0.33 0.66 0.66 1.32 1 2 C2.98 2 4.96 2 7 2 C7 21.14 7 40.28 7 60 C6.01 60.495 6.01 60.495 5 61 C4.34 58.03 3.68 55.06 3 52 C2.34 52.66 1.68 53.32 1 54 C0.67 36.18 0.34 18.36 0 0 Z " fill="#2F383B" transform="translate(193,10)"/>
<path d="M0 0 C0.33 0 0.66 0 1 0 C1 7.59 1 15.18 1 23 C1.66 23 2.32 23 3 23 C3 76.13 3 129.26 3 184 C2.67 184 2.34 184 2 184 C1.67 133.51 1.34 83.02 1 31 C0.34 31.33 -0.32 31.66 -1 32 C-1.33 38.27 -1.66 44.54 -2 51 C-2.33 51 -2.66 51 -3 51 C-3.02519685 46.59326518 -3.04308799 42.18657133 -3.05493164 37.77978516 C-3.05988214 36.28856677 -3.06664426 34.79735301 -3.07543945 33.30615234 C-3.12193559 25.20488508 -3.05203798 17.12276702 -2.62109375 9.03125 C-2.55204834 7.72736328 -2.48300293 6.42347656 -2.41186523 5.08007812 C-2 2 -2 2 0 0 Z " fill="#58656A" transform="translate(78,84)"/>
<path d="M0 0 C0.66 0 1.32 0 2 0 C2.1541215 17.85475005 2.30214797 35.7095398 2.4429636 53.56439972 C2.50849136 61.85513435 2.57599649 70.14584398 2.64819336 78.43652344 C2.71113154 85.66456824 2.77032223 92.89263247 2.82505554 100.12074423 C2.85415297 103.94623305 2.88509794 107.7716864 2.92053413 111.59712219 C2.95386764 115.20196936 2.98216839 118.80682192 3.00670624 122.41173935 C3.02122845 124.35684901 3.04100008 126.30191729 3.06095886 128.24697876 C3.09713606 134.27087058 2.94197574 140.04657724 2 146 C1.01 145.67 0.02 145.34 -1 145 C-1.02340158 127.57089537 -1.04101477 110.14179567 -1.05181217 92.71267891 C-1.05695973 84.61931965 -1.06397299 76.52597017 -1.07543945 68.43261719 C-1.08543344 61.37518935 -1.09186462 54.31776861 -1.09408849 47.2603339 C-1.09538761 43.52646371 -1.09842262 39.79261381 -1.10573006 36.05875015 C-1.11383775 31.88176845 -1.11398811 27.70482159 -1.11352539 23.52783203 C-1.11712067 22.30143509 -1.12071594 21.07503815 -1.12442017 19.81147766 C-1.1164476 13.14387062 -0.83021735 6.61792996 0 0 Z " fill="#3A474C" transform="translate(99,122)"/>
<path d="M0 0 C0.33 0 0.66 0 1 0 C1.28885015 4.51635651 1.57350306 9.03295227 1.85449219 13.54980469 C1.9503814 15.0821015 2.04736038 16.61433055 2.14550781 18.14648438 C2.83006812 28.84797813 3.41133598 39.41680225 2.5 50.125 C2.4071875 51.24132812 2.314375 52.35765625 2.21875 53.5078125 C2.1465625 54.33023438 2.074375 55.15265625 2 56 C1.67 56 1.34 56 1 56 C1 52.37 1 48.74 1 45 C-0.98 45 -2.96 45 -5 45 C-5 45.99 -5 46.98 -5 48 C-5.66 48 -6.32 48 -7 48 C-7 41.4 -7 34.8 -7 28 C-6.67 28 -6.34 28 -6 28 C-5.92652344 26.95199219 -5.92652344 26.95199219 -5.8515625 25.8828125 C-5.73941406 24.51769531 -5.73941406 24.51769531 -5.625 23.125 C-5.55539063 22.22007813 -5.48578125 21.31515625 -5.4140625 20.3828125 C-5 18 -5 18 -3 16 C-2.59952556 13.67724823 -2.2602896 11.34260643 -2 9 C-1.67 9 -1.34 9 -1 9 C-0.67 6.03 -0.34 3.06 0 0 Z " fill="#97A19E" transform="translate(86,59)"/>
<path d="M0 0 C14.85 0 29.7 0 45 0 C44.34 1.32 43.68 2.64 43 4 C28.15 4 13.3 4 -2 4 C-1.34 2.68 -0.68 1.36 0 0 Z " fill="#EAECE5" transform="translate(37,0)"/>
<path d="M0 0 C0.94028046 0.00141495 1.88056091 0.0028299 2.84933472 0.00428772 C5.81365318 0.00982617 8.77789238 0.02236663 11.7421875 0.03515625 C13.76822807 0.04017922 15.79426983 0.04474072 17.8203125 0.04882812 C22.75263409 0.05977533 27.68489742 0.07699644 32.6171875 0.09765625 C32.6171875 0.75765625 32.6171875 1.41765625 32.6171875 2.09765625 C25.53721396 2.66744864 18.45740412 3.17748287 11.3671875 3.59765625 C7.0826119 3.85180454 2.81714052 4.14459549 -1.4453125 4.66015625 C-7.94135812 5.3819391 -13.17376376 5.3329138 -19.3828125 3.09765625 C-19.7128125 2.43765625 -20.0428125 1.77765625 -20.3828125 1.09765625 C-13.5623457 0.29185234 -6.86487063 -0.03985733 0 0 Z " fill="#C9CEC4" transform="translate(40.3828125,9.90234375)"/>
<path d="M0 0 C10.56 0 21.12 0 32 0 C32 1.65 32 3.3 32 5 C20.12 5 8.24 5 -4 5 C-4 4.67 -4 4.34 -4 4 C-2.35 4 -0.7 4 1 4 C0.67 2.68 0.34 1.36 0 0 Z " fill="#768688" transform="translate(168,0)"/>
<path d="M0 0 C0.33 0 0.66 0 1 0 C1.06058594 0.78246094 1.12117188 1.56492188 1.18359375 2.37109375 C1.26738281 3.38300781 1.35117188 4.39492187 1.4375 5.4375 C1.51871094 6.44683594 1.59992188 7.45617187 1.68359375 8.49609375 C1.73211468 10.93640779 1.73211468 10.93640779 3 12 C3.33 9.03 3.66 6.06 4 3 C4.33 3 4.66 3 5 3 C5.33 7.95 5.66 12.9 6 18 C5.34 18 4.68 18 4 18 C4.01160156 18.556875 4.02320312 19.11375 4.03515625 19.6875 C4.09676433 24.89778343 3.74999344 29.8437951 3 35 C2.67 35 2.34 35 2 35 C1.34 30.38 0.68 25.76 0 21 C-0.66 22.32 -1.32 23.64 -2 25 C-3.98510058 23.36292167 -4.91847304 22.49903853 -5.34057617 19.9152832 C-5.32486572 19.13499756 -5.30915527 18.35471191 -5.29296875 17.55078125 C-5.28330078 16.70322266 -5.27363281 15.85566406 -5.26367188 14.98242188 C-5.23853516 14.10134766 -5.21339844 13.22027344 -5.1875 12.3125 C-5.17396484 11.41982422 -5.16042969 10.52714844 -5.14648438 9.60742188 C-5.11114079 7.40433834 -5.06180493 5.20247418 -5 3 C-4.34 2.67 -3.68 2.34 -3 2 C-2.67 3.32 -2.34 4.64 -2 6 C-1.34 4.02 -0.68 2.04 0 0 Z " fill="#B1B8B3" transform="translate(117,60)"/>
<path d="M0 0 C11.88 0 23.76 0 36 0 C36 1.32 36 2.64 36 4 C23.46 4 10.92 4 -2 4 C-1.34 2.68 -0.68 1.36 0 0 Z " fill="#F1F1E8" transform="translate(82,0)"/>
<path d="M0 0 C9.57 0 19.14 0 29 0 C28.67 0.99 28.34 1.98 28 3 C30.475 3.495 30.475 3.495 33 4 C33 4.33 33 4.66 33 5 C22.11 5 11.22 5 0 5 C0 3.35 0 1.7 0 0 Z " fill="#6F7F82" transform="translate(0,0)"/>
<path d="M0 0 C0.33 0 0.66 0 1 0 C1.71889781 6.64120444 2.25781738 13.26451277 2.5625 19.9375 C2.6049585 20.85611816 2.64741699 21.77473633 2.69116211 22.72119141 C3.1902083 34.80875295 3.09013743 46.90494416 3 59 C2.67 59 2.34 59 2 59 C1.34 50.75 0.68 42.5 0 34 C-0.33 36.97 -0.66 39.94 -1 43 C-1.33 43 -1.66 43 -2 43 C-2.24187541 28.50794151 -1.89884716 14.37698562 0 0 Z " fill="#232E32" transform="translate(2,52)"/>
<path d="M0 0 C0.33 0 0.66 0 1 0 C1.04898438 0.78246094 1.09796875 1.56492188 1.1484375 2.37109375 C1.22320312 3.38300781 1.29796875 4.39492188 1.375 5.4375 C1.47941406 6.95150391 1.47941406 6.95150391 1.5859375 8.49609375 C1.72257812 9.32238281 1.85921875 10.14867187 2 11 C2.66 11.33 3.32 11.66 4 12 C4.02929981 15.83331699 4.04689897 19.66660471 4.0625 23.5 C4.07087891 24.57765625 4.07925781 25.6553125 4.08789062 26.765625 C4.10571885 32.61328382 3.89105963 38.21863671 3 44 C2.67 44 2.34 44 2 44 C1.34 39.05 0.68 34.1 0 29 C-0.99 29.66 -1.98 30.32 -3 31 C-4.9370237 27.76060884 -5.19417139 25.5397479 -4.9765625 21.796875 C-4.925 20.8171875 -4.8734375 19.8375 -4.8203125 18.828125 C-4.75585938 17.81234375 -4.69140625 16.7965625 -4.625 15.75 C-4.56828125 14.71875 -4.5115625 13.6875 -4.453125 12.625 C-4.311881 10.08260795 -4.16049254 7.54123762 -4 5 C-3.67 5 -3.34 5 -3 5 C-2.67 11.27 -2.34 17.54 -2 24 C-0.31699331 22.31699331 -0.77190923 20.17991273 -0.68359375 17.87109375 C-0.64169922 16.83662109 -0.59980469 15.80214844 -0.55664062 14.73632812 C-0.51732422 13.64771484 -0.47800781 12.55910156 -0.4375 11.4375 C-0.37272461 9.7987793 -0.37272461 9.7987793 -0.30664062 8.12695312 C-0.20017932 5.41810436 -0.09816484 2.70916008 0 0 Z " fill="#DFE1D8" transform="translate(117,36)"/>
<path d="M0 0 C0.33 0 0.66 0 1 0 C1.33 3.96 1.66 7.92 2 12 C2.33 12 2.66 12 3 12 C3.33 9.69 3.66 7.38 4 5 C4.33 5 4.66 5 5 5 C5.90483637 10.36489595 6.12303662 15.50317457 6.0625 20.9375 C6.05798828 21.71673828 6.05347656 22.49597656 6.04882812 23.29882812 C6.03716908 25.19925268 6.01923877 27.09963706 6 29 C5.01 29.33 4.02 29.66 3 30 C2.67 29.34 2.34 28.68 2 28 C0.35 28.66 -1.3 29.32 -3 30 C-3 26.7 -3 23.4 -3 20 C-2.67 20 -2.34 20 -2 20 C-1.34 13.4 -0.68 6.8 0 0 Z " fill="#D0D4CC" transform="translate(82,42)"/>
<path d="M0 0 C0.7321875 0.00202423 1.464375 0.00404846 2.21875 0.00613403 C2.97285156 0.00517731 3.72695312 0.00422058 4.50390625 0.00323486 C6.107911 0.00255247 7.71191848 0.00441087 9.31591797 0.00857544 C11.74322952 0.0138637 14.17035095 0.00866363 16.59765625 0.00222778 C24.06285355 -0.0006657 31.37747243 0.05922897 38.78125 1.13894653 C38.12125 2.12894653 37.46125 3.11894653 36.78125 4.13894653 C34.80125 3.80894653 32.82125 3.47894653 30.78125 3.13894653 C30.78125 3.79894653 30.78125 4.45894653 30.78125 5.13894653 C29.46125 5.13894653 28.14125 5.13894653 26.78125 5.13894653 C26.78125 4.47894653 26.78125 3.81894653 26.78125 3.13894653 C25.9975 3.32457153 25.21375 3.51019653 24.40625 3.70144653 C19.37713162 4.3084091 13.40905136 4.45284721 8.78125 2.13894653 C8.45125 2.79894653 8.12125 3.45894653 7.78125 4.13894653 C7.78125 3.47894653 7.78125 2.81894653 7.78125 2.13894653 C6.481875 2.38644653 6.481875 2.38644653 5.15625 2.63894653 C1.93723072 3.11583828 -0.97320586 3.36023363 -4.21875 3.13894653 C-4.87875 2.47894653 -5.53875 1.81894653 -6.21875 1.13894653 C-4.49565171 -0.58415176 -2.29692197 0.0107806 0 0 Z " fill="#ADB5AF" transform="translate(136.21875,9.861053466796875)"/>
<path d="M0 0 C1.98 0 3.96 0 6 0 C6.24907784 28.46001698 6.24907784 28.46001698 5 35 C4.01 35.495 4.01 35.495 3 36 C3 24.45 3 12.9 3 1 C2.34 1 1.68 1 1 1 C1 10.24 1 19.48 1 29 C0.67 29 0.34 29 0 29 C0 19.43 0 9.86 0 0 Z " fill="#49565A" transform="translate(81,104)"/>
<path d="M0 0 C0.99 0 1.98 0 3 0 C3.02495201 5.2103644 3.04297787 10.42069305 3.05493164 15.63110352 C3.05992164 17.39901334 3.06671601 19.16691911 3.07543945 20.93481445 C3.16597155 39.77081595 3.16597155 39.77081595 2 49 C1.67 49 1.34 49 1 49 C-0.15837658 38.57852858 -0.1158941 28.21725935 -0.0625 17.75 C-0.05747243 16.02213672 -0.05291176 14.29427202 -0.04882812 12.56640625 C-0.03792797 8.37756832 -0.02073348 4.18880033 0 0 Z " fill="#ECEDE5" transform="translate(118,10)"/>
<path d="M0 0 C0.33 0 0.66 0 1 0 C1.66 3.63 2.32 7.26 3 11 C3.33 11 3.66 11 4 11 C4 17.27 4 23.54 4 30 C3.34 30 2.68 30 2 30 C1.67 27.69 1.34 25.38 1 23 C0.34 24.98 -0.32 26.96 -1 29 C-1.33 29 -1.66 29 -2 29 C-2.05821935 25.10422976 -2.0936703 21.20857198 -2.125 17.3125 C-2.14175781 16.20970703 -2.15851563 15.10691406 -2.17578125 13.97070312 C-2.18222656 12.90400391 -2.18867188 11.83730469 -2.1953125 10.73828125 C-2.20578613 9.75899658 -2.21625977 8.77971191 -2.22705078 7.77075195 C-1.98597685 4.82887228 -1.23055542 2.66762274 0 0 Z " fill="#232D30" transform="translate(196,59)"/>
<path d="M0 0 C1.32 0 2.64 0 4 0 C4 4.29 4 8.58 4 13 C3.67 13 3.34 13 3 13 C2.67 12.01 2.34 11.02 2 10 C2.0721875 11.03898437 2.144375 12.07796875 2.21875 13.1484375 C2.73202421 20.77527142 3.16548759 28.35079586 3 36 C2.67 36 2.34 36 2 36 C1.67 40.29 1.34 44.58 1 49 C0.67 49 0.34 49 0 49 C-0.16782542 42.1825293 -0.32778898 35.36490729 -0.48217773 28.54711914 C-0.53568563 26.22578716 -0.59102145 23.90449658 -0.64819336 21.58325195 C-0.72985982 18.25481093 -0.80504119 14.92627837 -0.87890625 11.59765625 C-0.90594131 10.55287613 -0.93297638 9.50809601 -0.96083069 8.43165588 C-0.98092697 7.47073532 -1.00102325 6.50981476 -1.02172852 5.51977539 C-1.04171402 4.66928116 -1.06169952 3.81878693 -1.08229065 2.94252014 C-1 1 -1 1 0 0 Z " fill="#D8DAD2" transform="translate(75,11)"/>
<path d="M0 0 C0.66 0 1.32 0 2 0 C2.02500541 4.08934581 2.04300222 8.17866105 2.05493164 12.26806641 C2.05991293 13.65479306 2.06670039 15.04151459 2.07543945 16.42822266 C2.12398542 24.33835992 2.03835551 32.14502199 1 40 C0.67 40 0.34 40 0 40 C-1.05435078 35.69674111 -1.14528435 31.5132416 -1.1328125 27.109375 C-1.13376923 26.36415588 -1.13472595 25.61893677 -1.13571167 24.85113525 C-1.13638946 23.28454503 -1.13456327 21.71795195 -1.13037109 20.15136719 C-1.12498675 17.74407744 -1.13034509 15.33697171 -1.13671875 12.9296875 C-1.13605849 11.40624959 -1.13477841 9.88281179 -1.1328125 8.359375 C-1.13483673 7.63651306 -1.13686096 6.91365112 -1.13894653 6.16888428 C-1.1149722 1.1149722 -1.1149722 1.1149722 0 0 Z " fill="#5B6160" transform="translate(198,14)"/>
<path d="M0 0 C0.66 0 1.32 0 2 0 C2.17294156 14.2388552 2.17294156 14.2388552 1.5 20.4375 C0.96277582 25.49636103 0.97007093 30.48616617 1.01953125 35.57006836 C1.06598674 43.73171814 0.52767652 51.8587051 0 60 C-0.33 60 -0.66 60 -1 60 C-1.02316561 52.61994209 -1.04093664 45.23989201 -1.05181217 37.85980511 C-1.05703175 34.43297225 -1.06411265 31.00616425 -1.07543945 27.5793457 C-1.08837846 23.64013974 -1.09323586 19.70094387 -1.09765625 15.76171875 C-1.10281754 14.53039719 -1.10797882 13.29907562 -1.11329651 12.03044128 C-1.11337204 10.88948502 -1.11344757 9.74852875 -1.11352539 8.57299805 C-1.11685631 7.06409248 -1.11685631 7.06409248 -1.12025452 5.52470398 C-1 3 -1 3 0 0 Z " fill="#B5BCBA" transform="translate(7,11)"/>
<path d="M0 0 C0.99 0.33 1.98 0.66 3 1 C3.08076963 3.45898655 3.14037143 5.91533742 3.1875 8.375 C3.22520508 9.42300781 3.22520508 9.42300781 3.26367188 10.4921875 C3.29296875 12.5234375 3.29296875 12.5234375 3 16 C2.01 16.66 1.02 17.32 0 18 C-0.50621513 20.02276681 -0.50621513 20.02276681 -0.51171875 22.3515625 C-0.54716797 23.20234375 -0.58261719 24.053125 -0.61914062 24.9296875 C-0.64169922 25.81914063 -0.66425781 26.70859375 -0.6875 27.625 C-0.72166016 28.5221875 -0.75582031 29.419375 -0.79101562 30.34375 C-0.87362402 32.56237538 -0.94272719 34.7805994 -1 37 C-1.66 36.67 -2.32 36.34 -3 36 C-3.0580476 32.72924117 -3.09361165 29.45861476 -3.125 26.1875 C-3.14175781 25.25873047 -3.15851563 24.32996094 -3.17578125 23.37304688 C-3.18222656 22.48037109 -3.18867187 21.58769531 -3.1953125 20.66796875 C-3.20578613 19.84578857 -3.21625977 19.0236084 -3.22705078 18.17651367 C-3 16 -3 16 -1 13 C-0.5396236 9.80193335 -0.5396236 9.80193335 -0.375 6.3125 C-0.30023438 5.13300781 -0.22546875 3.95351562 -0.1484375 2.73828125 C-0.09945312 1.83464844 -0.05046875 0.93101563 0 0 Z " fill="#5D6A6F" transform="translate(121,93)"/>
<path d="M0 0 C0.33 0.66 0.66 1.32 1 2 C2.98 2 4.96 2 7 2 C7 2.66 7 3.32 7 4 C4 5 4 5 3 5 C3.00523682 5.66717041 3.01047363 6.33434082 3.01586914 7.02172852 C3.12179432 22.71340358 2.84676521 38.33033963 2 54 C1.67 54 1.34 54 1 54 C0.67 36.18 0.34 18.36 0 0 Z " fill="#4A5355" transform="translate(193,10)"/>
<path d="M0 0 C2.64 0 5.28 0 8 0 C8 0.66 8 1.32 8 2 C31.76 2 55.52 2 80 2 C80 2.33 80 2.66 80 3 C70.45523888 3.0463915 60.91051672 3.08190382 51.36566734 3.10362434 C46.93335353 3.11405041 42.501117 3.12818811 38.06884766 3.15087891 C33.78946806 3.17264927 29.51016268 3.18457748 25.23073196 3.18975449 C23.60010231 3.19344271 21.96947659 3.2006449 20.33887863 3.21146011 C18.05053761 3.22603086 15.76250122 3.22797562 13.47412109 3.22705078 C12.17284271 3.231492 10.87156433 3.23593323 9.53085327 3.24050903 C6.01921114 3.00130859 3.26717678 2.27160754 0 1 C0 0.67 0 0.34 0 0 Z " fill="#435053" transform="translate(113,7)"/>
<path d="M0 0 C2.00841268 0.01421885 4.01537247 0.13420475 6.01953125 0.265625 C5.68953125 1.255625 5.35953125 2.245625 5.01953125 3.265625 C20.19953125 3.595625 35.37953125 3.925625 51.01953125 4.265625 C51.01953125 4.595625 51.01953125 4.925625 51.01953125 5.265625 C44.1693603 5.29104831 37.3192016 5.30852269 30.46899414 5.32055664 C28.14021347 5.32557522 25.81143594 5.3323915 23.48266602 5.34106445 C20.12906112 5.35323855 16.77549801 5.35887818 13.421875 5.36328125 C11.86834572 5.37102318 11.86834572 5.37102318 10.28343201 5.37892151 C5.08270018 5.37932214 0.14337611 5.17352884 -4.98046875 4.265625 C-3.72152968 1.74774686 -2.88459378 0.38688832 0 0 Z " fill="#888F8A" transform="translate(30.98046875,-0.265625)"/>
<path d="M0 0 C0.33 0 0.66 0 1 0 C1.84388104 8.16617194 2.06162705 15.84997076 1 24 C0.34 24 -0.32 24 -1 24 C-1.66 25.32 -2.32 26.64 -3 28 C-3 21.4 -3 14.8 -3 8 C-2.67 8 -2.34 8 -2 8 C-1.855625 6.865625 -1.71125 5.73125 -1.5625 4.5625 C-1 1 -1 1 0 0 Z " fill="#818E8F" transform="translate(82,79)"/>
<path d="M0 0 C2.13604308 3.20406462 2.24208908 3.99600747 2.1953125 7.66796875 C2.18886719 8.56064453 2.18242188 9.45332031 2.17578125 10.37304688 C2.15902344 11.30181641 2.14226563 12.23058594 2.125 13.1875 C2.11597656 14.12787109 2.10695313 15.06824219 2.09765625 16.03710938 C2.07409056 18.35832968 2.04119116 20.67903644 2 23 C1.34 23.33 0.68 23.66 0 24 C-0.46523063 25.89533342 -0.46523063 25.89533342 -0.625 28.0625 C-0.74875 29.361875 -0.8725 30.66125 -1 32 C-1.33 32 -1.66 32 -2 32 C-2.05828635 27.79172527 -2.093693 23.58355511 -2.125 19.375 C-2.14175781 18.18519531 -2.15851563 16.99539062 -2.17578125 15.76953125 C-2.18222656 14.61582031 -2.18867187 13.46210937 -2.1953125 12.2734375 C-2.20578613 11.21560059 -2.21625977 10.15776367 -2.22705078 9.06787109 C-1.98270857 5.76636112 -1.16882977 3.08587237 0 0 Z " fill="#3A4244" transform="translate(2,39)"/>
<path d="M0 0 C2 2 2 2 2.22705078 5.89892578 C2.22673341 7.58108793 2.21539396 9.26327019 2.1953125 10.9453125 C2.1924826 11.8303244 2.18965271 12.7153363 2.18673706 13.62716675 C2.1755224 16.45991412 2.1504157 19.29234784 2.125 22.125 C2.11497185 24.04296419 2.10584572 25.96093333 2.09765625 27.87890625 C2.07557889 32.58605876 2.04104045 37.29297616 2 42 C1.01 42.495 1.01 42.495 0 43 C0.00523682 42.31599121 0.01047363 41.63198242 0.01586914 40.92724609 C0.18787808 23.72777649 0.18787808 23.72777649 -0.87890625 6.57421875 C-0.9944669 4.11762307 -0.74631743 2.32740474 0 0 Z " fill="#ADB5B3" transform="translate(192,11)"/>
<path d="M0 0 C0.33 0 0.66 0 1 0 C1.05834395 3.87493616 1.09371201 7.74975836 1.125 11.625 C1.15013672 13.26662109 1.15013672 13.26662109 1.17578125 14.94140625 C1.23923884 25.41190922 1.23923884 25.41190922 -1 30 C-1.66 30.33 -2.32 30.66 -3 31 C-4.9370237 27.76060884 -5.19417139 25.5397479 -4.9765625 21.796875 C-4.925 20.8171875 -4.8734375 19.8375 -4.8203125 18.828125 C-4.75585938 17.81234375 -4.69140625 16.7965625 -4.625 15.75 C-4.56828125 14.71875 -4.5115625 13.6875 -4.453125 12.625 C-4.311881 10.08260795 -4.16049254 7.54123762 -4 5 C-3.67 5 -3.34 5 -3 5 C-2.67 11.27 -2.34 17.54 -2 24 C-0.31699331 22.31699331 -0.77190923 20.17991273 -0.68359375 17.87109375 C-0.64169922 16.83662109 -0.59980469 15.80214844 -0.55664062 14.73632812 C-0.51732422 13.64771484 -0.47800781 12.55910156 -0.4375 11.4375 C-0.37272461 9.7987793 -0.37272461 9.7987793 -0.30664062 8.12695312 C-0.20017932 5.41810436 -0.09816484 2.70916008 0 0 Z " fill="#CED1C9" transform="translate(117,36)"/>
<path d="M0 0 C0 0.33 0 0.66 0 1 C-1.60875 1.2165625 -1.60875 1.2165625 -3.25 1.4375 C-5.91662949 1.83749442 -8.41399729 2.27591924 -11 3 C-11 3.66 -11 4.32 -11 5 C-16.07283639 5.20705455 -20.20867943 4.72487541 -25 3 C-25.33 2.34 -25.66 1.68 -26 1 C-17.33003296 -0.16711095 -8.72630608 -0.09744014 0 0 Z " fill="#A0AAA6" transform="translate(46,10)"/>
<path d="M0 0 C0.33 0 0.66 0 1 0 C1 8.58 1 17.16 1 26 C0.34 26.33 -0.32 26.66 -1 27 C-1.81434143 24.14839609 -2.11881242 21.63373869 -2.09765625 18.671875 C-2.09282227 17.47304688 -2.09282227 17.47304688 -2.08789062 16.25 C-2.07951172 15.425 -2.07113281 14.6 -2.0625 13.75 C-2.05798828 12.90953125 -2.05347656 12.0690625 -2.04882812 11.203125 C-2.03707961 9.13538599 -2.01914522 7.06768376 -2 5 C-1.67 5 -1.34 5 -1 5 C-0.67 3.35 -0.34 1.7 0 0 Z " fill="#3F4647" transform="translate(199,44)"/>
<path d="M0 0 C1.65 0 3.3 0 5 0 C4.01 0.33 3.02 0.66 2 1 C2.08378906 2.22976562 2.16757813 3.45953125 2.25390625 4.7265625 C2.3571286 6.35935242 2.45997323 7.99216625 2.5625 9.625 C2.61857422 10.43324219 2.67464844 11.24148437 2.73242188 12.07421875 C3.00604422 16.56162516 2.96801881 20.56862499 2 25 C1.01 25.33 0.02 25.66 -1 26 C-0.67 17.42 -0.34 8.84 0 0 Z " fill="#4A585C" transform="translate(113,104)"/>
<path d="M0 0 C1.65 0 3.3 0 5 0 C5 1.65 5 3.3 5 5 C-6.88 5 -18.76 5 -31 5 C-31 4.67 -31 4.34 -31 4 C-20.77 4 -10.54 4 0 4 C0 2.68 0 1.36 0 0 Z " fill="#566265" transform="translate(195,0)"/>
<path d="M0 0 C0.99 0 1.98 0 3 0 C3.05379226 2.95857409 3.09357093 5.91617721 3.125 8.875 C3.15013672 10.13763672 3.15013672 10.13763672 3.17578125 11.42578125 C3.18222656 12.23144531 3.18867187 13.03710938 3.1953125 13.8671875 C3.21102295 14.98262939 3.21102295 14.98262939 3.22705078 16.12060547 C3 18 3 18 1 20 C0.09761253 17.29283758 -0.11851302 15.76223232 -0.09765625 12.98828125 C-0.09443359 12.23095703 -0.09121094 11.47363281 -0.08789062 10.69335938 C-0.07951172 9.90767578 -0.07113281 9.12199219 -0.0625 8.3125 C-0.05798828 7.51521484 -0.05347656 6.71792969 -0.04882812 5.89648438 C-0.0370585 3.93095743 -0.01912348 1.96546915 0 0 Z " fill="#2F3C42" transform="translate(115,105)"/>
<path d="M0 0 C0.33 0 0.66 0 1 0 C1.33 4.95 1.66 9.9 2 15 C1.34 15 0.68 15 0 15 C0.01160156 15.556875 0.02320312 16.11375 0.03515625 16.6875 C0.09676433 21.89778343 -0.25000656 26.8437951 -1 32 C-1.33 32 -1.66 32 -2 32 C-2.33 26.39 -2.66 20.78 -3 15 C-2.67 15 -2.34 15 -2 15 C-1.34 10.05 -0.68 5.1 0 0 Z " fill="#A3ABA9" transform="translate(121,63)"/>
<path d="M0 0 C0.33 0 0.66 0 1 0 C2.16711095 8.66996704 2.09744014 17.27369392 2 26 C1.67 26 1.34 26 1 26 C0.67 24.35 0.34 22.7 0 21 C-0.33 23.64 -0.66 26.28 -1 29 C-1.33 29 -1.66 29 -2 29 C-2.32001346 19.23958934 -1.11306313 9.67967405 0 0 Z " fill="#2C3538" transform="translate(2,52)"/>
<path d="M0 0 C1.98510058 1.63707833 2.91847304 2.50096147 3.34057617 5.0847168 C3.32486572 5.86500244 3.30915527 6.64528809 3.29296875 7.44921875 C3.28330078 8.29677734 3.27363281 9.14433594 3.26367188 10.01757812 C3.23853516 10.89865234 3.21339844 11.77972656 3.1875 12.6875 C3.16719727 14.02651367 3.16719727 14.02651367 3.14648438 15.39257812 C3.11114079 17.59566166 3.06180493 19.79752582 3 22 C2.34 22 1.68 22 1 22 C0.16788724 16.96145894 -0.1078534 12.1874338 -0.0625 7.0625 C-0.05798828 6.37865234 -0.05347656 5.69480469 -0.04882812 4.99023438 C-0.0371956 3.32678396 -0.01926694 1.6633795 0 0 Z " fill="#2B3335" transform="translate(197,67)"/>
<path d="M0 0 C0.66 0.33 1.32 0.66 2 1 C2 5.62 2 10.24 2 15 C1.67 15 1.34 15 1 15 C1 12.03 1 9.06 1 6 C0.01 6.495 0.01 6.495 -1 7 C-1.33 13.27 -1.66 19.54 -2 26 C-2.33 26 -2.66 26 -3 26 C-3.08745946 22.6043303 -3.14054444 19.20895227 -3.1875 15.8125 C-3.21263672 14.85279297 -3.23777344 13.89308594 -3.26367188 12.90429688 C-3.35493909 4.11222193 -3.35493909 4.11222193 0 0 Z " fill="#4E5D62" transform="translate(78,109)"/>
<path d="M0 0 C1.14662109 -0.01836914 1.14662109 -0.01836914 2.31640625 -0.03710938 C6.58722392 -0.04817367 9.85360395 0.2159236 13.75 2.1875 C13.75 2.5175 13.75 2.8475 13.75 3.1875 C8 3.3125 8 3.3125 5.75 2.1875 C5.42 2.8475 5.09 3.5075 4.75 4.1875 C4.75 3.5275 4.75 2.8675 4.75 2.1875 C3.450625 2.435 3.450625 2.435 2.125 2.6875 C-1.09401928 3.16439174 -4.00445586 3.4087871 -7.25 3.1875 C-7.91 2.5275 -8.57 1.8675 -9.25 1.1875 C-7.17135808 -0.89114192 -2.85812111 0.00236208 0 0 Z " fill="#D0D4CA" transform="translate(139.25,9.8125)"/>
<path d="M0 0 C1.32 0 2.64 0 4 0 C4 1.32 4 2.64 4 4 C13.57 4 23.14 4 33 4 C33 4.33 33 4.66 33 5 C22.11 5 11.22 5 0 5 C0 3.35 0 1.7 0 0 Z " fill="#4F5B5F" transform="translate(0,0)"/>
<path d="M0 0 C0.33 0 0.66 0 1 0 C1 2.31 1 4.62 1 7 C1.66 7 2.32 7 3 7 C3.0270043 8.45823212 3.04639787 9.91660675 3.0625 11.375 C3.07410156 12.18710938 3.08570313 12.99921875 3.09765625 13.8359375 C3 16 3 16 2 18 C1.77377919 19.70363822 1.59111527 21.41328701 1.4375 23.125 C1.31181641 24.49011719 1.31181641 24.49011719 1.18359375 25.8828125 C1.12300781 26.58148438 1.06242188 27.28015625 1 28 C0.67 28 0.34 28 0 28 C0 18.76 0 9.52 0 0 Z " fill="#1B2224" transform="translate(197,82)"/>
<path d="M0 0 C0 2.31 0 4.62 0 7 C-0.66 7 -1.32 7 -2 7 C-2.33 12.94 -2.66 18.88 -3 25 C-3.33 25 -3.66 25 -4 25 C-5.63618952 7.53053035 -5.63618952 7.53053035 -4 1 C-2 0 -2 0 0 0 Z " fill="#B0B7B4" transform="translate(84,70)"/>
<path d="M0 0 C0.66 0 1.32 0 2 0 C2 6.93 2 13.86 2 21 C-1.375 16.5 -1.375 16.5 -1.07421875 12.890625 C-1.01943359 12.13652344 -0.96464844 11.38242188 -0.90820312 10.60546875 C-0.83537109 9.82816406 -0.76253906 9.05085937 -0.6875 8.25 C-0.62626953 7.45722656 -0.56503906 6.66445312 -0.50195312 5.84765625 C-0.34920979 3.89724131 -0.17654756 1.94840445 0 0 Z " fill="#4B595B" transform="translate(99,122)"/>
<path d="M0 0 C0.33 0.66 0.66 1.32 1 2 C2.98 2 4.96 2 7 2 C7 2.66 7 3.32 7 4 C4 5 4 5 3 5 C3 13.58 3 22.16 3 31 C2.67 31 2.34 31 2 31 C1.97494385 30.30962646 1.9498877 29.61925293 1.92407227 28.90795898 C1.8073434 25.75098591 1.68496822 22.59425543 1.5625 19.4375 C1.52318359 18.35146484 1.48386719 17.26542969 1.44335938 16.14648438 C1.22798645 10.69589254 0.91840778 5.37924559 0 0 Z " fill="#3F484B" transform="translate(193,10)"/>
<path d="M0 0 C0.33 0 0.66 0 1 0 C1.33 3.3 1.66 6.6 2 10 C2.66 7.36 3.32 4.72 4 2 C4.33 2 4.66 2 5 2 C5 4.97 5 7.94 5 11 C4.34 11 3.68 11 3 11 C2.67 11.99 2.34 12.98 2 14 C1.67 14 1.34 14 1 14 C0.67 15.65 0.34 17.3 0 19 C-0.33 19 -0.66 19 -1 19 C-1.10655578 12.55929529 -0.96205088 6.37358711 0 0 Z " fill="#919C98" transform="translate(113,74)"/>
<path d="M0 0 C0.66 0 1.32 0 2 0 C2.33 3.3 2.66 6.6 3 10 C1.35 10.66 -0.3 11.32 -2 12 C-2.05395478 10.37536158 -2.09277195 8.75021459 -2.125 7.125 C-2.14820312 6.22007813 -2.17140625 5.31515625 -2.1953125 4.3828125 C-2 2 -2 2 0 0 Z " fill="#C8CDC6" transform="translate(81,60)"/>
<path d="M0 0 C3.63 0 7.26 0 11 0 C10.34 1.32 9.68 2.64 9 4 C5.37 4 1.74 4 -2 4 C-1.34 2.68 -0.68 1.36 0 0 Z " fill="#C4CAC5" transform="translate(37,0)"/>
<path d="M0 0 C2.64 0 5.28 0 8 0 C8 0.66 8 1.32 8 2 C16.91 2 25.82 2 35 2 C35 2.33 35 2.66 35 3 C30.97985669 3.04970693 26.95983422 3.08586387 22.93945312 3.10986328 C21.5738615 3.1198759 20.20829106 3.13349005 18.84277344 3.15087891 C16.87184088 3.17533573 14.90074716 3.1854572 12.9296875 3.1953125 C11.15440674 3.21102295 11.15440674 3.21102295 9.34326172 3.22705078 C5.91307389 2.99409659 3.19696189 2.23025564 0 1 C0 0.67 0 0.34 0 0 Z " fill="#5D6565" transform="translate(113,7)"/>
<path d="M0 0 C0.99 0.33 1.98 0.66 3 1 C3.05389087 2.95803507 3.09274217 4.91648909 3.125 6.875 C3.14820312 7.96554688 3.17140625 9.05609375 3.1953125 10.1796875 C3 13 3 13 1 15 C-0.44207941 12.11584117 -0.09394887 9.58278472 -0.0625 6.375 C-0.05347656 5.18648438 -0.04445313 3.99796875 -0.03515625 2.7734375 C-0.02355469 1.85820313 -0.01195313 0.94296875 0 0 Z " fill="#5F7278" transform="translate(121,93)"/>
<path d="M0 0 C0.66 0 1.32 0 2 0 C2.89316269 5.93609666 2.97040422 11.06975197 2 17 C1.01 16.67 0.02 16.34 -1 16 C-0.67 10.72 -0.34 5.44 0 0 Z " fill="#485458" transform="translate(99,251)"/>
<path d="M0 0 C0.66 0.33 1.32 0.66 2 1 C1.67 1.66 1.34 2.32 1 3 C1.66 3 2.32 3 3 3 C3.32613618 7.67461851 2.70582788 10.16674383 0 14 C-0.66 13.67 -1.32 13.34 -2 13 C-1.85966889 11.02043559 -1.7125877 9.04134859 -1.5625 7.0625 C-1.48128906 5.96035156 -1.40007812 4.85820313 -1.31640625 3.72265625 C-1 1 -1 1 0 0 Z " fill="#8D9A9B" transform="translate(76,75)"/>
<path d="M0 0 C1.75570312 0.02707031 1.75570312 0.02707031 3.546875 0.0546875 C4.88492188 0.08949219 4.88492188 0.08949219 6.25 0.125 C6.25 0.785 6.25 1.445 6.25 2.125 C4.1674133 2.32061869 2.08388144 2.50619313 0 2.6875 C-1.74023438 2.84412109 -1.74023438 2.84412109 -3.515625 3.00390625 C-6.26871477 3.10698087 -8.169982 2.98713473 -10.75 2.125 C-7.15537669 -0.13498595 -4.18404325 -0.08368087 0 0 Z " fill="#DBDDD3" transform="translate(66.75,9.875)"/>
<path d="M0 0 C2.97 0 5.94 0 9 0 C9.33 1.32 9.66 2.64 10 4 C7.36 4 4.72 4 2 4 C1.34 2.68 0.68 1.36 0 0 Z " fill="#A3ADAC" transform="translate(159,0)"/>
<path d="M0 0 C1.16843775 3.50531324 0.96048238 5.94992377 0.6875 9.625 C0.60886719 10.79289063 0.53023438 11.96078125 0.44921875 13.1640625 C0.30097656 14.09992188 0.15273437 15.03578125 0 16 C-0.66 16.33 -1.32 16.66 -2 17 C-2 11.72 -2 6.44 -2 1 C-1.34 0.67 -0.68 0.34 0 0 Z " fill="#3F4D53" transform="translate(86,123)"/>
<path d="M0 0 C1.92077968 1.60233463 2.91180652 2.46768937 3.328125 4.98046875 C3.30234375 5.70878906 3.2765625 6.43710938 3.25 7.1875 C3.22421875 7.97382812 3.1984375 8.76015625 3.171875 9.5703125 C2.92390446 13.07571417 2.50585584 16.52224112 2 20 C1.67 20 1.34 20 1 20 C0.11978631 13.28837062 -0.11381955 6.76594019 0 0 Z " fill="#CCD1CA" transform="translate(118,60)"/>
<path d="M0 0 C0.99 0 1.98 0 3 0 C3.08090971 1.62418745 3.13914995 3.24951745 3.1875 4.875 C3.22230469 5.77992187 3.25710937 6.68484375 3.29296875 7.6171875 C3.19628906 8.40351563 3.09960938 9.18984375 3 10 C2.01 10.66 1.02 11.32 0 12 C0 8.04 0 4.08 0 0 Z " fill="#EEEDE6" transform="translate(114,8)"/>
<path d="M0 0 C2.00841268 0.01421885 4.01537247 0.13420475 6.01953125 0.265625 C5.35953125 1.585625 4.69953125 2.905625 4.01953125 4.265625 C1.04953125 4.265625 -1.92046875 4.265625 -4.98046875 4.265625 C-3.72152968 1.74774686 -2.88459378 0.38688832 0 0 Z " fill="#919D9D" transform="translate(30.98046875,-0.265625)"/>
<path d="M0 0 C2.31 0 4.62 0 7 0 C6.34 0.66 5.68 1.32 5 2 C4.35232207 4.57061311 4.35232207 4.57061311 4 7 C2.68 6.67 1.36 6.34 0 6 C0 4.02 0 2.04 0 0 Z " fill="#0E151A" transform="translate(0,5)"/>
<path d="M0 0 C0.33 0 0.66 0 1 0 C1.33 3.96 1.66 7.92 2 12 C1.34 12 0.68 12 0 12 C0 15.3 0 18.6 0 22 C-0.33 22 -0.66 22 -1 22 C-1.11459026 14.58982977 -0.91160286 7.35793733 0 0 Z " fill="#687575" transform="translate(99,110)"/>
<path d="M0 0 C3.3 0 6.6 0 10 0 C10 0.66 10 1.32 10 2 C10.99 2.33 11.98 2.66 13 3 C9.57056481 4.18771723 7.62215325 3.80226223 4.25 2.5625 C3.45078125 2.27503906 2.6515625 1.98757813 1.828125 1.69140625 C1.22484375 1.46324219 0.6215625 1.23507812 0 1 C0 0.67 0 0.34 0 0 Z " fill="#BEC3BB" transform="translate(148,10)"/>
<path d="M0 0 C0 0.33 0 0.66 0 1 C-1.60875 1.2165625 -1.60875 1.2165625 -3.25 1.4375 C-5.91662949 1.83749442 -8.41399729 2.27591924 -11 3 C-11 3.66 -11 4.32 -11 5 C-13.31 5 -15.62 5 -18 5 C-18 4.34 -18 3.68 -18 3 C-11.79485526 0.86380263 -6.57315478 -0.36517527 0 0 Z " fill="#AEB7B1" transform="translate(46,10)"/>
<path d="M0 0 C2.64 0 5.28 0 8 0 C8 1.32 8 2.64 8 4 C5.36 4 2.72 4 0 4 C0 2.68 0 1.36 0 0 Z " fill="#839092" transform="translate(4,0)"/>
<path d="M0 0 C2.97 0 5.94 0 9 0 C9 0.99 9 1.98 9 3 C5.7 3 2.4 3 -1 3 C-0.67 2.01 -0.34 1.02 0 0 Z " fill="#6D7E80" transform="translate(180,0)"/>
<path d="M0 0 C0.33 0 0.66 0 1 0 C1.33 4.29 1.66 8.58 2 13 C1.01 12.67 0.02 12.34 -1 12 C-1.02687279 10.18757948 -1.04633715 8.37504767 -1.0625 6.5625 C-1.07410156 5.55316406 -1.08570312 4.54382813 -1.09765625 3.50390625 C-1 1 -1 1 0 0 Z " fill="#8D9997" transform="translate(82,79)"/>
<path d="M0 0 C1.98 0 3.96 0 6 0 C6.66 1.32 7.32 2.64 8 4 C5.36 4 2.72 4 0 4 C0 2.68 0 1.36 0 0 Z " fill="#CED3CD" transform="translate(153,0)"/>
<path d="M0 0 C0.66 0 1.32 0 2 0 C2 0.99 2 1.98 2 3 C2.66 3.33 3.32 3.66 4 4 C3.67 4.33 3.34 4.66 3 5 C2.76712992 6.68183948 2.58735834 8.3712416 2.4375 10.0625 C2.31181641 11.44115234 2.31181641 11.44115234 2.18359375 12.84765625 C2.12300781 13.55792969 2.06242187 14.26820312 2 15 C1.67 15 1.34 15 1 15 C0.15318867 9.91913204 -0.09038099 5.15171623 0 0 Z " fill="#B0B8B2" transform="translate(124,81)"/>
<path d="M0 0 C1.98 0 3.96 0 6 0 C6 1.32 6 2.64 6 4 C3.36 4 0.72 4 -2 4 C-1.34 3.67 -0.68 3.34 0 3 C0 2.01 0 1.02 0 0 Z " fill="#879495" transform="translate(189,0)"/>
<path d="M0 0 C-0.33 0.99 -0.66 1.98 -1 3 C-3.64 3.33 -6.28 3.66 -9 4 C-9.33 3.34 -9.66 2.68 -10 2 C-6.5980513 -0.09350689 -3.94727588 -0.17942163 0 0 Z " fill="#BEC3BA" transform="translate(45,11)"/>
<path d="M0 0 C1.65 0 3.3 0 5 0 C5 1.65 5 3.3 5 5 C3.35 5 1.7 5 0 5 C0 3.35 0 1.7 0 0 Z " fill="#4C595E" transform="translate(195,0)"/>
<path d="M0 0 C1.98 0 3.96 0 6 0 C5.67 1.98 5.34 3.96 5 6 C4.01 5.67 3.02 5.34 2 5 C2 3.68 2 2.36 2 1 C1.34 0.67 0.68 0.34 0 0 Z " fill="#0D1419" transform="translate(193,5)"/>
<path d="M0 0 C1.4540625 0.0309375 1.4540625 0.0309375 2.9375 0.0625 C3.2675 1.0525 3.5975 2.0425 3.9375 3.0625 C1.0625 3.1875 1.0625 3.1875 -2.0625 3.0625 C-2.7225 2.4025 -3.3825 1.7425 -4.0625 1.0625 C-3.0625 0.0625 -3.0625 0.0625 0 0 Z " fill="#DBDDD3" transform="translate(134.0625,9.9375)"/>
<path d="M0 0 C0.33 1.32 0.66 2.64 1 4 C0.34 4 -0.32 4 -1 4 C-1 4.66 -1 5.32 -1 6 C-1.99 6 -2.98 6 -4 6 C-4.33 4.68 -4.66 3.36 -5 2 C-3.68 2.33 -2.36 2.66 -1 3 C-0.67 2.01 -0.34 1.02 0 0 Z " fill="#303A3F" transform="translate(5,9)"/>
<path d="M0 0 C2.97 0 5.94 0 9 0 C8.01 1.485 8.01 1.485 7 3 C4.69 2.34 2.38 1.68 0 1 C0 0.67 0 0.34 0 0 Z " fill="#A4ADA9" transform="translate(166,11)"/>
</svg>
