<?xml version="1.0" encoding="UTF-8"?>
<svg version="1.1" xmlns="http://www.w3.org/2000/svg" width="181" height="218">
<path d="M0 0 C3.71124031 1.4388919 4.84542614 2.99063279 6.5 6.5625 C7.13228516 7.8928125 7.13228516 7.8928125 7.77734375 9.25 C8.56848225 11.02942972 9.33345892 12.82082195 10.06640625 14.625 C10.55947266 15.8315625 10.55947266 15.8315625 11.0625 17.0625 C11.48208984 18.16271484 11.48208984 18.16271484 11.91015625 19.28515625 C12.88155001 21.2039103 12.88155001 21.2039103 15.12109375 21.74609375 C15.74113281 21.82988281 16.36117187 21.91367187 17 22 C17.37125 20.88625 17.37125 20.88625 17.75 19.75 C19.13726393 16.69801934 20.30694937 15.0005519 23 13 C25.75 13.25 25.75 13.25 28 14 C28 15.32 28 16.64 28 18 C27.2575 18.639375 26.515 19.27875 25.75 19.9375 C21.92436239 23.3729876 21.18582255 28.23655784 19.89453125 33.0390625 C19 36 19 36 17 39 C17.4559207 47.92084832 27.76822476 58.91802705 34 65 C37.04148965 67.50045544 40.04301809 69.39123355 44 70 C43.67 68.02 43.34 66.04 43 64 C42.01 64 41.02 64 40 64 C39.67 63.01 39.34 62.02 39 61 C38.34 61 37.68 61 37 61 C37.33 59.68 37.66 58.36 38 57 C37.195625 57.020625 36.39125 57.04125 35.5625 57.0625 C33 57 33 57 32 56 C31.73706944 51.96839809 31.70595156 50.44107266 34 47 C34.21140625 46.319375 34.4228125 45.63875 34.640625 44.9375 C36.82887562 41.81861406 40.20475121 41.68617718 43.75 41 C50.14933738 39.734197 55.53852413 38.30524419 59.65234375 32.78125 C60.07644531 32.0284375 60.50054687 31.275625 60.9375 30.5 C63.80873873 25.96134919 66.00077478 24.01723123 71 22 C74.625 21.375 74.625 21.375 78 22 C80.2163783 23.83116393 81.38164459 25.54794634 83 28 C83 28.66 83 29.32 83 30 C84.2375 29.896875 85.475 29.79375 86.75 29.6875 C90.02024865 29.7106113 90.73694545 29.78540287 93.375 31.9375 C96.54725518 37.91598092 97.50869641 44.25977259 97 51 C96.608125 52.03125 96.21625 53.0625 95.8125 54.125 C94.62518146 57.0432686 94.62518146 57.0432686 96.4375 59.625 C96.953125 60.40875 97.46875 61.1925 98 62 C98 65.18832794 96.90439209 66.10077591 94.6875 68.4375 C93.3571875 69.7059375 93.3571875 69.7059375 92 71 C91.278125 71.928125 90.55625 72.85625 89.8125 73.8125 C89.214375 74.534375 88.61625 75.25625 88 76 C87.34 76 86.68 76 86 76 C85.67 76.99 85.34 77.98 85 79 C83.37109375 80.38671875 83.37109375 80.38671875 81.4375 81.6875 C80.79683594 82.12449219 80.15617188 82.56148438 79.49609375 83.01171875 C79.00238281 83.33785156 78.50867188 83.66398437 78 84 C81.47365626 91.53941303 85.3328178 98.18286315 90.4609375 104.72265625 C92 107 92 107 92 110 C94.31 109.01 96.62 108.02 99 107 C98.60196439 104.11424181 98.20990931 103.17810487 95.9375 101.25 C95.298125 100.8375 94.65875 100.425 94 100 C94.33 98.68 94.66 97.36 95 96 C97.375 96.3125 97.375 96.3125 100 97 C100.99 98.485 100.99 98.485 102 100 C102.07347656 98.73542969 102.07347656 98.73542969 102.1484375 97.4453125 C102.22320312 96.34960938 102.29796875 95.25390625 102.375 94.125 C102.44460937 93.03445312 102.51421875 91.94390625 102.5859375 90.8203125 C103 88 103 88 105 86 C106.32 86.33 107.64 86.66 109 87 C109 90.3 109 93.6 109 97 C109.45890625 96.4225 109.9178125 95.845 110.390625 95.25 C111.31101563 94.13625 111.31101563 94.13625 112.25 93 C112.85328125 92.2575 113.4565625 91.515 114.078125 90.75 C116 89 116 89 120 89 C120.6875 90.6875 120.6875 90.6875 121 93 C119.44568209 96.18635171 117.62400522 98.62590004 115 101 C117.25 98.9375 117.25 98.9375 120 97 C122.3125 97.25 122.3125 97.25 124 98 C124 100.33333333 124 102.66666667 124 105 C124.66 105.66 125.32 106.32 126 107 C126.046875 109.05859375 126.046875 109.05859375 125.75 111.4375 C125.66234375 112.21996094 125.5746875 113.00242187 125.484375 113.80859375 C125 116 125 116 123 119 C118.30434783 118.08695652 118.30434783 118.08695652 116.11328125 117.4609375 C113.08761453 116.80099541 110.19974145 117.03036503 107.12109375 117.16015625 C105 117 105 117 102 115 C99.65334323 115.30279442 98.0627658 115.96469424 96 117.125 C94 118 94 118 92.125 117.8828125 C89.01028499 116.58883163 87.88751612 114.50754308 86 111.75 C83.44465007 108.0567208 80.84343257 104.47812734 78 101 C78.02356567 101.85996582 78.02356567 101.85996582 78.04760742 102.73730469 C78.4488835 119.62137643 78.01531912 134.85824471 66 148 C65.22140625 148.53367188 64.4428125 149.06734375 63.640625 149.6171875 C60.16433522 152.75407621 58.64788428 156.08970747 56.75 160.3125 C56.399375 161.04662109 56.04875 161.78074219 55.6875 162.53710938 C53.59991671 167.06154469 52.61936103 171.02008708 52 176 C50.67189785 177.67083819 49.33827304 179.33729713 48 181 C45.24700682 188.43308159 45.81692143 196.18864765 46 204 C48.72702823 204.80172289 50.00184298 204.99963942 52.875 204.4375 C56.56917002 203.9203162 58.53963095 204.70236161 62 206 C68.61383032 207.4432063 75.41016028 207.33540974 82.15039062 207.51757812 C88.92380798 207.75484919 95.36734042 208.60840214 102 210 C101.67 211.32 101.34 212.64 101 214 C93.29081245 215.60787524 86.00779314 216.13559262 78.14111328 215.99853516 C74.27209307 215.96818533 70.45353115 216.2049243 66.59375 216.48828125 C54.96768846 217.24741633 43.33307821 217.15183602 31.6875 217.125 C30.53791809 217.12378143 29.38833618 217.12256287 28.20391846 217.12130737 C12.02345613 217.10116806 -4.12763236 216.95787776 -20.29003906 216.13671875 C-22.9403121 216.00301128 -25.59078724 215.89000474 -28.2421875 215.78125 C-36.60732249 215.41210167 -44.77541512 214.66104361 -53 213 C-52.505 211.02 -52.505 211.02 -52 209 C-36.97045506 206.97191683 -22.15154735 206.76938284 -7 207 C-6.31498851 205.4361201 -5.64465165 203.86580763 -4.98046875 202.29296875 C-4.60559326 201.41922607 -4.23071777 200.5454834 -3.84448242 199.64526367 C-2.96847357 196.90124634 -2.93516399 195.13915383 -3.3125 192.3125 C-3.4296875 190.078125 -3.4296875 190.078125 -3 188 C-0.98688992 185.95980772 1.18377063 184.47987606 3.55078125 182.8671875 C10.00799888 177.94446019 13.64679826 170.17543453 16.95703125 162.93359375 C18 161 18 161 20 160 C20.92508319 156.00560104 21.21164034 152.09171321 21 148 C19.1264113 144.9594012 19.1264113 144.9594012 16 143 C14.71819131 141.95076691 13.44754477 140.88777242 12.1875 139.8125 C11.58292969 139.32394531 10.97835937 138.83539063 10.35546875 138.33203125 C9.90816406 137.89246094 9.46085937 137.45289063 9 137 C9 136.34 9 135.68 9 135 C13.49885947 134.13483472 16.01647791 133.69096728 20 136 C20.08636719 134.91203125 20.17273438 133.8240625 20.26171875 132.703125 C21.53362913 118.67847089 26.08019946 108.14628045 33.23046875 96.12890625 C36.01000656 91.21409437 38.02328158 86.60110582 37.98046875 80.8984375 C35.41424119 73.31221898 26.55881493 67.5256106 20.21484375 63.0234375 C17.39069471 60.44335072 16.51769716 58.08906469 15.25 54.5 C14.84265625 53.3759375 14.4353125 52.251875 14.015625 51.09375 C13.24061784 48.73295894 12.54592482 46.42105791 12 44 C10.14375 44.1546875 10.14375 44.1546875 8.25 44.3125 C6.0078125 44.328125 6.0078125 44.328125 4 44 C3.071875 42.7934375 3.071875 42.7934375 2.125 41.5625 C0.28427355 38.79724482 0.28427355 38.79724482 -2.390625 38.515625 C-4.17715191 38.38291157 -5.9670744 38.288762 -7.7578125 38.23828125 C-10 38 -10 38 -12 36 C-11.625 33.875 -11.625 33.875 -11 32 C-7.04 31.505 -7.04 31.505 -3 31 C-3.81404297 30.61908203 -3.81404297 30.61908203 -4.64453125 30.23046875 C-5.35996094 29.88628906 -6.07539062 29.54210937 -6.8125 29.1875 C-7.52019531 28.85105469 -8.22789063 28.51460937 -8.95703125 28.16796875 C-11.05038278 26.97119608 -12.47688385 25.86581728 -14 24 C-14.1875 21.3125 -14.1875 21.3125 -14 19 C-9.71422781 18.63460557 -7.65507938 19.51576402 -4.1875 22 C-3.39730469 22.556875 -2.60710938 23.11375 -1.79296875 23.6875 C-1.20128906 24.120625 -0.60960937 24.55375 0 25 C-0.62648437 24.24074219 -1.25296875 23.48148438 -1.8984375 22.69921875 C-2.71570312 21.70535156 -3.53296875 20.71148438 -4.375 19.6875 C-5.18710937 18.70136719 -5.99921875 17.71523438 -6.8359375 16.69921875 C-9 14 -9 14 -11 11 C-10.625 8.8125 -10.625 8.8125 -10 7 C-6.35590712 7.25243272 -5.14994237 7.84719705 -2.54296875 10.50390625 C-1.37701172 12.01791016 -1.37701172 12.01791016 -0.1875 13.5625 C0.60269531 14.57441406 1.39289062 15.58632812 2.20703125 16.62890625 C2.79871094 17.41136719 3.39039063 18.19382812 4 19 C3.31550781 17.44539063 3.31550781 17.44539063 2.6171875 15.859375 C2.0356422 14.48992962 1.45495772 13.12011847 0.875 11.75 C0.57207031 11.06808594 0.26914062 10.38617188 -0.04296875 9.68359375 C-2.18359806 4.55603983 -2.18359806 4.55603983 -1.1796875 1.515625 C-0.79039063 1.01546875 -0.40109375 0.5153125 0 0 Z M34 152 C32.3603125 154.784375 32.3603125 154.784375 30.6875 157.625 C30.07261719 158.66914063 29.45773438 159.71328125 28.82421875 160.7890625 C27.61124866 162.92409766 26.46652172 165.09940657 25.39453125 167.30859375 C24 170 24 170 22 171.4375 C20 172 20 172 17 171 C10.05372882 179.82066181 6.82150725 186.34685909 7.5859375 197.69921875 C7.89027066 200.99695809 7.89027066 200.99695809 9 204 C10.93330603 205.09166275 10.93330603 205.09166275 13 206 C13.66 206.66 14.32 207.32 15 208 C17.42597951 208.27787668 17.42597951 208.27787668 20.2265625 208.1953125 C21.2578125 208.18886719 22.2890625 208.18242187 23.3515625 208.17578125 C24.43179688 208.15902344 25.51203125 208.14226562 26.625 208.125 C27.71296875 208.11597656 28.8009375 208.10695312 29.921875 208.09765625 C32.61480152 208.07403409 35.30729255 208.04109556 38 208 C40.07968509 202.08311256 41.7930089 196.19032341 43.125 190.0625 C43.29749268 189.28197266 43.46998535 188.50144531 43.64770508 187.69726562 C44.71484041 182.72865872 45.51548685 177.83084496 45.82421875 172.75 C46 171 46 171 47 169 C47.0716735 166.44842345 47.09308442 163.92527029 47.0625 161.375 C47.05798828 160.66859375 47.05347656 159.9621875 47.04882812 159.234375 C47.03703875 157.48954725 47.01910324 155.744763 47 154 C42.71 153.34 38.42 152.68 34 152 Z " fill="#AFD5D0" transform="translate(55,0)"/>
<path d="M0 0 C0.33 0 0.66 0 1 0 C1.49243715 16.41457182 0.66796548 31.23816276 -11 44 C-11.77859375 44.53367188 -12.5571875 45.06734375 -13.359375 45.6171875 C-16.83566478 48.75407621 -18.35211572 52.08970747 -20.25 56.3125 C-20.600625 57.04662109 -20.95125 57.78074219 -21.3125 58.53710938 C-23.40008329 63.06154469 -24.38063897 67.02008708 -25 72 C-26.32810215 73.67083819 -27.66172696 75.33729713 -29 77 C-31.75299318 84.43308159 -31.18307857 92.18864765 -31 100 C-28.27297177 100.80172289 -26.99815702 100.99963942 -24.125 100.4375 C-20.43082998 99.9203162 -18.46036905 100.70236161 -15 102 C-8.38616968 103.4432063 -1.58983972 103.33540974 5.15039062 103.51757812 C11.92380798 103.75484919 18.36734042 104.60840214 25 106 C24.67 107.32 24.34 108.64 24 110 C16.29081245 111.60787524 9.00779314 112.13559262 1.14111328 111.99853516 C-2.72790693 111.96818533 -6.54646885 112.2049243 -10.40625 112.48828125 C-22.03231154 113.24741633 -33.66692179 113.15183602 -45.3125 113.125 C-46.46208191 113.12378143 -47.61166382 113.12256287 -48.79608154 113.12130737 C-64.97654387 113.10116806 -81.12763236 112.95787776 -97.29003906 112.13671875 C-99.9403121 112.00301128 -102.59078724 111.89000474 -105.2421875 111.78125 C-113.60732249 111.41210167 -121.77541512 110.66104361 -130 109 C-129.67 107.68 -129.34 106.36 -129 105 C-113.97045506 102.97191683 -99.15154735 102.76938284 -84 103 C-83.34 104.32 -82.68 105.64 -82 107 C-81.39414063 106.90460938 -80.78828125 106.80921875 -80.1640625 106.7109375 C-73.68914779 105.85425648 -68.31079794 106.37530521 -62 108 C-62 106.35 -62 104.7 -62 103 C-54.41 103 -46.82 103 -39 103 C-38.01295438 98.8767452 -37.03517772 94.75164645 -36.0625 90.625 C-35.78470703 89.46871094 -35.50691406 88.31242187 -35.22070312 87.12109375 C-33.79548056 81.04243363 -32.63588876 75.13825003 -32.20874023 68.90380859 C-32 67 -32 67 -31 65 C-30.76827173 62.45384991 -30.58105471 59.92603775 -30.4375 57.375 C-30.37272461 56.31539062 -30.37272461 56.31539062 -30.30664062 55.234375 C-30.20055249 53.48981463 -30.09977111 51.74493303 -30 50 C-31.62615234 50.04640625 -31.62615234 50.04640625 -33.28515625 50.09375 C-37.34619309 49.99126327 -39.53359012 49.02911798 -43 47 C-41.9318153 41.88634986 -40.76892524 36.92772031 -39 32 C-37.02 32.33 -35.04 32.66 -33 33 C-33 33.66 -33 34.32 -33 35 C-30.03824877 34.38722388 -28.61941217 33.74627478 -26 32 C-25.01 32 -24.02 32 -23 32 C-18.32491553 30.3038828 -13.77813717 28.28533667 -10 25 C-10 28 -10 28 -11.5 29.6875 C-11.995 30.120625 -12.49 30.55375 -13 31 C-12.51789063 30.6390625 -12.03578125 30.278125 -11.5390625 29.90625 C-10.59160156 29.21015625 -10.59160156 29.21015625 -9.625 28.5 C-8.99851562 28.0359375 -8.37203125 27.571875 -7.7265625 27.09375 C-6 26 -6 26 -4 26 C-3.814375 24.88625 -3.814375 24.88625 -3.625 23.75 C-3 21 -3 21 -2 19.375 C-0.47726564 15.7585059 -0.52975308 12.13817126 -0.375 8.25 C-0.31699219 7.06083984 -0.31699219 7.06083984 -0.2578125 5.84765625 C-0.163892 3.89880584 -0.08087178 1.94943549 0 0 Z " fill="#597772" transform="translate(132,104)"/>
<path d="M0 0 C3.73736632 -0.35593965 5.52468399 -0.32056196 8.6875 1.8125 C11.85437858 3.90383491 13.88475191 4.61453328 17.5 5.5 C22.06391077 6.64097769 25.20185122 8.15138841 29 11 C31.30870317 12.38051026 33.65264929 13.6854836 36 15 C36.33 14.34 36.66 13.68 37 13 C37.495 15.475 37.495 15.475 38 18 C37.278125 18.515625 36.55625 19.03125 35.8125 19.5625 C33.44130634 21.61753451 32.04169381 23.2128198 30.3125 25.75 C29.549375 26.8225 28.78625 27.895 28 29 C27.34 29 26.68 29 26 29 C25.67 29.99 25.34 30.98 25 32 C23.37109375 33.38671875 23.37109375 33.38671875 21.4375 34.6875 C20.79683594 35.12449219 20.15617187 35.56148437 19.49609375 36.01171875 C19.00238281 36.33785156 18.50867188 36.66398437 18 37 C21.47365626 44.53941303 25.3328178 51.18286315 30.4609375 57.72265625 C32 60 32 60 32 63 C34.31 62.01 36.62 61.02 39 60 C38.60196439 57.11424181 38.20990931 56.17810487 35.9375 54.25 C34.9784375 53.63125 34.9784375 53.63125 34 53 C34.33 51.68 34.66 50.36 35 49 C37.375 49.3125 37.375 49.3125 40 50 C40.66 50.99 41.32 51.98 42 53 C42.04898438 52.15695313 42.09796875 51.31390625 42.1484375 50.4453125 C42.22320312 49.34960938 42.29796875 48.25390625 42.375 47.125 C42.44460937 46.03445312 42.51421875 44.94390625 42.5859375 43.8203125 C43 41 43 41 45 39 C46.32 39.33 47.64 39.66 49 40 C49 43.3 49 46.6 49 50 C49.45890625 49.4225 49.9178125 48.845 50.390625 48.25 C51.00421875 47.5075 51.6178125 46.765 52.25 46 C52.85328125 45.2575 53.4565625 44.515 54.078125 43.75 C56 42 56 42 60 42 C60.6875 43.6875 60.6875 43.6875 61 46 C59.44568209 49.18635171 57.62400522 51.62590004 55 54 C57.25 51.9375 57.25 51.9375 60 50 C62.3125 50.25 62.3125 50.25 64 51 C64 53.33333333 64 55.66666667 64 58 C64.66 58.66 65.32 59.32 66 60 C66.046875 62.05859375 66.046875 62.05859375 65.75 64.4375 C65.66234375 65.21996094 65.5746875 66.00242187 65.484375 66.80859375 C65 69 65 69 63 72 C58.30434783 71.08695652 58.30434783 71.08695652 56.11328125 70.4609375 C53.08761453 69.80099541 50.19974145 70.03036503 47.12109375 70.16015625 C45 70 45 70 42 68 C39.65334323 68.30279442 38.0627658 68.96469424 36 70.125 C34 71 34 71 32.125 70.8828125 C29.01028499 69.58883163 27.88751612 67.50754308 26 64.75 C23.44465007 61.0567208 20.84343257 57.47812734 18 54 C17.9906543 54.55872803 17.98130859 55.11745605 17.97167969 55.69311523 C17.91731012 58.27540323 17.83380291 60.85600598 17.75 63.4375 C17.72873047 64.75524414 17.72873047 64.75524414 17.70703125 66.09960938 C17.47617671 72.35576735 16.32794706 77.62061794 13 83 C9.58888751 85.8304976 6.16592062 87.52967508 2 89 C3.2065625 87.824375 3.2065625 87.824375 4.4375 86.625 C6.98690417 84.28017144 6.98690417 84.28017144 8 82 C7.34 81.34 6.68 80.68 6 80 C6.495 79.401875 6.99 78.80375 7.5 78.1875 C9.28276418 76.02970006 9.28276418 76.02970006 9 73 C9.309375 71.9275 9.61875 70.855 9.9375 69.75 C12.99780448 58.94892535 11.90661972 48.74331397 6.8046875 38.70703125 C6 37 6 37 6 35 C5.34 35 4.68 35 4 35 C3.67 32.69 3.34 30.38 3 28 C5.64 26.68 8.28 25.36 11 24 C11.66 24.61875 12.32 25.2375 13 25.875 C16.70411034 28.49874482 19.57924515 29.10086342 24 30 C23.67 29.01 23.34 28.02 23 27 C22.34 26.67 21.68 26.34 21 26 C21 26.66 21 27.32 21 28 C17.21384982 27.78364856 16.08006093 27.08196714 13.375 24.3125 C8.93769813 18.42400507 7.46778438 13.25872309 7 6 C5.329375 6.309375 5.329375 6.309375 3.625 6.625 C2.42875 6.74875 1.2325 6.8725 0 7 C-0.66 6.34 -1.32 5.68 -2 5 C-2 4.01 -2 3.02 -2 2 C-1.34 2 -0.68 2 0 2 C0 1.34 0 0.68 0 0 Z " fill="#92716C" transform="translate(115,47)"/>
<path d="M0 0 C3.71124031 1.4388919 4.84542614 2.99063279 6.5 6.5625 C7.13228516 7.8928125 7.13228516 7.8928125 7.77734375 9.25 C8.56848225 11.02942972 9.33345892 12.82082195 10.06640625 14.625 C10.39511719 15.429375 10.72382812 16.23375 11.0625 17.0625 C11.34222656 17.79597656 11.62195313 18.52945312 11.91015625 19.28515625 C12.88155001 21.2039103 12.88155001 21.2039103 15.12109375 21.74609375 C16.05115234 21.87177734 16.05115234 21.87177734 17 22 C17.2475 21.2575 17.495 20.515 17.75 19.75 C19.13726393 16.69801934 20.30694937 15.0005519 23 13 C25.75 13.25 25.75 13.25 28 14 C28 15.32 28 16.64 28 18 C27.2575 18.639375 26.515 19.27875 25.75 19.9375 C21.92436239 23.3729876 21.18582255 28.23655784 19.89453125 33.0390625 C19 36 19 36 17 39 C17.45445651 47.89219909 27.76045486 58.95358364 34 65 C35.94854727 66.5131418 37.86524701 67.75038849 40 69 C39.01 69.495 39.01 69.495 38 70 C40.48952921 72.66735273 42.63408134 74.55746343 46 76 C46 77.98 46 79.96 46 82 C45.360625 82.226875 44.72125 82.45375 44.0625 82.6875 C43.381875 83.120625 42.70125 83.55375 42 84 C41.855625 84.804375 41.71125 85.60875 41.5625 86.4375 C41 89 41 89 38.4375 90.8125 C37.2309375 91.4003125 37.2309375 91.4003125 36 92 C36.14566406 91.43152344 36.29132813 90.86304687 36.44140625 90.27734375 C36.62574219 89.52582031 36.81007812 88.77429688 37 88 C37.19464844 87.30003906 37.38929687 86.60007812 37.58984375 85.87890625 C38.05257694 82.79575138 37.96730398 81.00184004 37 78 C32.44641535 72.14955171 26.23236711 67.29393795 20.21484375 63.0234375 C17.39069471 60.44335072 16.51769716 58.08906469 15.25 54.5 C14.84265625 53.3759375 14.4353125 52.251875 14.015625 51.09375 C13.24061784 48.73295894 12.54592482 46.42105791 12 44 C10.14375 44.1546875 10.14375 44.1546875 8.25 44.3125 C6.0078125 44.328125 6.0078125 44.328125 4 44 C3.38125 43.195625 2.7625 42.39125 2.125 41.5625 C0.28427355 38.79724482 0.28427355 38.79724482 -2.390625 38.515625 C-4.17715191 38.38291157 -5.9670744 38.288762 -7.7578125 38.23828125 C-10 38 -10 38 -12 36 C-11.625 33.875 -11.625 33.875 -11 32 C-7.04 31.505 -7.04 31.505 -3 31 C-3.54269531 30.74605469 -4.08539063 30.49210937 -4.64453125 30.23046875 C-5.35996094 29.88628906 -6.07539062 29.54210937 -6.8125 29.1875 C-7.52019531 28.85105469 -8.22789063 28.51460937 -8.95703125 28.16796875 C-11.05038278 26.97119608 -12.47688385 25.86581728 -14 24 C-14.1875 21.3125 -14.1875 21.3125 -14 19 C-9.71422781 18.63460557 -7.65507938 19.51576402 -4.1875 22 C-3.39730469 22.556875 -2.60710938 23.11375 -1.79296875 23.6875 C-1.20128906 24.120625 -0.60960937 24.55375 0 25 C-0.62648438 24.24074219 -1.25296875 23.48148438 -1.8984375 22.69921875 C-2.71570312 21.70535156 -3.53296875 20.71148438 -4.375 19.6875 C-5.18710937 18.70136719 -5.99921875 17.71523438 -6.8359375 16.69921875 C-9 14 -9 14 -11 11 C-10.625 8.8125 -10.625 8.8125 -10 7 C-6.35590712 7.25243272 -5.14994237 7.84719705 -2.54296875 10.50390625 C-1.76566406 11.51324219 -0.98835938 12.52257812 -0.1875 13.5625 C0.60269531 14.57441406 1.39289062 15.58632812 2.20703125 16.62890625 C3.09455078 17.80259766 3.09455078 17.80259766 4 19 C3.54367188 17.96359375 3.08734375 16.9271875 2.6171875 15.859375 C2.0356422 14.48992962 1.45495772 13.12011847 0.875 11.75 C0.57207031 11.06808594 0.26914062 10.38617188 -0.04296875 9.68359375 C-2.18359806 4.55603983 -2.18359806 4.55603983 -1.1796875 1.515625 C-0.79039063 1.01546875 -0.40109375 0.5153125 0 0 Z " fill="#C7958C" transform="translate(55,0)"/>
<path d="M0 0 C0.66 1.32 1.32 2.64 2 4 C2.60585938 3.90460938 3.21171875 3.80921875 3.8359375 3.7109375 C10.31085221 2.85425648 15.68920206 3.37530521 22 5 C22 3.35 22 1.7 22 0 C29.26 0 36.52 0 44 0 C44.495 2.475 44.495 2.475 45 5 C46.31613281 4.98839844 47.63226563 4.97679687 48.98828125 4.96484375 C67.08316867 4.85471891 67.08316867 4.85471891 76 6 C76 4.35 76 2.7 76 1 C99.99516389 0.58722095 99.99516389 0.58722095 109 3 C108.67 4.32 108.34 5.64 108 7 C100.29081245 8.60787524 93.00779314 9.13559262 85.14111328 8.99853516 C81.27209307 8.96818533 77.45353115 9.2049243 73.59375 9.48828125 C61.96768846 10.24741633 50.33307821 10.15183602 38.6875 10.125 C37.53791809 10.12378143 36.38833618 10.12256287 35.20391846 10.12130737 C19.02345613 10.10116806 2.87236764 9.95787776 -13.29003906 9.13671875 C-15.9403121 9.00301128 -18.59078724 8.89000474 -21.2421875 8.78125 C-29.60732249 8.41210167 -37.77541512 7.66104361 -46 6 C-45.67 4.68 -45.34 3.36 -45 2 C-30.02816739 -0.39549322 -15.12880743 -0.2087175 0 0 Z " fill="#000000" transform="translate(48,207)"/>
<path d="M0 0 C0.33 0 0.66 0 1 0 C1.12375 0.94875 1.2475 1.8975 1.375 2.875 C1.71687177 6.08667191 1.71687177 6.08667191 4 8 C4.17563247 10.52136777 4.23371392 12.91884157 4.1875 15.4375 C4.18105469 16.15164062 4.17460938 16.86578125 4.16796875 17.6015625 C4.0842296 23.43190117 3.68712209 29.20854236 3 35 C4.94899376 31.47324938 6.34165802 28.04703137 7.4375 24.1875 C11.21325136 11.18868932 11.21325136 11.18868932 14.87890625 8.75 C17 8 17 8 21 8 C21.495 8.99 21.495 8.99 22 10 C22.99 9.67 23.98 9.34 25 9 C24.67 10.32 24.34 11.64 24 13 C21.69 13 19.38 13 17 13 C16.79503906 13.75925781 16.59007812 14.51851562 16.37890625 15.30078125 C16.10949219 16.29464844 15.84007812 17.28851563 15.5625 18.3125 C15.29566406 19.29863281 15.02882812 20.28476563 14.75390625 21.30078125 C14.21920575 23.21517526 13.62855462 25.11433615 13 27 C13.66 27.33 14.32 27.66 15 28 C14.34 28 13.68 28 13 28 C12.73832031 28.68835938 12.47664063 29.37671875 12.20703125 30.0859375 C10.85120472 33.35922743 9.31816187 36.47937732 7.6875 39.625 C6.82705078 41.31496094 6.82705078 41.31496094 5.94921875 43.0390625 C3.88225885 46.17885328 2.44362959 47.54371149 -1 49 C-2.485 48.505 -2.485 48.505 -4 48 C-12.44200533 58.49597538 -12.99876096 66.86351903 -12 80 C-11.195625 80.20625 -10.39125 80.4125 -9.5625 80.625 C-8.716875 81.07875 -7.87125 81.5325 -7 82 C-6.1875 85.125 -6.1875 85.125 -6 88 C-7.66289063 87.87431641 -7.66289063 87.87431641 -9.359375 87.74609375 C-10.82289328 87.64289695 -12.28643631 87.54005074 -13.75 87.4375 C-14.47960938 87.38142578 -15.20921875 87.32535156 -15.9609375 87.26757812 C-20.10167069 86.95997277 -20.10167069 86.95997277 -24.18066406 87.55493164 C-24.78104492 87.7018042 -25.38142578 87.84867676 -26 88 C-27 87 -27 87 -27.25 84.4375 C-27.02928681 81.40269366 -26.64526768 79.88860301 -25.5 77.1875 C-24.13705445 73.97045736 -23.98710283 71.89331113 -24.375 68.4375 C-24.46484375 66.1484375 -24.46484375 66.1484375 -24 64 C-21.98768107 61.95616825 -19.81788765 60.48100587 -17.44921875 58.8671875 C-10.99200112 53.94446019 -7.35320174 46.17543453 -4.04296875 38.93359375 C-3 37 -3 37 -1 36 C-0.07491681 32.00560104 0.21164034 28.09171321 0 24 C-1.8735887 20.9594012 -1.8735887 20.9594012 -5 19 C-6.28180869 17.95076691 -7.55245523 16.88777242 -8.8125 15.8125 C-9.41707031 15.32394531 -10.02164063 14.83539063 -10.64453125 14.33203125 C-11.09183594 13.89246094 -11.53914063 13.45289063 -12 13 C-12 12.34 -12 11.68 -12 11 C-5.5 9.75 -5.5 9.75 -1 12 C-0.67 8.04 -0.34 4.08 0 0 Z " fill="#8DD0CF" transform="translate(76,124)"/>
<path d="M0 0 C-1.20554413 2.49899253 -2.50953711 4.90230531 -3.875 7.3203125 C-7.54079553 13.8443312 -10.54060193 19.49030922 -11.578125 27 C-12.20425944 29.96834106 -14.07463347 31.71362725 -16 34 C-18.75299318 41.43308159 -18.18307857 49.18864765 -18 57 C-15.27297177 57.80172289 -13.99815702 57.99963942 -11.125 57.4375 C-7.43082998 56.9203162 -5.46036905 57.70236161 -2 59 C-0.00102872 59.33944795 1.99875639 59.67421616 4 60 C5 61 5 61 5 66 C-5.23 65.67 -15.46 65.34 -26 65 C-24.87731539 54.89583852 -24.87731539 54.89583852 -23.84375 50.66015625 C-23.62589844 49.74169922 -23.40804687 48.82324219 -23.18359375 47.87695312 C-22.72876045 46.00433947 -22.27303472 44.13194235 -21.81640625 42.25976562 C-20.53019064 36.82950031 -19.63424736 31.56323328 -19.22851562 25.99389648 C-19 24 -19 24 -18 22 C-17.7677354 19.28737884 -17.58063765 16.59226874 -17.4375 13.875 C-17.39431641 13.12089844 -17.35113281 12.36679688 -17.30664062 11.58984375 C-17.2005168 9.72678112 -17.09974999 7.86341476 -17 6 C-18.32 5.67 -19.64 5.34 -21 5 C-19.96359375 4.89042969 -18.9271875 4.78085938 -17.859375 4.66796875 C-16.48950736 4.50846361 -15.11971963 4.34827116 -13.75 4.1875 C-13.06808594 4.11724609 -12.38617188 4.04699219 -11.68359375 3.97460938 C-7.31923335 3.44495399 -3.8040769 0 0 0 Z " fill="#3D656B" transform="translate(119,147)"/>
<path d="M0 0 C3.73736632 -0.35593965 5.52468399 -0.32056196 8.6875 1.8125 C11.85437858 3.90383491 13.88475191 4.61453328 17.5 5.5 C22.06391077 6.64097769 25.20185122 8.15138841 29 11 C31.30870317 12.38051026 33.65264929 13.6854836 36 15 C36.33 14.34 36.66 13.68 37 13 C37.495 15.475 37.495 15.475 38 18 C36.35 19.32 34.7 20.64 33 22 C32.505 21.01 32.505 21.01 32 20 C31.18595703 20.6496875 31.18595703 20.6496875 30.35546875 21.3125 C29.64003906 21.869375 28.92460937 22.42625 28.1875 23 C27.47980469 23.556875 26.77210938 24.11375 26.04296875 24.6875 C24 26 24 26 21 26 C21 26.66 21 27.32 21 28 C17.21384982 27.78364856 16.08006093 27.08196714 13.375 24.3125 C8.93769813 18.42400507 7.46778438 13.25872309 7 6 C5.329375 6.309375 5.329375 6.309375 3.625 6.625 C2.42875 6.74875 1.2325 6.8725 0 7 C-0.66 6.34 -1.32 5.68 -2 5 C-2 4.01 -2 3.02 -2 2 C-1.34 2 -0.68 2 0 2 C0 1.34 0 0.68 0 0 Z " fill="#4E6563" transform="translate(115,47)"/>
<path d="M0 0 C1.29887873 4.19141717 0.42963299 6.8615887 -1 11 C-1.99 12.485 -1.99 12.485 -3 14 C-2.54554349 22.89219909 7.76045486 33.95358364 14 40 C15.94854727 41.5131418 17.86524701 42.75038849 20 44 C19.01 44.495 19.01 44.495 18 45 C20.48952921 47.66735273 22.63408134 49.55746343 26 51 C26 52.98 26 54.96 26 57 C25.0409375 57.3403125 25.0409375 57.3403125 24.0625 57.6875 C23.381875 58.120625 22.70125 58.55375 22 59 C21.855625 59.804375 21.71125 60.60875 21.5625 61.4375 C21 64 21 64 18.4375 65.8125 C17.2309375 66.4003125 17.2309375 66.4003125 16 67 C16.14566406 66.43152344 16.29132813 65.86304687 16.44140625 65.27734375 C16.62574219 64.52582031 16.81007812 63.77429688 17 63 C17.19464844 62.30003906 17.38929687 61.60007813 17.58984375 60.87890625 C18.05257694 57.79575138 17.96730398 56.00184004 17 53 C12.44641535 47.14955171 6.23236711 42.29393795 0.21484375 38.0234375 C-2.60930529 35.44335072 -3.48230284 33.08906469 -4.75 29.5 C-5.15734375 28.3759375 -5.5646875 27.251875 -5.984375 26.09375 C-6.75938216 23.73295894 -7.45407518 21.42105791 -8 19 C-9.2375 19.103125 -10.475 19.20625 -11.75 19.3125 C-13.9921875 19.328125 -13.9921875 19.328125 -16 19 C-16.61875 18.195625 -17.2375 17.39125 -17.875 16.5625 C-19.72713605 13.79835436 -19.72713605 13.79835436 -22.4609375 13.4453125 C-24.97896143 13.21255399 -27.47213077 13.05306596 -30 13 C-29.01 12.67 -28.02 12.34 -27 12 C-26.67 11.34 -26.34 10.68 -26 10 C-26 10.66 -26 11.32 -26 12 C-24.741875 11.938125 -23.48375 11.87625 -22.1875 11.8125 C-18.22567479 11.79168481 -18.22567479 11.79168481 -16.375 13.5 C-15.92125 13.995 -15.4675 14.49 -15 15 C-11.87450983 15.25048636 -11.87450983 15.25048636 -9 15 C-9 13.68 -9 12.36 -9 11 C-8.22269531 10.93941406 -7.44539063 10.87882812 -6.64453125 10.81640625 C-3.81257756 10.26532213 -3.81257756 10.26532213 -2.63671875 7.71484375 C-2.32347656 6.79832031 -2.01023437 5.88179687 -1.6875 4.9375 C-1.36136719 4.01839844 -1.03523438 3.09929688 -0.69921875 2.15234375 C-0.46847656 1.44207031 -0.23773438 0.73179688 0 0 Z " fill="#82BBBA" transform="translate(75,25)"/>
<path d="M0 0 C2.23882525 1.80999553 3.38019991 3.54575744 5 6 C5 6.66 5 7.32 5 8 C6.2375 7.896875 7.475 7.79375 8.75 7.6875 C12.02024865 7.7106113 12.73694545 7.78540287 15.375 9.9375 C19.03386908 16.83306096 20.20326139 24.74847644 18.0625 32.3125 C17 35 17 35 16 37 C13 33.25 13 33.25 13 31 C12.34 30.01 11.68 29.02 11 28 C10.875 25.3125 10.875 25.3125 11 23 C12.32 22.67 13.64 22.34 15 22 C14.34 21.01 13.68 20.02 13 19 C10.54775306 19.10613836 10.54775306 19.10613836 8 20 C6.62533375 22.47636012 6.62533375 22.47636012 6 25 C5.4225 24.690625 4.845 24.38125 4.25 24.0625 C2.0792179 22.92922397 2.0792179 22.92922397 -0.125 22.5625 C-2 22 -2 22 -4 19 C-3.69050349 15.69870394 -2.46254526 14.1413437 0 12 C-1.03876234 10.77485711 -1.03876234 10.77485711 -3.25 10.5625 C-7.44858555 11.23045679 -8.54333585 13.6308606 -11 17 C-11.99 16.34 -12.98 15.68 -14 15 C-13.34 15 -12.68 15 -12 15 C-12.12375 14.2575 -12.2475 13.515 -12.375 12.75 C-12.25125 11.8425 -12.1275 10.935 -12 10 C-10.03852126 8.61061923 -8.03833424 7.2739589 -6 6 C-6 5.01 -6 4.02 -6 3 C-6.99 2.34 -7.98 1.68 -9 1 C-5.82121306 -0.58939347 -3.5043228 -0.41576711 0 0 Z " fill="#8DC4C5" transform="translate(133,22)"/>
<path d="M0 0 C1 3 1 3 -0.0625 5.375 C-1.31478417 7.95188655 -1.31478417 7.95188655 -0.06640625 10.23828125 C1.22779119 13.58992078 1.19733136 16.23209788 1.125 19.8125 C1.10695313 20.97394531 1.08890625 22.13539063 1.0703125 23.33203125 C1.04710938 24.21246094 1.02390625 25.09289062 1 26 C2.2065625 26.309375 2.2065625 26.309375 3.4375 26.625 C4.283125 27.07875 5.12875 27.5325 6 28 C6.8125 31.125 6.8125 31.125 7 34 C5.89140625 33.91621094 4.7828125 33.83242187 3.640625 33.74609375 C2.17710672 33.64289695 0.71356369 33.54005074 -0.75 33.4375 C-1.47960938 33.38142578 -2.20921875 33.32535156 -2.9609375 33.26757812 C-7.10167069 32.95997277 -7.10167069 32.95997277 -11.18066406 33.55493164 C-12.08123535 33.77524048 -12.08123535 33.77524048 -13 34 C-14 33 -14 33 -14.25 30.4375 C-14.02928681 27.40269366 -13.64526768 25.88860301 -12.5 23.1875 C-11.13705445 19.97045736 -10.98710283 17.89331113 -11.375 14.4375 C-11.484375 12.17578125 -11.484375 12.17578125 -11 10 C-8.89259063 7.78550682 -6.71572443 6.18461891 -4.1640625 4.5078125 C-1.75079295 3.02223023 -1.75079295 3.02223023 0 0 Z " fill="#B27269" transform="translate(63,178)"/>
<path d="M0 0 C-0.61875 0.0825 -1.2375 0.165 -1.875 0.25 C-4.18437567 0.81258459 -4.18437567 0.81258459 -5.25 3.0625 C-5.4975 3.701875 -5.745 4.34125 -6 5 C-6.33 4.67 -6.66 4.34 -7 4 C-7.33 5.65 -7.66 7.3 -8 9 C-7.01 8.67 -6.02 8.34 -5 8 C-2.27612613 13.87437859 -2.22737647 19.63581237 -3 26 C-4.29290099 29.14624404 -5.16272646 29.90288478 -8 32 C-11.3125 31.875 -11.3125 31.875 -14 31 C-12.68 30.67 -11.36 30.34 -10 30 C-10.33 28.02 -10.66 26.04 -11 24 C-11.99 24 -12.98 24 -14 24 C-14.33 23.01 -14.66 22.02 -15 21 C-15.66 21 -16.32 21 -17 21 C-16.67 19.68 -16.34 18.36 -16 17 C-16.804375 17.020625 -17.60875 17.04125 -18.4375 17.0625 C-21 17 -21 17 -22 16 C-22.26293056 11.96839809 -22.29404844 10.44107266 -20 7 C-19.79375 6.32582031 -19.5875 5.65164062 -19.375 4.95703125 C-17.12872631 1.75992012 -13.62574803 1.4830094 -10 0.6875 C-9.26265625 0.50638672 -8.5253125 0.32527344 -7.765625 0.13867188 C-2.29041149 -1.14520575 -2.29041149 -1.14520575 0 0 Z " fill="#7FCCD2" transform="translate(109,40)"/>
<path d="M0 0 C1.32 0.33 2.64 0.66 4 1 C4 4.3 4 7.6 4 11 C4.45890625 10.4225 4.9178125 9.845 5.390625 9.25 C6.31101563 8.13625 6.31101563 8.13625 7.25 7 C7.85328125 6.2575 8.4565625 5.515 9.078125 4.75 C11 3 11 3 15 3 C15.6875 4.6875 15.6875 4.6875 16 7 C14.44568209 10.18635171 12.62400522 12.62590004 10 15 C12.25 12.9375 12.25 12.9375 15 11 C17.3125 11.25 17.3125 11.25 19 12 C19 13.65 19 15.3 19 17 C17.35 16.67 15.7 16.34 14 16 C13.67 16.99 13.34 17.98 13 19 C12.34 19.33 11.68 19.66 11 20 C12.32 20.33 13.64 20.66 15 21 C14.67 21.99 14.34 22.98 14 24 C12.35 24 10.7 24 9 24 C9 24.66 9 25.32 9 26 C8.34 26 7.68 26 7 26 C7 26.66 7 27.32 7 28 C5.68 28 4.36 28 3 28 C3.33 25.36 3.66 22.72 4 20 C3.34 20 2.68 20 2 20 C1.01 22.475 1.01 22.475 0 25 C-0.66 25 -1.32 25 -2 25 C-4.29013653 21.5647952 -4.17842973 20.014669 -4 16 C-3.34 16 -2.68 16 -2 16 C-2.02320313 15.01257813 -2.04640625 14.02515625 -2.0703125 13.0078125 C-2.08835938 11.72648437 -2.10640625 10.44515625 -2.125 9.125 C-2.14820313 7.84882812 -2.17140625 6.57265625 -2.1953125 5.2578125 C-2 2 -2 2 0 0 Z " fill="#B87F78" transform="translate(160,86)"/>
<path d="M0 0 C2.64 1.65 5.28 3.3 8 5 C7.01 5.33 6.02 5.66 5 6 C4.835 6.66 4.67 7.32 4.5 8 C4.335 8.66 4.17 9.32 4 10 C3.01 10.33 2.02 10.66 1 11 C1.18175781 11.58265625 1.36351563 12.1653125 1.55078125 12.765625 C2.39033943 15.50387629 3.19402183 18.25168706 4 21 C4.28617188 21.90363281 4.57234375 22.80726562 4.8671875 23.73828125 C7.85818239 34.03584936 9.61363982 47.55414161 4.26953125 57.3359375 C1.12931647 61.45203441 -3.2388221 63.31958427 -8 65 C-7.195625 64.21625 -6.39125 63.4325 -5.5625 62.625 C-3.01309583 60.28017144 -3.01309583 60.28017144 -2 58 C-2.66 57.34 -3.32 56.68 -4 56 C-3.505 55.401875 -3.01 54.80375 -2.5 54.1875 C-0.71723582 52.02970006 -0.71723582 52.02970006 -1 49 C-0.690625 47.9275 -0.38125 46.855 -0.0625 45.75 C2.99780448 34.94892535 1.90661972 24.74331397 -3.1953125 14.70703125 C-4 13 -4 13 -4 11 C-4.66 11 -5.32 11 -6 11 C-6.33 8.69 -6.66 6.38 -7 4 C-4.69 2.68 -2.38 1.36 0 0 Z " fill="#6B8982" transform="translate(125,71)"/>
<path d="M0 0 C4.74510444 1.83746597 5.81106461 4.90196138 7.89453125 9.3125 C9.34752389 12.84486373 10.23827928 16.26064373 11 20 C7.04 20.495 7.04 20.495 3 21 C2.67 22.32 2.34 23.64 2 25 C0.68 25.33 -0.64 25.66 -2 26 C-2 27.65 -2 29.3 -2 31 C-3.44122613 30.40477663 -4.87785868 29.79842381 -6.3125 29.1875 C-7.11300781 28.85105469 -7.91351563 28.51460937 -8.73828125 28.16796875 C-11.00344549 26.99822072 -12.41725752 25.98857389 -14 24 C-14.1875 21.3125 -14.1875 21.3125 -14 19 C-9.71422781 18.63460557 -7.65507938 19.51576402 -4.1875 22 C-3.39730469 22.556875 -2.60710938 23.11375 -1.79296875 23.6875 C-1.20128906 24.120625 -0.60960937 24.55375 0 25 C-0.62648438 24.24074219 -1.25296875 23.48148438 -1.8984375 22.69921875 C-2.71570312 21.70535156 -3.53296875 20.71148438 -4.375 19.6875 C-5.18710937 18.70136719 -5.99921875 17.71523438 -6.8359375 16.69921875 C-9 14 -9 14 -11 11 C-10.625 8.8125 -10.625 8.8125 -10 7 C-6.35590712 7.25243272 -5.14994237 7.84719705 -2.54296875 10.50390625 C-1.76566406 11.51324219 -0.98835938 12.52257812 -0.1875 13.5625 C0.60269531 14.57441406 1.39289062 15.58632812 2.20703125 16.62890625 C3.09455078 17.80259766 3.09455078 17.80259766 4 19 C3.54367188 17.96359375 3.08734375 16.9271875 2.6171875 15.859375 C2.0356422 14.48992962 1.45495772 13.12011847 0.875 11.75 C0.57207031 11.06808594 0.26914062 10.38617188 -0.04296875 9.68359375 C-2.18359806 4.55603983 -2.18359806 4.55603983 -1.1796875 1.515625 C-0.79039063 1.01546875 -0.40109375 0.5153125 0 0 Z " fill="#B78B83" transform="translate(55,0)"/>
<path d="M0 0 C-0.5260925 3.78786597 -1.38103911 6.17152224 -4 9 C-4.66 9 -5.32 9 -6 9 C-6.33 9.99 -6.66 10.98 -7 12 C-8.62890625 13.38671875 -8.62890625 13.38671875 -10.5625 14.6875 C-11.20316406 15.12449219 -11.84382812 15.56148437 -12.50390625 16.01171875 C-13.24447266 16.50091797 -13.24447266 16.50091797 -14 17 C-13.06758496 18.91914553 -12.12885525 20.83522386 -11.1875 22.75 C-10.66542969 23.81734375 -10.14335937 24.8846875 -9.60546875 25.984375 C-8.11982421 28.96112457 -8.11982421 28.96112457 -6.30078125 31.265625 C-5 33 -5 33 -5 35 C-5.99 35 -6.98 35 -8 35 C-8 36.65 -8 38.3 -8 40 C-10 38 -12 36 -14 34 C-14.66 34.99 -15.32 35.98 -16 37 C-16.18175781 36.24976563 -16.36351562 35.49953125 -16.55078125 34.7265625 C-18.18139393 28.08704216 -19.96403115 21.52665193 -22 15 C-21.0409375 14.5978125 -21.0409375 14.5978125 -20.0625 14.1875 C-17.66868314 13.11332248 -17.66868314 13.11332248 -17 10 C-14.03 10 -11.06 10 -8 10 C-8.33 8.68 -8.66 7.36 -9 6 C-7.8803014 4.99406757 -6.7540588 3.9954151 -5.625 3 C-4.99851563 2.443125 -4.37203125 1.88625 -3.7265625 1.3125 C-2 0 -2 0 0 0 Z " fill="#46757B" transform="translate(147,67)"/>
<path d="M0 0 C0.99 0 1.98 0 3 0 C5 3 5 3 6 5 C8.61889369 6.06695669 10.06941718 5.98641838 12.875 5.4375 C16.56917002 4.9203162 18.53963095 5.70236161 22 7 C23.99897128 7.33944795 25.99875639 7.67421616 28 8 C29 9 29 9 29 14 C18.77 13.67 8.54 13.34 -2 13 C-1 4 -1 4 0 0 Z " fill="#B4857D" transform="translate(95,199)"/>
<path d="M0 0 C2.475 0.495 2.475 0.495 5 1 C5.33 1.99 5.66 2.98 6 4 C5.01 4.33 4.02 4.66 3 5 C3.32504259 9.82194643 3.32504259 9.82194643 5.5625 13.9375 C6.036875 14.288125 6.51125 14.63875 7 15 C6.01 15.495 6.01 15.495 5 16 C5.99 16.6496875 5.99 16.6496875 7 17.3125 C7.66 17.869375 8.32 18.42625 9 19 C9 19.99 9 20.98 9 22 C5.65140568 21.38571648 3.6421239 20.15725945 0.9375 18.125 C-3.45998526 15.06651607 -7.60932048 13.76798056 -12.8125 12.640625 C-13.534375 12.42921875 -14.25625 12.2178125 -15 12 C-15.33 11.34 -15.66 10.68 -16 10 C-12.04 10.33 -8.08 10.66 -4 11 C-6.42130331 8.57869669 -7.80111377 8.47159496 -11.125 7.875 C-12.49011719 7.62363281 -12.49011719 7.62363281 -13.8828125 7.3671875 C-14.58148438 7.24601562 -15.28015625 7.12484375 -16 7 C-16.33 6.01 -16.66 5.02 -17 4 C-16.360625 3.87625 -15.72125 3.7525 -15.0625 3.625 C-14.0415625 3.315625 -14.0415625 3.315625 -13 3 C-12.67 2.34 -12.34 1.68 -12 1 C-11.34 1.99 -10.68 2.98 -10 4 C-6.93443402 4.73343428 -6.93443402 4.73343428 -4 5 C-2.68 3.35 -1.36 1.7 0 0 Z " fill="#93BCB9" transform="translate(142,40)"/>
<path d="M0 0 C0.99 0.99 1.98 1.98 3 3 C3.33 2.34 3.66 1.68 4 1 C4.66 1 5.32 1 6 1 C6.33 1.99 6.66 2.98 7 4 C7.66 4.33 8.32 4.66 9 5 C9.33 4.01 9.66 3.02 10 2 C12.86453858 5.41016497 14.34703566 8.90694544 16 13 C18.76276177 12.47731534 21.3260876 11.89130413 24 11 C24 13 24 13 22.390625 14.69140625 C21.68421875 15.30886719 20.9778125 15.92632812 20.25 16.5625 C19.55390625 17.18253906 18.8578125 17.80257812 18.140625 18.44140625 C16.02017445 19.98531094 14.56079427 20.57896851 12 21 C10.26421496 19.03505233 8.53572468 17.0648255 6.8203125 15.08203125 C5.4572717 13.52301677 4.0512946 12.00136274 2.625 10.5 C0.34750312 6.99615864 0.28115785 4.14707824 0 0 Z " fill="#330809" transform="translate(122,52)"/>
<path d="M0 0 C0.66 0.99 1.32 1.98 2 3 C1.360625 3.391875 0.72125 3.78375 0.0625 4.1875 C-2.43778819 6.38472296 -2.64950425 7.75791433 -3 11 C-4.32 11.33 -5.64 11.66 -7 12 C-5.98842741 13.60506456 -5.98842741 13.60506456 -4 15 C-1.9687382 15.30468927 0.00962711 15.4377735 2.0625 15.49609375 C4.77177105 16.20072271 5.53703605 17.70040354 7 20 C5.27014758 19.88487847 3.54111249 19.75744323 1.8125 19.625 C0.84957031 19.55539063 -0.11335938 19.48578125 -1.10546875 19.4140625 C-4.74050645 18.8940706 -7.94160169 18.25083436 -10.375 15.375 C-13.00108083 13.15293161 -15.70650817 13.81357593 -19 14 C-19.33 12.68 -19.66 11.36 -20 10 C-16.21812119 8.16308743 -14.05431692 7.84162374 -10 9 C-9.731875 8.071875 -9.46375 7.14375 -9.1875 6.1875 C-7.31003689 1.14799375 -5.59218542 -0.86033622 0 0 Z " fill="#C5E8E6" transform="translate(132,32)"/>
<path d="M0 0 C1.32 0 2.64 0 4 0 C7.29567198 6.15192103 6.86953981 9.4016242 5 16 C2.1459189 16.87022089 1.23575921 17.08224159 -1.6875 16.0625 C-4.80310295 15.06315566 -6.44985063 14.96337499 -9.625 15.125 C-13.05193615 15.22324269 -13.70251483 15.22492781 -16.5625 13.0625 C-18 11 -18 11 -18 10 C-16.02 9.67 -14.04 9.34 -12 9 C-12 10.32 -12 11.64 -12 13 C-10.35 13 -8.7 13 -7 13 C-7 12.01 -7 11.02 -7 10 C-6.34 10 -5.68 10 -5 10 C-5 9.34 -5 8.68 -5 8 C-4.195625 7.87625 -3.39125 7.7525 -2.5625 7.625 C-1.716875 7.41875 -0.87125 7.2125 0 7 C0.33 6.34 0.66 5.68 1 5 C-0.65 5 -2.3 5 -4 5 C-2.25 2.5 -2.25 2.5 0 0 Z " fill="#785959" transform="translate(174,102)"/>
<path d="M0 0 C-0.99 0.33 -1.98 0.66 -3 1 C-3.33 1.99 -3.66 2.98 -4 4 C-4.99 4.66 -5.98 5.32 -7 6 C-6.34 6.66 -5.68 7.32 -5 8 C-5.66 8.66 -6.32 9.32 -7 10 C-5.02 9.67 -3.04 9.34 -1 9 C-2.485 11.475 -2.485 11.475 -4 14 C-3.34 14 -2.68 14 -2 14 C0.68932396 18.87439967 -0.18410539 22.59469823 -1 28 C-2.65 28 -4.3 28 -6 28 C-4.68 27.67 -3.36 27.34 -2 27 C-2.33 25.02 -2.66 23.04 -3 21 C-3.99 21 -4.98 21 -6 21 C-6.33 20.01 -6.66 19.02 -7 18 C-7.66 18 -8.32 18 -9 18 C-8.67 16.68 -8.34 15.36 -8 14 C-8.804375 14.020625 -9.60875 14.04125 -10.4375 14.0625 C-13 14 -13 14 -14 13 C-14.26293056 8.96839809 -14.29404844 7.44107266 -12 4 C-11.7525 3.29875 -11.505 2.5975 -11.25 1.875 C-10 0 -10 0 -7.125 -0.8125 C-4.38199986 -0.97708001 -2.56487088 -0.88783992 0 0 Z " fill="#38798A" transform="translate(101,43)"/>
<path d="M0 0 C0.94875 0.04125 1.8975 0.0825 2.875 0.125 C3.205 0.785 3.535 1.445 3.875 2.125 C4.865 1.795 5.855 1.465 6.875 1.125 C6.545 2.445 6.215 3.765 5.875 5.125 C3.565 5.125 1.255 5.125 -1.125 5.125 C-1.3725 5.90875 -1.62 6.6925 -1.875 7.5 C-4.30313147 14.54158127 -6.84377582 21.05675218 -10.953125 27.296875 C-12.55971684 29.80315827 -13.84900989 32.43870503 -15.125 35.125 C-16.115 34.795 -17.105 34.465 -18.125 34.125 C-16.71885383 30.77703293 -15.33437183 27.51757219 -13.625 24.3125 C-12.35097821 21.60520369 -11.50387957 19.17203493 -10.6875 16.3125 C-6.06835399 0.24273416 -6.06835399 0.24273416 0 0 Z " fill="#86CBCD" transform="translate(94.125,131.875)"/>
<path d="M0 0 C1.2077558 3.62326739 0.54311128 4.64146369 -1 8 C-0.34 8.33 0.32 8.66 1 9 C0.34 9 -0.32 9 -1 9 C-1.39251953 10.03253906 -1.39251953 10.03253906 -1.79296875 11.0859375 C-3.14879528 14.35922743 -4.68183813 17.47937732 -6.3125 20.625 C-6.88613281 21.75164062 -7.45976563 22.87828125 -8.05078125 24.0390625 C-10.11774115 27.17885328 -11.55637041 28.54371149 -15 30 C-15.99 29.67 -16.98 29.34 -18 29 C-19.32206963 31.05688738 -20.63261099 33.1197528 -21.9375 35.1875 C-22.31068359 35.76564453 -22.68386719 36.34378906 -23.06835938 36.93945312 C-25.15834341 40.27213038 -26.53461241 43.07744745 -27 47 C-28.09765625 45.296875 -28.09765625 45.296875 -29 43 C-27.71146561 37.12668045 -24.46068351 31.74688296 -21.1484375 26.7890625 C-19.94723293 24.91779824 -18.96188509 23.00319188 -18 21 C-18 21.66 -18 22.32 -18 23 C-17.01 22.67 -16.02 22.34 -15 22 C-12.8125 22.4375 -12.8125 22.4375 -11 23 C-7.77265917 16.64213857 -4.60126675 10.283931 -1.76171875 3.7421875 C-1.20940221 2.47894044 -0.61657874 1.23315747 0 0 Z " fill="#708A87" transform="translate(90,143)"/>
<path d="M0 0 C1.29887873 4.19141717 0.42963299 6.8615887 -1 11 C-1.99 12.485 -1.99 12.485 -3 14 C-2.855625 14.804375 -2.71125 15.60875 -2.5625 16.4375 C-1.73379112 21.68598955 -2.44670744 26.73946461 -3 32 C-4.90389849 29.14415227 -5.69462177 27.0688238 -6.625 23.8125 C-7.01558594 22.46091797 -7.01558594 22.46091797 -7.4140625 21.08203125 C-7.60742188 20.39496094 -7.80078125 19.70789063 -8 19 C-9.2375 19.103125 -10.475 19.20625 -11.75 19.3125 C-13.9921875 19.328125 -13.9921875 19.328125 -16 19 C-16.61875 18.195625 -17.2375 17.39125 -17.875 16.5625 C-19.72713605 13.79835436 -19.72713605 13.79835436 -22.4609375 13.4453125 C-24.97896143 13.21255399 -27.47213077 13.05306596 -30 13 C-29.01 12.67 -28.02 12.34 -27 12 C-26.67 11.34 -26.34 10.68 -26 10 C-26 10.66 -26 11.32 -26 12 C-24.741875 11.938125 -23.48375 11.87625 -22.1875 11.8125 C-18.22567479 11.79168481 -18.22567479 11.79168481 -16.375 13.5 C-15.92125 13.995 -15.4675 14.49 -15 15 C-11.87450983 15.25048636 -11.87450983 15.25048636 -9 15 C-9 13.68 -9 12.36 -9 11 C-8.22269531 10.93941406 -7.44539063 10.87882812 -6.64453125 10.81640625 C-3.81257756 10.26532213 -3.81257756 10.26532213 -2.63671875 7.71484375 C-2.32347656 6.79832031 -2.01023437 5.88179687 -1.6875 4.9375 C-1.36136719 4.01839844 -1.03523438 3.09929688 -0.69921875 2.15234375 C-0.46847656 1.44207031 -0.23773438 0.73179688 0 0 Z " fill="#8D6F68" transform="translate(75,25)"/>
<path d="M0 0 C-1.20554413 2.49899253 -2.50953711 4.90230531 -3.875 7.3203125 C-7.85639653 14.40403553 -11.22400027 20.75500292 -12 29 C-14.8381946 25.81641663 -15.40993914 23.73928226 -15.375 19.5 C-15.38273437 18.5615625 -15.39046875 17.623125 -15.3984375 16.65625 C-14.94203013 13.61353423 -13.83663229 12.39472498 -12 10 C-12.33 9.01 -12.66 8.02 -13 7 C-12.67 6.34 -12.34 5.68 -12 5 C-13.32 4.67 -14.64 4.34 -16 4 C-15.32453125 3.96261719 -14.6490625 3.92523438 -13.953125 3.88671875 C-13.06109375 3.82097656 -12.1690625 3.75523437 -11.25 3.6875 C-10.36828125 3.62949219 -9.4865625 3.57148438 -8.578125 3.51171875 C-5.17391951 2.83603554 -3.32887203 0 0 0 Z " fill="#4A706F" transform="translate(119,147)"/>
<path d="M0 0 C0.7425 0.2475 1.485 0.495 2.25 0.75 C2.25 4.75 2.25 4.75 -0.1875 7.375 C-1.033125 8.15875 -1.87875 8.9425 -2.75 9.75 C-3.08 10.41 -3.41 11.07 -3.75 11.75 C-4.41 11.75 -5.07 11.75 -5.75 11.75 C-5.9046875 13.0803125 -5.9046875 13.0803125 -6.0625 14.4375 C-6.7809117 17.89893819 -7.5032071 20.02175148 -9.75 22.75 C-12.4375 23.0625 -12.4375 23.0625 -14.75 22.75 C-14.75 24.07 -14.75 25.39 -14.75 26.75 C-16.73 27.08 -18.71 27.41 -20.75 27.75 C-21.08 27.09 -21.41 26.43 -21.75 25.75 C-20.96625 25.688125 -20.1825 25.62625 -19.375 25.5625 C-18.50875 25.294375 -17.6425 25.02625 -16.75 24.75 C-16.05341637 23.09561387 -15.38903117 21.42745682 -14.75 19.75 C-12.25 18.125 -12.25 18.125 -9.75 16.75 C-7.8049 13.83235 -7.29723683 12.12462715 -6.75 8.75 C-7.41 8.75 -8.07 8.75 -8.75 8.75 C-7.21419612 4.14258836 -5.47554607 -0.49777692 0 0 Z " fill="#D08F82" transform="translate(80.75,13.25)"/>
<path d="M0 0 C3.24961394 5.84930509 3.12793379 11.4753767 3 18 C4.2065625 18.309375 4.2065625 18.309375 5.4375 18.625 C6.283125 19.07875 7.12875 19.5325 8 20 C8.33 21.98 8.66 23.96 9 26 C4.71 25.67 0.42 25.34 -4 25 C-3.125 17.25 -3.125 17.25 -2 15 C-1.34 15 -0.68 15 0 15 C0.33 13.02 0.66 11.04 1 9 C0.01 8.67 -0.98 8.34 -2 8 C-1.34 7.67 -0.68 7.34 0 7 C0 4.69 0 2.38 0 0 Z " fill="#A97E71" transform="translate(61,186)"/>
<path d="M0 0 C5.77784871 0.07548258 5.77784871 0.07548258 8.875 2.8125 C10.52276784 7.36347784 10.99720345 11.62299722 11.1875 16.4375 C10.26324219 15.95603516 10.26324219 15.95603516 9.3203125 15.46484375 C7.2481805 14.36014436 7.2481805 14.36014436 5.0625 14 C3.1875 13.4375 3.1875 13.4375 1.1875 10.4375 C1.49699651 7.13620394 2.72495474 5.5788437 5.1875 3.4375 C4.14873766 2.21235711 4.14873766 2.21235711 1.9375 2 C-2.26108555 2.66795679 -3.35583585 5.0683606 -5.8125 8.4375 C-6.8025 7.7775 -7.7925 7.1175 -8.8125 6.4375 C-8.1525 6.4375 -7.4925 6.4375 -6.8125 6.4375 C-6.8434375 5.2309375 -6.8434375 5.2309375 -6.875 4 C-6.76024542 -0.70493782 -4.15298299 0.16571758 0 0 Z " fill="#A0A095" transform="translate(127.8125,30.5625)"/>
<path d="M0 0 C0.66 0.33 1.32 0.66 2 1 C2 1.66 2 2.32 2 3 C4.97 3.495 4.97 3.495 8 4 C7.34086901 8.35026453 5.76137815 11.98405783 4 16 C3.67 17.010625 3.34 18.02125 3 19.0625 C1.92848015 22.21008956 0.54117917 25.05774885 -1 28 C-2.06513937 24.63346113 -1.97679383 21.86101408 -1.66015625 18.359375 C-1.56669922 17.28945312 -1.47324219 16.21953125 -1.37695312 15.1171875 C-1.27318359 14.00601563 -1.16941406 12.89484375 -1.0625 11.75 C-0.96259766 10.62335938 -0.86269531 9.49671875 -0.75976562 8.3359375 C-0.51246068 5.55670092 -0.25898716 2.77816827 0 0 Z " fill="#A4E3E3" transform="translate(80,132)"/>
<path d="M0 0 C1.60379341 -0.05416188 3.20811406 -0.09286638 4.8125 -0.125 C5.70582031 -0.14820313 6.59914063 -0.17140625 7.51953125 -0.1953125 C10 0 10 0 13 2 C13 3.65 13 5.3 13 7 C2.77 6.67 -7.46 6.34 -18 6 C-18 4.35 -18 2.7 -18 1 C-17.67 1.99 -17.34 2.98 -17 4 C-15.54257537 4.08096803 -14.08387193 4.13917774 -12.625 4.1875 C-11.40683594 4.23970703 -11.40683594 4.23970703 -10.1640625 4.29296875 C-9.44992188 4.19628906 -8.73578125 4.09960938 -8 4 C-7.34 3.01 -6.68 2.02 -6 1 C-5.67 2.32 -5.34 3.64 -5 5 C-3.68 4.67 -2.36 4.34 -1 4 C-0.67 2.68 -0.34 1.36 0 0 Z " fill="#845340" transform="translate(111,206)"/>
<path d="M0 0 C-0.5260925 3.78786597 -1.38103911 6.17152224 -4 9 C-4.66 9 -5.32 9 -6 9 C-6.33 9.99 -6.66 10.98 -7 12 C-9.50390625 14.04296875 -9.50390625 14.04296875 -12.5625 16.1875 C-13.57441406 16.90292969 -14.58632812 17.61835937 -15.62890625 18.35546875 C-16.41136719 18.89816406 -17.19382813 19.44085938 -18 20 C-18.33 19.34 -18.66 18.68 -19 18 C-19.99 17.67 -20.98 17.34 -22 17 C-21.505 15.515 -21.505 15.515 -21 14 C-20.01 13.67 -19.02 13.34 -18 13 C-17.67 12.01 -17.34 11.02 -17 10 C-14.03 10 -11.06 10 -8 10 C-8.33 8.68 -8.66 7.36 -9 6 C-7.8803014 4.99406757 -6.7540588 3.9954151 -5.625 3 C-4.99851563 2.443125 -4.37203125 1.88625 -3.7265625 1.3125 C-2 0 -2 0 0 0 Z " fill="#637065" transform="translate(147,67)"/>
<path d="M0 0 C2.23882525 1.80999553 3.38019991 3.54575744 5 6 C5 6.66 5 7.32 5 8 C7.64 8 10.28 8 13 8 C13 8.33 13 8.66 13 9 C10.36 9 7.72 9 5 9 C5 10.98 5 12.96 5 15 C4.54625 14.195625 4.0925 13.39125 3.625 12.5625 C-0.16782534 8.85998002 -3.87266134 9.10763497 -9 9 C-8.505 8.566875 -8.01 8.13375 -7.5 7.6875 C-5.66781808 6.00259517 -5.66781808 6.00259517 -6 3 C-6.99 2.34 -7.98 1.68 -9 1 C-5.82121306 -0.58939347 -3.5043228 -0.41576711 0 0 Z " fill="#97CDCE" transform="translate(133,22)"/>
<path d="M0 0 C5.44646973 -0.5187114 7.55746433 1.03830955 12 4 C14.96587088 4.88635222 17.94948098 5.48480123 21 6 C21 7.65 21 9.3 21 11 C20.4225 10.67 19.845 10.34 19.25 10 C16.80116138 8.72924102 16.80116138 8.72924102 13 9 C13 8.01 13 7.02 13 6 C12.34 6 11.68 6 11 6 C10.67 6.99 10.34 7.98 10 9 C9.649375 8.484375 9.29875 7.96875 8.9375 7.4375 C6.9186688 5.59454694 6.9186688 5.59454694 3.4375 6.4375 C1.7359375 6.7159375 1.7359375 6.7159375 0 7 C-0.66 6.34 -1.32 5.68 -2 5 C-2 4.01 -2 3.02 -2 2 C-1.34 2 -0.68 2 0 2 C0 1.34 0 0.68 0 0 Z " fill="#8D7C70" transform="translate(115,47)"/>
<path d="M0 0 C0.33 0 0.66 0 1 0 C1 7.92 1 15.84 1 24 C-8.66666667 16.75 -8.66666667 16.75 -12 13 C-12 12.34 -12 11.68 -12 11 C-5.5 9.75 -5.5 9.75 -1 12 C-0.67 8.04 -0.34 4.08 0 0 Z " fill="#69B0B7" transform="translate(76,124)"/>
<path d="M0 0 C3.10652645 0.3358407 4.60414303 0.59049279 6.8125 2.875 C8 5 8 5 8 8 C8.763125 7.67 9.52625 7.34 10.3125 7 C13 6 13 6 16 6 C14.95902262 8.7443949 14.02715813 9.9787139 11.6875 11.8125 C9 13 9 13 6.4375 13.0625 C2.84544447 11.4967322 1.7557741 9.44651952 0 6 C-0.25 2.625 -0.25 2.625 0 0 Z " fill="#76B5B8" transform="translate(139,102)"/>
<path d="M0 0 C0.70125 0.433125 1.4025 0.86625 2.125 1.3125 C4.9335752 3.05032087 4.9335752 3.05032087 7.875 4.1875 C12.6662684 6.96643567 16.5822565 11.15933874 19.0703125 16.14453125 C20.25812437 18.51516418 21.82102423 19.54734949 24 21 C23.5020163 24.73487777 23.12508244 26.81237635 21 30 C21.00918457 29.14402222 21.00918457 29.14402222 21.01855469 28.27075195 C20.82853648 23.66185063 20.32619264 20.75854446 17.015625 17.41796875 C15.78049307 16.31817574 14.52450273 15.24141572 13.25 14.1875 C12.62867187 13.64158203 12.00734375 13.09566406 11.3671875 12.53320312 C8.67283307 10.18274836 5.92577069 7.9425547 3.09765625 5.75390625 C0.82261963 3.85168755 0.31108779 2.90348602 0 0 Z " fill="#61807B" transform="translate(72,57)"/>
<path d="M0 0 C0.38937141 3.4069998 0.15388085 4.76368298 -1.75 7.6875 C-4 10 -4 10 -6.1875 11.0625 C-8.22040292 11.8518377 -8.22040292 11.8518377 -8.75 14.125 C-8.8325 14.74375 -8.915 15.3625 -9 16 C-10.98 16 -12.96 16 -15 16 C-15.125 13.625 -15.125 13.625 -15 11 C-14.34 10.34 -13.68 9.68 -13 9 C-11.68 9 -10.36 9 -9 9 C-7.58622659 6.36095629 -6.62759865 3.92879371 -6 1 C-3.92446352 0.4465236 -2.15634036 0 0 0 Z " fill="#E8AA9C" transform="translate(74,22)"/>
<path d="M0 0 C2.27834471 3.41751707 2.43254152 5.26490435 2.75 9.3125 C2.84796875 10.42238281 2.9459375 11.53226563 3.046875 12.67578125 C2.98704041 16.91905128 1.88523167 20.22953667 0 24 C-3 20.25 -3 20.25 -3 18 C-3.66 17.01 -4.32 16.02 -5 15 C-5.125 12.3125 -5.125 12.3125 -5 10 C-4.071875 9.87625 -4.071875 9.87625 -3.125 9.75 C-0.81562433 9.18741541 -0.81562433 9.18741541 0.25 6.9375 C0.4975 6.298125 0.745 5.65875 1 5 C0.01 4.67 -0.98 4.34 -2 4 C-1.34 3.67 -0.68 3.34 0 3 C0 2.01 0 1.02 0 0 Z " fill="#6B7C77" transform="translate(149,35)"/>
<path d="M0 0 C3.08524501 2.99342224 4.28467435 5.21979196 4.53125 9.43359375 C4.54181512 11.10156157 4.53081232 12.76978334 4.5 14.4375 C4.51546875 15.27087891 4.5309375 16.10425781 4.546875 16.96289062 C4.50582662 23.45366625 2.72741912 27.07776523 -1.75 31.875 C-2.1625 32.24625 -2.575 32.6175 -3 33 C-3.66 32.67 -4.32 32.34 -5 32 C-4.2575 31.1028125 -4.2575 31.1028125 -3.5 30.1875 C-1.71723582 28.02970006 -1.71723582 28.02970006 -2 25 C-1.690625 23.9275 -1.38125 22.855 -1.0625 21.75 C1.08255123 14.17923095 0.90860872 7.73016338 0 0 Z " fill="#8BABA2" transform="translate(126,95)"/>
<path d="M0 0 C0.556875 0.7115625 0.556875 0.7115625 1.125 1.4375 C3.62646962 3.52205802 5.81593418 3.64621491 9 4 C9.12375 5.175625 9.12375 5.175625 9.25 6.375 C9.70849401 9.1446618 9.70849401 9.1446618 12 10.125 C12.99 10.558125 12.99 10.558125 14 11 C14.33 11.99 14.66 12.98 15 14 C9.12586797 14.47628098 3.48393811 13.03662438 -2 11 C-2.33 10.34 -2.66 9.68 -3 9 C0.96 9.33 4.92 9.66 9 10 C6.57869669 7.57869669 5.19888623 7.47159496 1.875 6.875 C0.50988281 6.62363281 0.50988281 6.62363281 -0.8828125 6.3671875 C-1.58148438 6.24601562 -2.28015625 6.12484375 -3 6 C-3.33 5.01 -3.66 4.02 -4 3 C-2.68 2.67 -1.36 2.34 0 2 C0 1.34 0 0.68 0 0 Z " fill="#A4CDCB" transform="translate(129,41)"/>
<path d="M0 0 C5.19822672 1.36144033 8.09543873 3.46730171 12 7 C8.71195019 9.91227269 6.40114397 11.49701212 2 12 C0.4375 10.5 0.4375 10.5 -1 8 C-0.96823234 5.22562457 -0.50364148 2.74713533 0 0 Z " fill="#7D5244" transform="translate(136,54)"/>
<path d="M0 0 C1.98 0.66 3.96 1.32 6 2 C5.54625 2.66 5.0925 3.32 4.625 4 C0.41371981 11.77467111 0.46194686 20.34457467 0 29 C-1.32 28.34 -2.64 27.68 -4 27 C-4.26570232 20.94696895 -3.25909363 15.47088194 -2 9.5625 C-1.80921875 8.64017578 -1.6184375 7.71785156 -1.421875 6.76757812 C-0.95405792 4.51036071 -0.47997253 2.2546582 0 0 Z " fill="#636E6D" transform="translate(100,174)"/>
<path d="M0 0 C0.928125 0.165 1.85625 0.33 2.8125 0.5 C5.95621353 1.07748388 5.95621353 1.07748388 9 1 C8.01 2.32 7.02 3.64 6 5 C6.66 5 7.32 5 8 5 C10.68932396 9.87439967 9.81589461 13.59469823 9 19 C7.35 19 5.7 19 4 19 C5.32 18.67 6.64 18.34 8 18 C7.67 16.02 7.34 14.04 7 12 C6.01 12 5.02 12 4 12 C3.67 11.01 3.34 10.02 3 9 C2.34 9 1.68 9 1 9 C1.875 5.125 1.875 5.125 3 4 C1.68 3.34 0.36 2.68 -1 2 C-0.67 1.34 -0.34 0.68 0 0 Z " fill="#408D9D" transform="translate(91,52)"/>
<path d="M0 0 C0.66 0.33 1.32 0.66 2 1 C0.40423801 2.50893816 -1.20189911 4.00691076 -2.8125 5.5 C-3.70582031 6.3353125 -4.59914063 7.170625 -5.51953125 8.03125 C-8 10 -8 10 -11 10 C-11 9.01 -11 8.02 -11 7 C-11.99 7 -12.98 7 -14 7 C-14 6.01 -14 5.02 -14 4 C-15.65 4.66 -17.3 5.32 -19 6 C-18.67 4.35 -18.34 2.7 -18 1 C-15.03 1.495 -15.03 1.495 -12 2 C-12 2.66 -12 3.32 -12 4 C-9.03824877 3.38722388 -7.61941217 2.74627478 -5 1 C-4.01 1 -3.02 1 -2 1 C-1.34 0.67 -0.68 0.34 0 0 Z " fill="#668D88" transform="translate(111,135)"/>
<path d="M0 0 C0.99 0.99 1.98 1.98 3 3 C0.125 7.875 0.125 7.875 -1 9 C-0.56054925 13.39450749 0.05572225 17.68330172 1 22 C-1 21 -1 21 -1.8515625 18.71484375 C-2.23441406 17.34005859 -2.23441406 17.34005859 -2.625 15.9375 C-2.88539062 15.01839844 -3.14578125 14.09929687 -3.4140625 13.15234375 C-3.60742188 12.44207031 -3.80078125 11.73179688 -4 11 C-4.66 11 -5.32 11 -6 11 C-6.33 8.69 -6.66 6.38 -7 4 C-4.69 2.68 -2.38 1.36 0 0 Z " fill="#84A8A0" transform="translate(125,71)"/>
<path d="M0 0 C0.66 0.99 1.32 1.98 2 3 C1.360625 3.391875 0.72125 3.78375 0.0625 4.1875 C-2.24843586 5.83490816 -2.24843586 5.83490816 -2.4375 8.5625 C-2.623125 9.366875 -2.80875 10.17125 -3 11 C-5.5625 12.3125 -5.5625 12.3125 -8 13 C-9 12 -9 12 -9.3125 8.1875 C-9.26788765 5.08136489 -9.1120435 4.16599037 -7.3125 1.5 C-4.57014959 -0.27882189 -3.2059193 -0.59056408 0 0 Z " fill="#F3F3EA" transform="translate(132,32)"/>
<path d="M0 0 C2.98355176 -0.24862931 4.64865849 -0.18991433 7.3125 1.25 C9 3 9 3 9 7 C9.99 7 10.98 7 12 7 C12 8.65 12 10.3 12 12 C10.55877387 11.40477663 9.12214132 10.79842381 7.6875 10.1875 C6.88699219 9.85105469 6.08648437 9.51460937 5.26171875 9.16796875 C2.99655451 7.99822072 1.58274248 6.98857389 0 5 C-0.1875 2.3125 -0.1875 2.3125 0 0 Z " fill="#BC8D87" transform="translate(41,19)"/>
<path d="M0 0 C0.33 0.99 0.66 1.98 1 3 C0.566875 3.8353125 0.566875 3.8353125 0.125 4.6875 C-1.5147312 8.05805857 -1.62781866 11.27818659 -2 15 C-3.11375 14.79375 -4.2275 14.5875 -5.375 14.375 C-6.57125 14.25125 -7.7675 14.1275 -9 14 C-9.66 14.66 -10.32 15.32 -11 16 C-11.5625 13.4375 -11.5625 13.4375 -11 10 C-8.85759485 7.94848476 -6.6036147 6.29773396 -4.1640625 4.61328125 C-1.76776218 3.01515367 -1.76776218 3.01515367 0 0 Z " fill="#D79E9A" transform="translate(63,178)"/>
<path d="M0 0 C1.32 0 2.64 0 4 0 C5.40693638 2.62628125 6.49157276 5.05112203 7 8 C5.03177114 9.96822886 1.65191291 9.66248381 -1 10 C-0.67 10.99 -0.34 11.98 0 13 C-2.31 12.67 -4.62 12.34 -7 12 C-7 11.34 -7 10.68 -7 10 C-6.34 10 -5.68 10 -5 10 C-5 9.34 -5 8.68 -5 8 C-4.195625 7.87625 -3.39125 7.7525 -2.5625 7.625 C-1.716875 7.41875 -0.87125 7.2125 0 7 C0.33 6.34 0.66 5.68 1 5 C-0.65 5 -2.3 5 -4 5 C-2.25 2.5 -2.25 2.5 0 0 Z " fill="#976760" transform="translate(174,102)"/>
<path d="M0 0 C-0.1875 2.3125 -0.1875 2.3125 -1 5 C-2.64142963 6.0409066 -4.30712215 7.04504326 -6 8 C-6 8.99 -6 9.98 -6 11 C-7.32 11.33 -8.64 11.66 -10 12 C-11.11903591 6.83521889 -11.11903591 6.83521889 -11 4 C-7.72225366 0.02697413 -5.01063882 -0.46610594 0 0 Z " fill="#B2E0DF" transform="translate(128,24)"/>
<path d="M0 0 C1.96446905 1.6344795 2.92317791 2.46429394 3.29296875 5.04296875 C3.1953125 7.02864583 3.09765625 9.01432292 3 11 C2.01 11 1.02 11 0 11 C0.33 11.99 0.66 12.98 1 14 C0.5625 16.1875 0.5625 16.1875 0 18 C-1.32 17.67 -2.64 17.34 -4 17 C-4.67012098 10.80138093 -2.24947173 5.64376389 0 0 Z " fill="#D4A39C" transform="translate(53,194)"/>
<path d="M0 0 C-0.61875 0.0825 -1.2375 0.165 -1.875 0.25 C-4.18437567 0.81258459 -4.18437567 0.81258459 -5.25 3.0625 C-5.4975 3.701875 -5.745 4.34125 -6 5 C-6.33 4.67 -6.66 4.34 -7 4 C-8.01540112 8.10223585 -8.01540112 8.10223585 -7 12 C-11.43076923 14.09230769 -11.43076923 14.09230769 -14.3125 13.625 C-14.869375 13.41875 -15.42625 13.2125 -16 13 C-15.67 12.34 -15.34 11.68 -15 11 C-15.66 10.34 -16.32 9.68 -17 9 C-16.195625 8.7525 -15.39125 8.505 -14.5625 8.25 C-11.828919 7.27761141 -11.828919 7.27761141 -11.1875 4.875 C-11.125625 4.25625 -11.06375 3.6375 -11 3 C-10.01 3 -9.02 3 -8 3 C-8 2.34 -8 1.68 -8 1 C-2.25 -1.125 -2.25 -1.125 0 0 Z " fill="#68B9C3" transform="translate(109,40)"/>
<path d="M0 0 C3.83325416 1.45399296 5.28279605 3.3080115 7 7 C7.1875 9.8125 7.1875 9.8125 7 12 C5.35 12.33 3.7 12.66 2 13 C1.27249212 11.59308393 0.56859647 10.17393978 -0.125 8.75 C-0.51945312 7.96109375 -0.91390625 7.1721875 -1.3203125 6.359375 C-2 4 -2 4 -1.1171875 1.703125 C-0.74851563 1.14109375 -0.37984375 0.5790625 0 0 Z " fill="#B48682" transform="translate(55,0)"/>
<path d="M0 0 C0.6875 1.6875 0.6875 1.6875 1 4 C-0.64076492 7.44560634 -1.78512442 8.85674962 -5 11 C-5 11.99 -5 12.98 -5 14 C-5.99 14 -6.98 14 -8 14 C-7.73958333 12.01432292 -7.47916667 10.02864583 -7.21875 8.04296875 C-6.946767 5.84528294 -6.946767 5.84528294 -7 3 C-4.68139929 -0.13011095 -4.16626119 0 0 0 Z " fill="#B4837A" transform="translate(175,89)"/>
<path d="M0 0 C2.125 0.375 2.125 0.375 4 1 C4.0270043 2.45823212 4.04639787 3.91660675 4.0625 5.375 C4.07410156 6.18710938 4.08570313 6.99921875 4.09765625 7.8359375 C4 10 4 10 3 12 C2.01 12 1.02 12 0 12 C-0.66 12.66 -1.32 13.32 -2 14 C-2.05389087 12.04196493 -2.09274217 10.08351091 -2.125 8.125 C-2.14820313 7.03445312 -2.17140625 5.94390625 -2.1953125 4.8203125 C-2 2 -2 2 0 0 Z " fill="#A47672" transform="translate(160,86)"/>
<path d="M0 0 C0.99 0.33 1.98 0.66 3 1 C4.6875 4.5625 4.6875 4.5625 6 8 C8.76276177 7.47731534 11.3260876 6.89130413 14 6 C14 8 14 8 12.3203125 9.7265625 C11.59585938 10.35304688 10.87140625 10.97953125 10.125 11.625 C9.40570313 12.25664063 8.68640625 12.88828125 7.9453125 13.5390625 C6 15 6 15 4 15 C3.32532438 13.25307205 2.66055844 11.50231475 2 9.75 C1.62875 8.77546875 1.2575 7.8009375 0.875 6.796875 C0 4 0 4 0 0 Z " fill="#4D403D" transform="translate(132,57)"/>
<path d="M0 0 C3.54470259 0.29539188 4.78215295 0.77626519 7.3125 3.375 C9 6 9 6 9 9 C7.02 9.33 5.04 9.66 3 10 C-1.06153846 4.58461538 -1.06153846 4.58461538 -0.75 1.625 C-0.5025 1.08875 -0.255 0.5525 0 0 Z " fill="#BF8D86" transform="translate(45,7)"/>
<path d="M0 0 C1.98 0 3.96 0 6 0 C6.33 0.66 6.66 1.32 7 2 C7.99 1.67 8.98 1.34 10 1 C9.67 2.32 9.34 3.64 9 5 C6.69 5 4.38 5 2 5 C1.731875 5.9075 1.46375 6.815 1.1875 7.75 C0.10423706 10.71471963 -0.98359457 12.6169754 -3 15 C-2.44854729 9.76119922 -1.57077907 5.02649303 0 0 Z " fill="#75B5B7" transform="translate(91,132)"/>
<path d="M0 0 C0 4.69809996 -1.27994732 7.20609576 -4.4375 10.6875 C-7 13 -7 13 -10 15 C-9.67 13.35 -9.34 11.7 -9 10 C-9.66 9.67 -10.32 9.34 -11 9 C-10.2575 8.4225 -9.515 7.845 -8.75 7.25 C-6.01969344 5.09224824 -6.01969344 5.09224824 -3.8125 2.8125 C-2 1 -2 1 0 0 Z " fill="#CAE8E0" transform="translate(102,83)"/>
<path d="M0 0 C1.4606285 2.64738916 2 3.89448334 2 7 C1.34 7.66 0.68 8.32 0 9 C-0.71927295 11.31765729 -1.3909893 13.65095874 -2 16 C-2.33 16 -2.66 16 -3 16 C-3.33 13.36 -3.66 10.72 -4 8 C-5.98 8 -7.96 8 -10 8 C-10.66 6.68 -11.32 5.36 -12 4 C-10.7625 4.268125 -9.525 4.53625 -8.25 4.8125 C-6.07828093 5.17476807 -6.07828093 5.17476807 -4 5 C-1.43965247 2.71924815 -1.43965247 2.71924815 0 0 Z " fill="#AAE0DD" transform="translate(105,66)"/>
<path d="M0 0 C-0.5260925 3.78786597 -1.38103911 6.17152224 -4 9 C-4.66 9 -5.32 9 -6 9 C-6 9.66 -6 10.32 -6 11 C-9.63 11.33 -13.26 11.66 -17 12 C-17 11.34 -17 10.68 -17 10 C-14.03 10 -11.06 10 -8 10 C-8.33 8.68 -8.66 7.36 -9 6 C-7.8803014 4.99406757 -6.7540588 3.9954151 -5.625 3 C-4.99851563 2.443125 -4.37203125 1.88625 -3.7265625 1.3125 C-2 0 -2 0 0 0 Z " fill="#5A7B7A" transform="translate(147,67)"/>
<path d="M0 0 C0.66 0 1.32 0 2 0 C4.81573751 5.96273825 3.75822476 11.6677986 3 18 C1.13389074 15.20083611 0.31214617 13.18061731 -0.625 10 C-1.01558594 8.700625 -1.01558594 8.700625 -1.4140625 7.375 C-2 5 -2 5 -2 2 C-1.34 1.34 -0.68 0.68 0 0 Z " fill="#4F7F82" transform="translate(69,39)"/>
<path d="M0 0 C1.2077558 3.62326739 0.54311128 4.64146369 -1 8 C-0.34 8.33 0.32 8.66 1 9 C0.34 9 -0.32 9 -1 9 C-1.39832031 10.04220703 -1.39832031 10.04220703 -1.8046875 11.10546875 C-3.10603076 14.25676076 -4.58703383 17.27000171 -6.125 20.3125 C-6.66382812 21.38113281 -7.20265625 22.44976562 -7.7578125 23.55078125 C-8.37269531 24.76314453 -8.37269531 24.76314453 -9 26 C-9.66 25.01 -10.32 24.02 -11 23 C-10.41992188 21.85724609 -10.41992188 21.85724609 -9.828125 20.69140625 C-7.00535176 15.0947692 -4.25777602 9.49259793 -1.76171875 3.7421875 C-1.20940221 2.47894044 -0.61657874 1.23315747 0 0 Z " fill="#5E9194" transform="translate(90,143)"/>
<path d="M0 0 C1.98 0 3.96 0 6 0 C6.33 1.65 6.66 3.3 7 5 C5.35 5 3.7 5 2 5 C2 5.99 2 6.98 2 8 C0.35 7.67 -1.3 7.34 -3 7 C-3 5.68 -3 4.36 -3 3 C-2.34 3 -1.68 3 -1 3 C-0.67 2.01 -0.34 1.02 0 0 Z " fill="#E8AA9F" transform="translate(159,99)"/>
<path d="M0 0 C0.66 0 1.32 0 2 0 C2.33 0.99 2.66 1.98 3 3 C3.66 3.33 4.32 3.66 5 4 C5.33 3.01 5.66 2.02 6 1 C6.12117187 1.6290625 6.24234375 2.258125 6.3671875 2.90625 C7.42678016 8.31832326 8.61599898 13.66171034 10 19 C9.01 19 8.02 19 7 19 C6.34 18.01 5.68 17.02 5 16 C5.66 16 6.32 16 7 16 C6.40138258 13.64828869 5.73075648 11.3140622 5 9 C4.34 8.67 3.68 8.34 3 8 C3 7.34 3 6.68 3 6 C1.68 5.67 0.36 5.34 -1 5 C-0.67 3.35 -0.34 1.7 0 0 Z " fill="#461415" transform="translate(126,53)"/>
<path d="M0 0 C0.66 0 1.32 0 2 0 C2.35268934 1.6626783 2.68033861 3.33065717 3 5 C3.226875 6.155 3.45375 7.31 3.6875 8.5 C4.01335518 12.14957806 3.98623005 13.93037173 2 17 C-0.625 17.8125 -0.625 17.8125 -3 18 C-2.01 17.67 -1.02 17.34 0 17 C0.20970559 12.85906302 0.20970559 12.85906302 -1 9 C-1 8.01 -1 7.02 -1 6 C-1.20625 5.319375 -1.4125 4.63875 -1.625 3.9375 C-1.74875 3.298125 -1.8725 2.65875 -2 2 C-1.34 1.34 -0.68 0.68 0 0 Z " fill="#69B8C1" transform="translate(100,54)"/>
<path d="M0 0 C0.99 0 1.98 0 3 0 C3.34740318 2.91818671 3.50109494 5.13765057 1.9921875 7.734375 C0.6875 9.375 0.6875 9.375 -2 12 C-2.99 12 -3.98 12 -5 12 C-4.42365861 7.24518354 -2.44931479 4.02951788 0 0 Z " fill="#A2D4D3" transform="translate(90,93)"/>
<path d="M0 0 C1.23556641 0.01740234 1.23556641 0.01740234 2.49609375 0.03515625 C3.32238281 0.04417969 4.14867187 0.05320312 5 0.0625 C5.63808594 0.07410156 6.27617188 0.08570312 6.93359375 0.09765625 C5.94359375 0.75765625 4.95359375 1.41765625 3.93359375 2.09765625 C6.57359375 2.42765625 9.21359375 2.75765625 11.93359375 3.09765625 C11.60359375 4.08765625 11.27359375 5.07765625 10.93359375 6.09765625 C6.64359375 5.76765625 2.35359375 5.43765625 -2.06640625 5.09765625 C-2.39640625 3.77765625 -2.72640625 2.45765625 -3.06640625 1.09765625 C-2.06640625 0.09765625 -2.06640625 0.09765625 0 0 Z " fill="#BA817C" transform="translate(46.06640625,31.90234375)"/>
<path d="M0 0 C1.98 0.66 3.96 1.32 6 2 C6 3.98 6 5.96 6 8 C5.360625 8.226875 4.72125 8.45375 4.0625 8.6875 C3.381875 9.120625 2.70125 9.55375 2 10 C1.855625 10.804375 1.71125 11.60875 1.5625 12.4375 C1 15 1 15 -1.5625 16.8125 C-2.366875 17.204375 -3.17125 17.59625 -4 18 C-3.690625 17.236875 -3.38125 16.47375 -3.0625 15.6875 C-2.32106407 13.81210323 -1.63771783 11.91315348 -1 10 C1.0625 8.8125 1.0625 8.8125 3 8 C2.45276317 4.62537285 1.9451 2.91765 0 0 Z " fill="#90B8B3" transform="translate(95,74)"/>
<path d="M0 0 C0 2 0 2 -1.8125 4.0625 C-4 6 -4 6 -7 7 C-7.33 7.66 -7.66 8.32 -8 9 C-9.9375 8.625 -9.9375 8.625 -12 8 C-12.33 7.34 -12.66 6.68 -13 6 C-12.360625 5.731875 -11.72125 5.46375 -11.0625 5.1875 C-8.66868314 4.11332248 -8.66868314 4.11332248 -8 1 C-2.59770115 -1.29885057 -2.59770115 -1.29885057 0 0 Z " fill="#E9AD9E" transform="translate(66,20)"/>
<path d="M0 0 C2.64 0 5.28 0 8 0 C7.67 1.32 7.34 2.64 7 4 C7.99 4.33 8.98 4.66 10 5 C5.05 6.485 5.05 6.485 0 8 C0 5.36 0 2.72 0 0 Z " fill="#B7EAE8" transform="translate(138,31)"/>
<path d="M0 0 C1.1446875 0.3403125 1.1446875 0.3403125 2.3125 0.6875 C2.6425 1.6775 2.9725 2.6675 3.3125 3.6875 C2.3225 4.0175 1.3325 4.3475 0.3125 4.6875 C-0.89632096 6.68766466 -0.89632096 6.68766466 -1.6875 8.6875 C-2.6775 8.3575 -3.6675 8.0275 -4.6875 7.6875 C-5.375 5.375 -5.375 5.375 -5.6875 2.6875 C-4.0011022 -0.12316299 -3.27764429 -0.38112143 0 0 Z " fill="#EFF0E9" transform="translate(144.6875,40.3125)"/>
<path d="M0 0 C10.67647059 10.35294118 10.67647059 10.35294118 13 15 C9.21384982 14.78364856 8.08006093 14.08196714 5.375 11.3125 C2.8508536 8.00801812 0 4.27531449 0 0 Z " fill="#CB847F" transform="translate(123,60)"/>
<path d="M0 0 C1.16535524 3.49606571 1.08453328 4.51400016 0 8 C-1.22900354 10.06088009 -2.53772335 12.05740038 -3.85546875 14.0625 C-5.19798172 16.33514994 -5.7540352 18.37637551 -6 21 C-7.1015625 19.30078125 -7.1015625 19.30078125 -8 17 C-7.4609375 14.66796875 -7.4609375 14.66796875 -6.375 12.1875 C-5.99601562 11.31738281 -5.61703125 10.44726562 -5.2265625 9.55078125 C-3.64031457 6.25199177 -1.90306194 3.12645891 0 0 Z " fill="#9D9793" transform="translate(69,169)"/>
<path d="M0 0 C0.66 0 1.32 0 2 0 C3.79275866 3.11910856 4.34290718 5.67682428 4.625 9.25 C4.69976562 10.14203125 4.77453125 11.0340625 4.8515625 11.953125 C4.90054688 12.62859375 4.94953125 13.3040625 5 14 C2.5 12.625 2.5 12.625 0 10 C-0.44908891 6.62919149 -0.29036649 3.38115651 0 0 Z " fill="#42676A" transform="translate(132,90)"/>
<path d="M0 0 C1.94014063 0.22860572 3.87717414 0.48369181 5.8125 0.75 C7.43091797 0.95882812 7.43091797 0.95882812 9.08203125 1.171875 C12.42407102 2.12035215 13.29042423 3.04873235 15 6 C13.24908981 5.91245449 11.49920449 5.80426627 9.75 5.6875 C8.77546875 5.62949219 7.8009375 5.57148437 6.796875 5.51171875 C3.72170503 4.9490829 2.23652952 4.15665346 0 2 C0 1.34 0 0.68 0 0 Z " fill="#D3EEF0" transform="translate(124,46)"/>
<path d="M0 0 C4.75 0.75 4.75 0.75 7 3 C7 4.32 7 5.64 7 7 C4.69 7 2.38 7 0 7 C0 4.69 0 2.38 0 0 Z " fill="#E3A298" transform="translate(96,204)"/>
<path d="M0 0 C0.66 0 1.32 0 2 0 C1.9175 1.216875 1.835 2.43375 1.75 3.6875 C1.74407152 7.03116277 1.97181212 7.9543162 3.8125 10.9375 C5.90810337 13.20310389 5.90810337 13.20310389 9 14 C9.6875 16.0625 9.6875 16.0625 10 18 C5.92683077 16.60348484 2.78322723 15.33987268 0 12 C-0.43007011 7.96809272 -0.28578123 4.03904135 0 0 Z " fill="#71A099" transform="translate(72,45)"/>
<path d="M0 0 C5.53846154 -0.36923077 5.53846154 -0.36923077 7.875 1.5 C8.24625 1.995 8.6175 2.49 9 3 C6.69 3 4.38 3 2 3 C2 3.99 2 4.98 2 6 C2.99 6.33 3.98 6.66 5 7 C2.625 7.125 2.625 7.125 0 7 C-0.66 6.34 -1.32 5.68 -2 5 C-2 4.01 -2 3.02 -2 2 C-1.34 2 -0.68 2 0 2 C0 1.34 0 0.68 0 0 Z " fill="#6B8E8A" transform="translate(115,47)"/>
<path d="M0 0 C1.32 0 2.64 0 4 0 C3.34086901 4.35026453 1.76137815 7.98405783 0 12 C-0.68836513 13.99263591 -1.36281399 15.99041337 -2 18 C-3.29132785 14.12601645 -2.41113572 11.18011214 -1.5625 7.3125 C-1.41490234 6.61060547 -1.26730469 5.90871094 -1.11523438 5.18554688 C-0.7504068 3.45555806 -0.37611311 1.72757037 0 0 Z " fill="#99DBDD" transform="translate(84,136)"/>
<path d="M0 0 C0.66 0.99 1.32 1.98 2 3 C0.75823305 3.70226141 -0.49385599 4.38629109 -1.75 5.0625 C-2.44609375 5.44535156 -3.1421875 5.82820313 -3.859375 6.22265625 C-6.4207452 7.15278886 -7.51559919 7.08040119 -10 6 C-10.66 5.01 -11.32 4.02 -12 3 C-10.9790625 3.0928125 -10.9790625 3.0928125 -9.9375 3.1875 C-6.08063875 2.94131737 -3.48920406 1.64197838 0 0 Z " fill="#587975" transform="translate(155,111)"/>
<path d="M0 0 C3.4557601 1.15192003 4.19828537 1.91134634 6 5 C6.1875 7.75 6.1875 7.75 6 10 C4.125 9.6875 4.125 9.6875 2 9 C-0.29013653 5.5647952 -0.17842973 4.014669 0 0 Z " fill="#8CCBCC" transform="translate(73,47)"/>
<path d="M0 0 C0.66 1.32 1.32 2.64 2 4 C4.64 4 7.28 4 10 4 C10 4.33 10 4.66 10 5 C7.36 5 4.72 5 2 5 C2 6.98 2 8.96 2 11 C-0.12038635 8.38485683 -2.13091744 5.80362384 -4 3 C-2.68 2.67 -1.36 2.34 0 2 C0 1.34 0 0.68 0 0 Z " fill="#73ACAD" transform="translate(136,26)"/>
<path d="M0 0 C3.53708131 1.76854066 4.7267883 5.39108292 6 9 C6.44400464 12.35828963 6.38497594 15.62041004 6.25 19 C6.23195312 19.87011719 6.21390625 20.74023438 6.1953125 21.63671875 C6.14868436 23.75829907 6.07696077 25.87930335 6 28 C5.67 28 5.34 28 5 28 C4.96261719 26.83082031 4.92523438 25.66164063 4.88671875 24.45703125 C4.8210372 22.90882325 4.75459061 21.36064758 4.6875 19.8125 C4.66494141 19.04357422 4.64238281 18.27464844 4.61914062 17.48242188 C4.39749 12.78745855 3.74712062 9.94898589 1 6 C0.3125 2.6875 0.3125 2.6875 0 0 Z " fill="#70928C" transform="translate(125,89)"/>
<path d="M0 0 C2.625 0.375 2.625 0.375 5 1 C5 2.65 5 4.3 5 6 C3.02 6 1.04 6 -1 6 C-1.625 4.125 -1.625 4.125 -2 2 C-1.34 1.34 -0.68 0.68 0 0 Z " fill="#173249" transform="translate(131,36)"/>
<path d="M0 0 C3.68903792 3.68903792 3.18165928 8.69293225 3.25 13.6875 C3.27578125 14.82574219 3.3015625 15.96398437 3.328125 17.13671875 C3.21984375 18.08160156 3.1115625 19.02648437 3 20 C2.01 20.66 1.02 21.32 0 22 C0.08378906 21.0821875 0.16757813 20.164375 0.25390625 19.21875 C0.8019414 12.61457959 1.17599657 6.53331426 0 0 Z " fill="#9DBCB1" transform="translate(126,95)"/>
<path d="M0 0 C7.68490153 5.0940919 7.68490153 5.0940919 9 8.875 C9 9.57625 9 10.2775 9 11 C7.02 11.99 7.02 11.99 5 13 C5.103125 12.0925 5.20625 11.185 5.3125 10.25 C5.35653433 6.80722348 5.35653433 6.80722348 2.5 4.8125 C1.675 4.214375 0.85 3.61625 0 3 C0 2.01 0 1.02 0 0 Z " fill="#81A092" transform="translate(90,71)"/>
<path d="M0 0 C0.4125 0.495 0.825 0.99 1.25 1.5 C3.12202338 3.43386092 3.12202338 3.43386092 7 3 C7 3.99 7 4.98 7 6 C3.7 6 0.4 6 -3 6 C-3.33 5.01 -3.66 4.02 -4 3 C-2.68 2.67 -1.36 2.34 0 2 C0 1.34 0 0.68 0 0 Z " fill="#C8B8A5" transform="translate(129,41)"/>
<path d="M0 0 C0 0.66 0 1.32 0 2 C-0.78375 2.226875 -1.5675 2.45375 -2.375 2.6875 C-5.21875 3.78125 -5.21875 3.78125 -6.3125 6.625 C-6.6528125 7.800625 -6.6528125 7.800625 -7 9 C-7.99 9 -8.98 9 -10 9 C-8.11841723 3.35525168 -6.26153661 0 0 0 Z " fill="#C9A09B" transform="translate(82,13)"/>
<path d="M0 0 C0.33 0 0.66 0 1 0 C-0.26923077 12.26923077 -0.26923077 12.26923077 -4 16 C-4.5326514 9.741346 -2.81849506 5.54891215 0 0 Z " fill="#88CBCE" transform="translate(89,134)"/>
<path d="M0 0 C2.4375 0.6875 2.4375 0.6875 5 2 C5.8125 4.625 5.8125 4.625 6 7 C4.35 7.66 2.7 8.32 1 9 C0 8 0 8 -0.09765625 6.15234375 C-0.06510417 4.1015625 -0.03255208 2.05078125 0 0 Z " fill="#EDDECA" transform="translate(123,36)"/>
<path d="M0 0 C0.66 0.33 1.32 0.66 2 1 C0.56739143 3.58793807 -0.88841619 5.91454966 -3 8 C-6.8125 8.4375 -6.8125 8.4375 -10 8 C-8.68 7.67 -7.36 7.34 -6 7 C-6 5.02 -6 3.04 -6 1 C-3.525 1.99 -3.525 1.99 -1 3 C-0.67 2.01 -0.34 1.02 0 0 Z " fill="#DB9D91" transform="translate(59,26)"/>
<path d="M0 0 C2.24606427 1.77444972 2.95081002 2.58352485 3.29296875 5.48046875 C3.25816406 6.37378906 3.22335938 7.26710937 3.1875 8.1875 C3.16042969 9.08855469 3.13335937 9.98960937 3.10546875 10.91796875 C3.07066406 11.60503906 3.03585938 12.29210937 3 13 C1.68 12.34 0.36 11.68 -1 11 C-1.14285714 3.57142857 -1.14285714 3.57142857 0 0 Z " fill="#8B817F" transform="translate(97,190)"/>
<path d="M0 0 C2.13586678 3.20380017 2.23132175 4.01939967 2.125 7.6875 C2.10695312 8.49574219 2.08890625 9.30398437 2.0703125 10.13671875 C2.03550781 11.05904297 2.03550781 11.05904297 2 12 C1.01 11.67 0.02 11.34 -1 11 C-1.33 11.66 -1.66 12.32 -2 13 C-2.99 12.01 -3.98 11.02 -5 10 C-4.071875 9.87625 -4.071875 9.87625 -3.125 9.75 C-0.81562433 9.18741541 -0.81562433 9.18741541 0.25 6.9375 C0.4975 6.298125 0.745 5.65875 1 5 C0.01 4.67 -0.98 4.34 -2 4 C-1.34 3.67 -0.68 3.34 0 3 C0 2.01 0 1.02 0 0 Z " fill="#648B91" transform="translate(149,35)"/>
<path d="M0 0 C-0.66 1.98 -1.32 3.96 -2 6 C-2.99 6 -3.98 6 -5 6 C-5.66 4.02 -6.32 2.04 -7 0 C-4.3333581 -1.33332095 -2.83319697 -0.67102033 0 0 Z " fill="#D6A497" transform="translate(112,205)"/>
<path d="M0 0 C2 0 2 0 3.625 1.1875 C5.42149467 3.55560662 5.23521845 5.09897251 5 8 C3.35 8 1.7 8 0 8 C0 5.36 0 2.72 0 0 Z " fill="#925754" transform="translate(57,192)"/>
<path d="M0 0 C1.125 1.625 1.125 1.625 2 4 C1.125 7.25 1.125 7.25 0 10 C1.65 10 3.3 10 5 10 C5 10.33 5 10.66 5 11 C3.02 11 1.04 11 -1 11 C-1 9.68 -1 8.36 -1 7 C-3.64 7 -6.28 7 -9 7 C-9 6.67 -9 6.34 -9 6 C-8.071875 5.938125 -7.14375 5.87625 -6.1875 5.8125 C-2.8109337 5.31172896 -2.8109337 5.31172896 -1.125 2.4375 C-0.75375 1.633125 -0.3825 0.82875 0 0 Z " fill="#D3978A" transform="translate(59,28)"/>
<path d="M0 0 C0.8125 1.6875 0.8125 1.6875 1 4 C-1.3125 6.625 -1.3125 6.625 -4 9 C-4.66 9.66 -5.32 10.32 -6 11 C-6.49046322 5.60490463 -6.49046322 5.60490463 -4.125 2.6875 C-2 1 -2 1 0 0 Z " fill="#A06E66" transform="translate(82,14)"/>
<path d="M0 0 C0.66 0 1.32 0 2 0 C1.67 2.64 1.34 5.28 1 8 C2.32 8.33 3.64 8.66 5 9 C3.35 9 1.7 9 0 9 C-0.33 8.01 -0.66 7.02 -1 6 C-2.65 6 -4.3 6 -6 6 C-5.67 4.68 -5.34 3.36 -5 2 C-4.67 2.99 -4.34 3.98 -4 5 C-2.29159719 3.36587557 -1.06546953 2.13093906 0 0 Z " fill="#A86B63" transform="translate(162,106)"/>
<path d="M0 0 C0.66 0.66 1.32 1.32 2 2 C0.7934375 2.556875 0.7934375 2.556875 -0.4375 3.125 C-3.31172896 4.8109337 -3.31172896 4.8109337 -3.8125 8.1875 C-3.9053125 9.5796875 -3.9053125 9.5796875 -4 11 C-4.66 11 -5.32 11 -6 11 C-6.33 8.69 -6.66 6.38 -7 4 C-4.69 2.68 -2.38 1.36 0 0 Z " fill="#8FBCB6" transform="translate(125,71)"/>
<path d="M0 0 C0.99 0 1.98 0 3 0 C3.66 1.32 4.32 2.64 5 4 C6.32 3.67 7.64 3.34 9 3 C9.33 3.66 9.66 4.32 10 5 C7.35261084 6.4606285 6.10551666 7 3 7 C3 6.34 3 5.68 3 5 C2.34 5 1.68 5 1 5 C0.67 3.35 0.34 1.7 0 0 Z " fill="#976458" transform="translate(138,57)"/>
<path d="M0 0 C1.32 0.99 2.64 1.98 4 3 C4.33 2.34 4.66 1.68 5 1 C5.45375 1.94875 5.9075 2.8975 6.375 3.875 C7.80238254 7.00313679 7.80238254 7.00313679 10 9 C8.68 9.33 7.36 9.66 6 10 C5.38125 9.195625 4.7625 8.39125 4.125 7.5625 C2.25835959 4.96125481 2.25835959 4.96125481 0 4 C0 2.68 0 1.36 0 0 Z " fill="#BBBCAB" transform="translate(139,46)"/>
<path d="M0 0 C2.625 0.375 2.625 0.375 5 1 C5 2.32 5 3.64 5 5 C3.68 5 2.36 5 1 5 C1 4.34 1 3.68 1 3 C0.34 3 -0.32 3 -1 3 C-1 4.65 -1 6.3 -1 8 C-1.33 8 -1.66 8 -2 8 C-2.125 5.125 -2.125 5.125 -2 2 C-1.34 1.34 -0.68 0.68 0 0 Z " fill="#E0B7B1" transform="translate(54,186)"/>
<path d="M0 0 C2.97 0.495 2.97 0.495 6 1 C6 1.66 6 2.32 6 3 C6.99 3.33 7.98 3.66 9 4 C7.68 4.33 6.36 4.66 5 5 C5 4.34 5 3.68 5 3 C3.02 3.66 1.04 4.32 -1 5 C-0.67 3.35 -0.34 1.7 0 0 Z " fill="#619493" transform="translate(93,136)"/>
<path d="M0 0 C3.375 -0.125 3.375 -0.125 7 0 C7.66 0.66 8.32 1.32 9 2 C8.625 4.125 8.625 4.125 8 6 C7.4121875 5.2575 7.4121875 5.2575 6.8125 4.5 C4.44908285 2.54406857 2.98564997 2.75792027 0 3 C0 2.01 0 1.02 0 0 Z " fill="#5B5A4F" transform="translate(117,50)"/>
<path d="M0 0 C0.33 1.32 0.66 2.64 1 4 C1.66 4 2.32 4 3 4 C3 5.65 3 7.3 3 9 C2.4225 8.690625 1.845 8.38125 1.25 8.0625 C-0.9338937 6.9327131 -0.9338937 6.9327131 -3.1875 6.5 C-3.785625 6.335 -4.38375 6.17 -5 6 C-5.33 5.34 -5.66 4.68 -6 4 C-4.02 4 -2.04 4 0 4 C0 2.68 0 1.36 0 0 Z " fill="#7B7264" transform="translate(136,38)"/>
<path d="M0 0 C0.99 0.33 1.98 0.66 3 1 C3 2.65 3 4.3 3 6 C-0.63 6 -4.26 6 -8 6 C-6 4 -6 4 -3.375 3.875 C-2.59125 3.91625 -1.8075 3.9575 -1 4 C-0.67 2.68 -0.34 1.36 0 0 Z " fill="#5A422F" transform="translate(121,207)"/>
<path d="M0 0 C0.99 1.485 0.99 1.485 2 3 C2.66386719 2.91621094 3.32773437 2.83242187 4.01171875 2.74609375 C12.78207381 1.73462214 12.78207381 1.73462214 17 3 C17 3.33 17 3.66 17 4 C8.585 4.495 8.585 4.495 0 5 C0 3.35 0 1.7 0 0 Z " fill="#4A2B1E" transform="translate(48,208)"/>
<path d="M0 0 C1.32 0 2.64 0 4 0 C4.6875 1.6875 4.6875 1.6875 5 4 C3.75 6.6875 3.75 6.6875 2 9 C1.01 9.33 0.02 9.66 -1 10 C-1 8.02 -1 6.04 -1 4 C0.32 4.33 1.64 4.66 3 5 C3 3.68 3 2.36 3 1 C2.01 0.67 1.02 0.34 0 0 Z " fill="#956863" transform="translate(171,89)"/>
<path d="M0 0 C1.32 0.33 2.64 0.66 4 1 C3.54625 1.515625 3.0925 2.03125 2.625 2.5625 C0.61799617 5.57300574 -0.12731809 8.50927237 -1 12 C-1.33 12 -1.66 12 -2 12 C-2.05422947 10.5629191 -2.09289723 9.12524538 -2.125 7.6875 C-2.14820312 6.88699219 -2.17140625 6.08648437 -2.1953125 5.26171875 C-2 3 -2 3 0 0 Z " fill="#C4E9E5" transform="translate(104,70)"/>
<path d="M0 0 C-1.35021826 4.41889613 -3.26115668 6.34345343 -7 9 C-6.67 6.36 -6.34 3.72 -6 1 C-3.92446352 0.4465236 -2.15634036 0 0 0 Z " fill="#F9C9BC" transform="translate(74,22)"/>
<path d="M0 0 C0.33 0 0.66 0 1 0 C1.18451025 9.41002278 1.18451025 9.41002278 0 14 C-1.32 14 -2.64 14 -4 14 C-3.625 11.5625 -3.625 11.5625 -3 9 C-2.34 8.67 -1.68 8.34 -1 8 C-0.53476937 6.10466658 -0.53476937 6.10466658 -0.375 3.9375 C-0.25125 2.638125 -0.1275 1.33875 0 0 Z " fill="#78C4C5" transform="translate(76,152)"/>
<path d="M0 0 C0.66 0.66 1.32 1.32 2 2 C1.071875 1.95875 0.14375 1.9175 -0.8125 1.875 C-4.15809719 1.72863661 -4.15809719 1.72863661 -7 4 C-7.66 2.68 -8.32 1.36 -9 0 C-5.88135455 -1.55932272 -3.33704665 -0.65549131 0 0 Z " fill="#57919D" transform="translate(73,135)"/>
<path d="M0 0 C1 3 1 3 0 6 C-0.99 6.33 -1.98 6.66 -3 7 C-3 6.34 -3 5.68 -3 5 C-4.98 5 -6.96 5 -9 5 C-8.67 3.68 -8.34 2.36 -8 1 C-8 1.99 -8 2.98 -8 4 C-5.0280615 2.87548273 -2.66559313 1.77706209 0 0 Z " fill="#BE8883" transform="translate(168,94)"/>
<path d="M0 0 C2.56687367 3.8503105 1.83288724 5.58569763 1 10 C-0.65 10 -2.3 10 -4 10 C-2.68 9.67 -1.36 9.34 0 9 C-0.33 7.02 -0.66 5.04 -1 3 C-1.99 3 -2.98 3 -4 3 C-3 1 -3 1 0 0 Z " fill="#367688" transform="translate(99,61)"/>
<path d="M0 0 C2.71224618 1.61268692 5.37352812 3.24901874 8 5 C7.67 6.32 7.34 7.64 7 9 C1.21538462 4.56923077 1.21538462 4.56923077 0.125 1.6875 C0.08375 1.130625 0.0425 0.57375 0 0 Z " fill="#547674" transform="translate(72,57)"/>
<path d="M0 0 C0 0.66 0 1.32 0 2 C-1.98 2 -3.96 2 -6 2 C-6 2.99 -6 3.98 -6 5 C-7.32 4.67 -8.64 4.34 -10 4 C-9.67 2.68 -9.34 1.36 -9 0 C-5.67465243 -1.10844919 -3.37817425 -0.84454356 0 0 Z " fill="#B7E4E3" transform="translate(122,41)"/>
<path d="M0 0 C1.98 0.66 3.96 1.32 6 2 C5.54625 2.7425 5.0925 3.485 4.625 4.25 C3.31359204 6.46930578 2.11719197 8.67967822 1 11 C-0.17571451 7.32589215 -0.07366746 3.83070817 0 0 Z " fill="#577475" transform="translate(100,174)"/>
<path d="M0 0 C0.66 1.32 1.32 2.64 2 4 C3.65 4 5.3 4 7 4 C6.67 5.32 6.34 6.64 6 8 C4.70359622 7.40606618 3.41301161 6.79942011 2.125 6.1875 C1.40570313 5.85105469 0.68640625 5.51460937 -0.0546875 5.16796875 C-2 4 -2 4 -4 1 C-2.68 0.67 -1.36 0.34 0 0 Z " fill="#895C56" transform="translate(46,23)"/>
<path d="M0 0 C2.97 0 5.94 0 9 0 C8.34 1.98 7.68 3.96 7 6 C6.34 6 5.68 6 5 6 C4.87625 5.071875 4.87625 5.071875 4.75 4.125 C4.08785794 1.46510021 4.08785794 1.46510021 0 0 Z " fill="#365251" transform="translate(98,152)"/>
<path d="M0 0 C0.99 0.33 1.98 0.66 3 1 C2.67 1.99 2.34 2.98 2 4 C3.98 3.67 5.96 3.34 8 3 C7.67 3.99 7.34 4.98 7 6 C5.02 6.33 3.04 6.66 1 7 C0.67 4.69 0.34 2.38 0 0 Z " fill="#C18C83" transform="translate(167,104)"/>
<path d="M0 0 C2 3 2 3 2.375 6.0625 C2.66950046 9.12643997 2.66950046 9.12643997 5.0625 10.375 C5.701875 10.58125 6.34125 10.7875 7 11 C6.01 11.99 5.02 12.98 4 14 C3.32471777 12.42032193 2.66010306 10.83608097 2 9.25 C1.62875 8.36828125 1.2575 7.4865625 0.875 6.578125 C0 4 0 4 0 0 Z " fill="#532827" transform="translate(132,57)"/>
<path d="M0 0 C0.99 0.33 1.98 0.66 3 1 C2.67 2.65 2.34 4.3 2 6 C0.35 5.67 -1.3 5.34 -3 5 C-2.67 3.68 -2.34 2.36 -2 1 C-1.34 1 -0.68 1 0 1 C0 0.67 0 0.34 0 0 Z " fill="#0F2534" transform="translate(147,45)"/>
<path d="M0 0 C2.0625 0.4375 2.0625 0.4375 4 1 C2.70700306 3.88437779 1.34058637 5.87219421 -1 8 C-1.66 7.34 -2.32 6.68 -3 6 C-2.34 6 -1.68 6 -1 6 C-1.0309375 4.7934375 -1.0309375 4.7934375 -1.0625 3.5625 C-1 1 -1 1 0 0 Z " fill="#89AFB0" transform="translate(122,31)"/>
<path d="M0 0 C0 1.65 0 3.3 0 5 C-1.65 5.33 -3.3 5.66 -5 6 C-5 4.35 -5 2.7 -5 1 C-3 0 -3 0 0 0 Z " fill="#D49D94" transform="translate(62,7)"/>
<path d="M0 0 C2.97 0 5.94 0 9 0 C8.67 1.32 8.34 2.64 8 4 C7.01 4 6.02 4 5 4 C5 3.34 5 2.68 5 2 C4.34 2 3.68 2 3 2 C3 2.66 3 3.32 3 4 C2.34 4 1.68 4 1 4 C0.67 2.68 0.34 1.36 0 0 Z " fill="#CBB3A1" transform="translate(112,206)"/>
<path d="M0 0 C0.66 0 1.32 0 2 0 C1.54177532 3.46941546 1.10868317 6.67395049 0 10 C-0.66 10 -1.32 10 -2 10 C-1.125 2.25 -1.125 2.25 0 0 Z " fill="#D8A595" transform="translate(59,201)"/>
<path d="M0 0 C0.65234375 1.734375 0.65234375 1.734375 1 4 C0.00390625 6.140625 0.00390625 6.140625 -1.4375 8.25 C-1.91058594 8.95640625 -2.38367188 9.6628125 -2.87109375 10.390625 C-3.24363281 10.92171875 -3.61617188 11.4528125 -4 12 C-5 9 -5 9 -4.00390625 6.73828125 C-3.52824219 5.93777344 -3.05257812 5.13726562 -2.5625 4.3125 C-2.08941406 3.50425781 -1.61632812 2.69601563 -1.12890625 1.86328125 C-0.75636719 1.24839844 -0.38382812 0.63351563 0 0 Z " fill="#7AB5B6" transform="translate(87,147)"/>
<path d="M0 0 C0.66 0.33 1.32 0.66 2 1 C1.65120368 4.25543229 0.97866739 5.01873107 -1.5625 7.25 C-2.7690625 8.11625 -2.7690625 8.11625 -4 9 C-3.46930939 5.17902761 -2.50298434 2.93828597 0 0 Z " fill="#395D5E" transform="translate(93,142)"/>
<path d="M0 0 C1.98 0.66 3.96 1.32 6 2 C6 3.98 6 5.96 6 8 C4.02 8.99 4.02 8.99 2 10 C2.226875 9.0925 2.45375 8.185 2.6875 7.25 C3.32605545 4.00496499 3.32605545 4.00496499 1.5625 1.625 C1.046875 1.08875 0.53125 0.5525 0 0 Z " fill="#9DC4B9" transform="translate(95,74)"/>
<path d="M0 0 C2.475 0.99 2.475 0.99 5 2 C5 3.65 5 5.3 5 7 C4.34 7 3.68 7 3 7 C2.67 5.68 2.34 4.36 2 3 C1.67 3.99 1.34 4.98 1 6 C0.34 6 -0.32 6 -1 6 C-0.67 4.02 -0.34 2.04 0 0 Z " fill="#CDAF90" transform="translate(64,204)"/>
<path d="M0 0 C0.66 0.33 1.32 0.66 2 1 C1.67 1.99 1.34 2.98 1 4 C0.01 3.34 -0.98 2.68 -2 2 C-4.63434254 2.32126128 -6.62710097 2.81355048 -9 4 C-6.74770562 -0.98722328 -5.25381986 -1.31345496 0 0 Z " fill="#A9B4A9" transform="translate(148,39)"/>
<path d="M0 0 C0.66 0.33 1.32 0.66 2 1 C2 1.66 2 2.32 2 3 C-0.5614657 5.29648649 -1.47967572 6 -5 6 C-5 5.01 -5 4.02 -5 3 C-4.34 3 -3.68 3 -3 3 C-3 2.34 -3 1.68 -3 1 C-2.01 0.67 -1.02 0.34 0 0 Z " fill="#EFBDB1" transform="translate(64,19)"/>
<path d="M0 0 C0 4.24170573 -1.83750763 6.75139708 -4.6875 9.8125 C-5.120625 10.204375 -5.55375 10.59625 -6 11 C-6.66 10.67 -7.32 10.34 -8 10 C-5.36 6.7 -2.72 3.4 0 0 Z " fill="#81A199" transform="translate(129,117)"/>
<path d="M0 0 C0.99 0.33 1.98 0.66 3 1 C2.34 1 1.68 1 1 1 C0.67 2.65 0.34 4.3 0 6 C-0.99 6.33 -1.98 6.66 -3 7 C-3.66 5.35 -4.32 3.7 -5 2 C-2.525 2.495 -2.525 2.495 0 3 C0 2.01 0 1.02 0 0 Z " fill="#D38A7E" transform="translate(161,104)"/>
<path d="M0 0 C2.475 0.495 2.475 0.495 5 1 C5 1.66 5 2.32 5 3 C4.01 3 3.02 3 2 3 C2 4.65 2 6.3 2 8 C0 6 0 6 -0.125 2.875 C-0.08375 1.92625 -0.0425 0.9775 0 0 Z " fill="#6AA4A8" transform="translate(139,102)"/>
<path d="M0 0 C1.32 0.66 2.64 1.32 4 2 C3.34 2 2.68 2 2 2 C1.67 2.99 1.34 3.98 1 5 C0.01 5.66 -0.98 6.32 -2 7 C-3.19232613 9.05003955 -3.19232613 9.05003955 -4 11 C-4.1875 8.6875 -4.1875 8.6875 -4 6 C-2.5625 4.375 -2.5625 4.375 -1 3 C-0.67 2.01 -0.34 1.02 0 0 Z " fill="#77958C" transform="translate(127,74)"/>
<path d="M0 0 C0.99 0.99 1.98 1.98 3 3 C3.66 2.67 4.32 2.34 5 2 C4.814375 2.94875 4.62875 3.8975 4.4375 4.875 C3.71313368 7.89868793 3.71313368 7.89868793 5 10 C3.0625 9.5 3.0625 9.5 1 8 C0.31209578 5.30341548 0.18053536 2.7982981 0 0 Z " fill="#1E0B0B" transform="translate(122,52)"/>
<path d="M0 0 C0.33 0.66 0.66 1.32 1 2 C1.99 1.67 2.98 1.34 4 1 C6.1875 2.4375 6.1875 2.4375 8 4 C7.67 4.33 7.34 4.66 7 5 C4.66055264 4.71269945 2.3260857 4.38063221 0 4 C0 2.68 0 1.36 0 0 Z " fill="#70A8A6" transform="translate(71,164)"/>
<path d="M0 0 C0.99 0 1.98 0 3 0 C1.66666667 3.33333333 0.33333333 6.66666667 -1 10 C-1.66 9.01 -2.32 8.02 -3 7 C-1.625 3.3125 -1.625 3.3125 0 0 Z " fill="#699DA0" transform="translate(82,159)"/>
<path d="M0 0 C2 3 2 3 2 5 C2.66 5 3.32 5 4 5 C4 5.66 4 6.32 4 7 C4.66 7.33 5.32 7.66 6 8 C4.35 8.33 2.7 8.66 1 9 C0.67 6.03 0.34 3.06 0 0 Z " fill="#8A554C" transform="translate(137,57)"/>
<path d="M0 0 C0.66 0 1.32 0 2 0 C1.95875 1.2375 1.9175 2.475 1.875 3.75 C1.86341709 7.01637962 2.1431298 9.2146947 4 12 C2.68 12 1.36 12 0 12 C0 8.04 0 4.08 0 0 Z " fill="#6FA7A6" transform="translate(72,45)"/>
<path d="M0 0 C0.66 0 1.32 0 2 0 C1.34 2.97 0.68 5.94 0 9 C-2 5 -2 5 -2 2 C-1.34 1.34 -0.68 0.68 0 0 Z " fill="#3D6567" transform="translate(69,39)"/>
<path d="M0 0 C0.763125 0.061875 1.52625 0.12375 2.3125 0.1875 C2.6425 1.1775 2.9725 2.1675 3.3125 3.1875 C0.3425 3.1875 -2.6275 3.1875 -5.6875 3.1875 C-2.6875 0.1875 -2.6875 0.1875 0 0 Z " fill="#93C6C3" transform="translate(129.6875,27.8125)"/>
<path d="M0 0 C0.66 0.99 1.32 1.98 2 3 C0.68 4.32 -0.64 5.64 -2 7 C-2.99 5.68 -3.98 4.36 -5 3 C-3.35 2.67 -1.7 2.34 0 2 C0 1.34 0 0.68 0 0 Z " fill="#A26B66" transform="translate(54,14)"/>
<path d="M0 0 C1.65 0 3.3 0 5 0 C4.67 1.65 4.34 3.3 4 5 C2.68 4.67 1.36 4.34 0 4 C0 2.68 0 1.36 0 0 Z " fill="#D09D7D" transform="translate(49,207)"/>
<path d="M0 0 C1.32 0.66 2.64 1.32 4 2 C4 2.99 4 3.98 4 5 C2.35 5 0.7 5 -1 5 C-0.67 3.35 -0.34 1.7 0 0 Z " fill="#B6837B" transform="translate(177,105)"/>
<path d="M0 0 C-1 3 -1 3 -4 5 C-6.1875 4.625 -6.1875 4.625 -8 4 C-4.5 0 -4.5 0 0 0 Z " fill="#734644" transform="translate(178,102)"/>
<path d="M0 0 C0.66 0.99 1.32 1.98 2 3 C1 5 1 5 -1 6 C-1.66 6.99 -2.32 7.98 -3 9 C-3.33 7.35 -3.66 5.7 -4 4 C-2.68 3.67 -1.36 3.34 0 3 C0 2.01 0 1.02 0 0 Z " fill="#866B6A" transform="translate(62,9)"/>
<path d="M0 0 C2.88575819 0.39803561 3.82189513 0.79009069 5.75 3.0625 C6.1625 3.701875 6.575 4.34125 7 5 C3.47967572 5 2.5614657 4.29648649 0 2 C0 1.34 0 0.68 0 0 Z " fill="#60AAB3" transform="translate(67,138)"/>
<path d="M0 0 C-0.66 1.32 -1.32 2.64 -2 4 C-3.65 4 -5.3 4 -7 4 C-6.67 3.01 -6.34 2.02 -6 1 C-3 0 -3 0 0 0 Z " fill="#76B4BB" transform="translate(155,108)"/>
<path d="M0 0 C0.99 0 1.98 0 3 0 C3 1.32 3 2.64 3 4 C2.01 4.495 2.01 4.495 1 5 C1.66 5.66 2.32 6.32 3 7 C1.68 7 0.36 7 -1 7 C-0.67 4.69 -0.34 2.38 0 0 Z " fill="#A47672" transform="translate(170,101)"/>
<path d="M0 0 C0.33 0.66 0.66 1.32 1 2 C3.64 2 6.28 2 9 2 C9.33 2.66 9.66 3.32 10 4 C9.34 4.66 8.68 5.32 8 6 C7.67 5.34 7.34 4.68 7 4 C4.64400765 3.53248212 4.64400765 3.53248212 1.9375 3.375 C1.01839844 3.30023438 0.09929688 3.22546875 -0.84765625 3.1484375 C-1.55792969 3.09945312 -2.26820312 3.05046875 -3 3 C-2.01 2.67 -1.02 2.34 0 2 C0 1.34 0 0.68 0 0 Z " fill="#745B5B" transform="translate(48,35)"/>
<path d="M0 0 C0.66 0.33 1.32 0.66 2 1 C0.1875 3.5 0.1875 3.5 -2 6 C-2.99 6 -3.98 6 -5 6 C-3.63016497 2.83884224 -3.0109362 2.0072908 0 0 Z " fill="#87BCBF" transform="translate(122,24)"/>
<path d="M0 0 C0.66 0.33 1.32 0.66 2 1 C1.67 2.32 1.34 3.64 1 5 C1.66 5 2.32 5 3 5 C3.33 4.01 3.66 3.02 4 2 C4 3.32 4 4.64 4 6 C2.35 5.67 0.7 5.34 -1 5 C-0.67 3.35 -0.34 1.7 0 0 Z " fill="#7C4B31" transform="translate(66,206)"/>
<path d="M0 0 C1.32 0.33 2.64 0.66 4 1 C4 2.98 4 4.96 4 7 C2 5.1875 2 5.1875 0 3 C0 2.01 0 1.02 0 0 Z " fill="#B06963" transform="translate(53,191)"/>
<path d="M0 0 C-0.33 1.32 -0.66 2.64 -1 4 C-3.31 3.67 -5.62 3.34 -8 3 C-5.30759886 -0.07702988 -4.02104508 0 0 0 Z " fill="#74A8A6" transform="translate(101,133)"/>
<path d="M0 0 C0.66 1.32 1.32 2.64 2 4 C0.68 5.32 -0.64 6.64 -2 8 C-1.67 6.35 -1.34 4.7 -1 3 C-1.66 2.67 -2.32 2.34 -3 2 C-2.01 1.34 -1.02 0.68 0 0 Z " fill="#BCE5E1" transform="translate(94,90)"/>
<path d="M0 0 C0.66 0 1.32 0 2 0 C3.42944945 2.35438733 4.08661261 3.48032433 3.625 6.25 C3.41875 6.8275 3.2125 7.405 3 8 C3 7.34 3 6.68 3 6 C1.68 5.67 0.36 5.34 -1 5 C-0.67 3.35 -0.34 1.7 0 0 Z " fill="#3C1111" transform="translate(126,53)"/>
<path d="M0 0 C1.32 0 2.64 0 4 0 C4 1.32 4 2.64 4 4 C2.35 4 0.7 4 -1 4 C-0.67 2.68 -0.34 1.36 0 0 Z " fill="#F4BBAE" transform="translate(60,34)"/>
<path d="M0 0 C0.66 0 1.32 0 2 0 C2 0.99 2 1.98 2 3 C2.99 3.33 3.98 3.66 5 4 C3.35 4.33 1.7 4.66 0 5 C-0.5625 3.0625 -0.5625 3.0625 -1 1 C-0.67 0.67 -0.34 0.34 0 0 Z " fill="#D99189" transform="translate(48,23)"/>
<path d="M0 0 C1.32 0 2.64 0 4 0 C4.625 1.875 4.625 1.875 5 4 C4.34 4.66 3.68 5.32 3 6 C0 2.25 0 2.25 0 0 Z " fill="#9AD9DC" transform="translate(141,105)"/>
<path d="M0 0 C1.32 0 2.64 0 4 0 C4 0.99 4 1.98 4 3 C2.35 3.33 0.7 3.66 -1 4 C-0.67 2.68 -0.34 1.36 0 0 Z " fill="#C99B97" transform="translate(150,96)"/>
<path d="M0 0 C2.96175123 0.61277612 4.38058783 1.25372522 7 3 C5.02 3.33 3.04 3.66 1 4 C0.67 2.68 0.34 1.36 0 0 Z " fill="#2E6778" transform="translate(87,53)"/>
<path d="M0 0 C0.33 0.66 0.66 1.32 1 2 C0.01 3.485 0.01 3.485 -1 5 C-1.99 5 -2.98 5 -4 5 C-4 3.68 -4 2.36 -4 1 C-2.68 0.67 -1.36 0.34 0 0 Z " fill="#C08C82" transform="translate(64,26)"/>
<path d="M0 0 C1.98 0.495 1.98 0.495 4 1 C4 1.99 4 2.98 4 4 C2.35 4 0.7 4 -1 4 C-0.67 2.68 -0.34 1.36 0 0 Z " fill="#BDEAE9" transform="translate(124,24)"/>
</svg>
